<?xml version="1.0" standalone="no"?>
<!DOCTYPE svg PUBLIC "-//W3C//DTD SVG 1.1//EN" "http://www.w3.org/Graphics/SVG/1.1/DTD/svg11.dtd" >
<svg xmlns="http://www.w3.org/2000/svg" xmlns:xlink="http://www.w3.org/1999/xlink" version="1.1">
<metadata>
Created by FontForge 20230101 at Thu Feb 12 07:52:59 2026
 By User
Copyright (c) 2024 Hugo Lopez and E'SAD Valence. All rights reserved.
</metadata>
<defs>
<font id="Caramel-Regular" horiz-adv-x="332" >
  <font-face 
    font-family="Caramel"
    font-weight="400"
    font-stretch="normal"
    units-per-em="1000"
    panose-1="0 0 0 0 0 0 0 0 0 0"
    ascent="800"
    descent="-200"
    x-height="497"
    cap-height="673.998"
    bbox="-65 -179 616 858.001"
    underline-thickness="50"
    underline-position="-125"
    unicode-range="U+0020-1F36C"
  />
<missing-glyph horiz-adv-x="456" 
d="M64 0c-29.333 0 -44 16 -44 48v574c0 32 14.667 48 44 48h328c29.333 0 44 -16 44 -48v-574c0 -32 -14.667 -48 -44 -48h-328zM127 107h202v456h-202v-456z" />
    <glyph glyph-name="f_f.liga" unicode="ff" horiz-adv-x="480" 
d="M335 -4c-16 0 -28.9961 4.16699 -38.9961 12.5s-15 20.166 -15 35.499v359h-94v-359c0 -15.333 -4.83301 -27.166 -14.5 -35.499s-22.5 -12.5 -38.5 -12.5s-29 4.16699 -39 12.5s-15 20.166 -15 35.499v355l-31 -1c-15.333 -0.666992 -26.5 3.16602 -33.5 11.499
s-10.5 20.5 -10.5 36.5c0 34.667 14.667 51 44 49l31 -2v40c0 48 11.667 83.5 35 106.5s55.666 34.5 96.999 34.5h14c15.333 0 27.166 -4.83301 35.499 -14.5s12.5 -22.5 12.5 -38.5c0 -32.667 -16 -49 -48 -49c-26 0 -39 -12.667 -39 -38v-45h94v44
c0 48 11.667 83.5 35 106.5s55.666 34.5 96.999 34.5h14c15.333 0 27.166 -4.83301 35.499 -14.5s12.5 -22.5 12.5 -38.5c0 -32.667 -16 -49 -48 -49c-26 0 -39 -12.667 -39 -38v-40l31 1c14.667 0.666992 25.334 -3.33301 32.001 -12s10 -21 10 -37
s-3.33301 -28.167 -10 -36.5s-17.334 -12.166 -32.001 -11.499l-31 1v-355c0 -15.333 -4.83301 -27.166 -14.5 -35.499s-22.5 -12.5 -38.5 -12.5z" />
    <glyph glyph-name="t_t.liga" unicode="tt" horiz-adv-x="506" 
d="M409 -1c-41.333 0 -73.666 11.5 -96.999 34.5s-35 58.5 -35 106.5v263h-95v-259c0 -25.333 13 -38 39 -38c15.333 0 27.166 -5 35.499 -15s12.5 -23 12.5 -39s-4.16699 -28.833 -12.5 -38.5s-20.166 -14.5 -35.499 -14.5h-14c-41.333 0 -73.666 11.5 -96.999 34.5
s-35 58.5 -35 106.5v259l-31 -1c-15.333 -0.666992 -26.5 3.16602 -33.5 11.499s-10.5 20.5 -10.5 36.5c0 34.667 14.667 51 44 49l31 -2v59c0 36 19.667 54 59 54c15.333 0 27.166 -3.5 35.499 -10.5s12.5 -16.167 12.5 -27.5v-79h95v63c0 36 19.667 54 59 54
c15.333 0 27.166 -3.5 35.499 -10.5s12.5 -16.167 12.5 -27.5v-75l60 2c14.667 0.666992 25.334 -3.33301 32.001 -12s10 -21 10 -37s-3.33301 -28.167 -10 -36.5s-17.334 -12.166 -32.001 -11.499l-60 2v-256c0 -25.333 13 -38 39 -38c15.333 0 27.166 -5 35.499 -15
s12.5 -23 12.5 -39s-4.16699 -28.833 -12.5 -38.5s-20.166 -14.5 -35.499 -14.5h-14z" />
    <glyph glyph-name=".notdef" horiz-adv-x="456" 
d="M64 0c-29.333 0 -44 16 -44 48v574c0 32 14.667 48 44 48h328c29.333 0 44 -16 44 -48v-574c0 -32 -14.667 -48 -44 -48h-328zM127 107h202v456h-202v-456z" />
    <glyph glyph-name="space" unicode=" " horiz-adv-x="150" 
 />
    <glyph glyph-name="space" unicode="&#xa0;" horiz-adv-x="150" 
 />
    <glyph glyph-name="space" unicode="&#xa0;" horiz-adv-x="150" 
 />
    <glyph glyph-name="exclam" unicode="!" horiz-adv-x="157" 
d="M79 167c-28 0 -42.667 12.667 -44 38l-15 421c0 14.667 5.66699 26.334 17 35.001s25.333 13 42 13c16 0 29.667 -4.33301 41 -13s17 -20.334 17 -35.001l-14 -421c-1.33301 -25.333 -16 -38 -44 -38zM79 -5c-15.333 0 -27.832 3.83203 -37.499 11.499
s-14.5 18.834 -14.5 33.501v37c0 14.667 4.83301 26 14.5 34s22.167 12 37.5 12s27.666 -4 36.999 -12s14 -19.333 14 -34v-37c0 -30 -17 -45 -51 -45z" />
    <glyph glyph-name="quotedbl" unicode="&#x22;" horiz-adv-x="230" 
d="M60 500c-21.333 0 -33.667 14.667 -37 44l-8 84c-1.33301 12 2.66699 22.667 12 32s20.333 14 33 14c12 0 22.667 -4.66699 32 -14s13.333 -20 12 -32l-8 -84c-4 -29.333 -16 -44 -36 -44zM170.999 500c-22 0 -34.332 14.667 -36.999 44l-8 84
c-0.666992 12 3.66602 22.667 12.999 32s20 14 32 14s22.5 -4.66699 31.5 -14s13.167 -20 12.5 -32l-8 -84c-2.66699 -29.333 -14.667 -44 -36 -44z" />
    <glyph glyph-name="numbersign" unicode="#" horiz-adv-x="630" 
d="M161 -6c-15.333 2.66699 -27.5059 9.16797 -36.5059 19.501s-11.833 22.5 -8.5 36.5l30 129l-78 -6c-14.667 -0.666992 -26.167 3.83301 -34.5 13.5s-12.833 22.5 -13.5 38.5c0.666992 16 5.33398 29.167 14.001 39.5s20.334 15.166 35.001 14.499l96 -7l21 116l-72 -5
c-14.667 -0.666992 -26.167 3.83301 -34.5 13.5s-12.833 22.5 -13.5 38.5c0.666992 16 5.33398 29.167 14.001 39.5s20.334 15.166 35.001 14.499l86 -6l19 150c2 15.333 8.66699 26.166 20 32.499s25.333 8.16602 42 5.49902c16 -3.33301 28.167 -10 36.5 -20
s10.833 -22.333 7.5 -37l-32 -135l97 1l19 154c2 14.667 9 25.334 21 32.001s25.667 8.33398 41 5.00098c16 -2 28.167 -8.16699 36.5 -18.5s10.833 -22.833 7.5 -37.5l-31 -131l77 6c14.667 0.666992 26.334 -4.16602 35.001 -14.499s13 -23.833 13 -40.5
c0 -16 -4.33301 -29 -13 -39s-20.334 -14.667 -35.001 -14l-96 7l-20 -115l70 6c32 -1.33301 48 -19.666 48 -54.999c0 -16 -4.16699 -28.833 -12.5 -38.5s-20.166 -14.5 -35.499 -14.5l-84 7l-19 -146c-2 -14.667 -8.66699 -25.334 -20 -32.001
s-24.666 -8.66699 -39.999 -6c-16 3.33301 -28.333 10 -37 20s-11.334 22.333 -8.00098 37l30 130l-97 1l-20 -152c-2 -14 -8.66699 -24.333 -20 -31s-24.666 -8.66699 -39.999 -6zM253.994 269.001l102 1l22 122l-101 1z" />
    <glyph glyph-name="dollar" unicode="$" horiz-adv-x="327" 
d="M155.766 737.371c16.1562 0.418945 29.1621 -3.68652 39.0186 -12.3203c10.1064 -8.00391 15.1553 -19.7646 15.1465 -35.2812l-0.379883 -699.457c0.298828 -14.874 -4.63574 -26.7217 -14.8047 -35.543c-9.83105 -8.5127 -22.6553 -12.8115 -38.4727 -12.8965
c-35.4727 0.0849609 -53.2061 16.0391 -53.2002 47.8613l0.121094 700.422c-0.129883 15.2295 4.6875 26.873 14.4521 34.9307c9.56934 7.94238 22.2754 12.0371 38.1191 12.2842zM152 -3.99805c-41.333 0 -73.6689 11.499 -97.002 34.499s-35 58.5 -35 106.5v61
c0 35.333 16.667 53 50 53c34.667 0 52 -15.667 52 -47v-72c0 -25.333 13 -38 39 -38s39 12.667 39 38v14c0 32.667 -6.16699 61.834 -18.5 87.501s-27.333 47.5 -45 65.5s-35.334 36.667 -53.001 56s-32.667 44.5 -45 75.5s-18.5 66.5 -18.5 106.5
c0 39.333 12.667 72 38 98s57.666 39 96.999 39h17c42.667 0 75.834 -12 99.501 -36s35.5 -53 35.5 -87v-86c0 -17.333 -5.16699 -30.5 -15.5 -39.5s-23.166 -13.5 -38.499 -13.5c-16 0 -28.833 4.33301 -38.5 13s-14.5 20.667 -14.5 36v76c0 11.333 -3.66699 20.5 -11 27.5
s-16.666 10.5 -27.999 10.5s-20.666 -4 -27.999 -12s-11 -16.667 -11 -26v-27c0 -26.667 6.33301 -51.5 19 -74.5s28 -43.667 46 -62s36.167 -37.5 54.5 -57.5s33.833 -44.5 46.5 -73.5s19 -61.167 19 -96.5c0 -100 -44 -150 -132 -150h-23z" />
    <glyph glyph-name="percent" unicode="%" horiz-adv-x="601" 
d="M94 6c-21.333 11.333 -25 29.333 -11 54l341 589c8 12.667 19.833 20.167 35.5 22.5s30.5 -0.5 44.5 -8.5c21.333 -11.333 25 -29.333 11 -54l-341 -589c-8 -12.667 -19.833 -20.167 -35.5 -22.5s-30.5 0.5 -44.5 8.5zM452 -9c-40 0 -71.5 14 -94.5 42
s-34.5 63.667 -34.5 107s11.5 79 34.5 107s54.5 42 94.5 42s71.5 -14 94.5 -42s34.5 -63.667 34.5 -107s-11.5 -79 -34.5 -107s-54.5 -42 -94.5 -42zM452 78c28 0 42 20.667 42 62s-14 62 -42 62s-42 -20.667 -42 -62s14 -62 42 -62zM149 381c-40 0 -71.5 14 -94.5 42
s-34.5 63.667 -34.5 107s11.5 79 34.5 107s54.5 42 94.5 42s71.5 -14 94.5 -42s34.5 -63.667 34.5 -107s-11.5 -79 -34.5 -107s-54.5 -42 -94.5 -42zM149 468c28 0 42 20.667 42 62s-14 62 -42 62s-42 -20.667 -42 -62s14 -62 42 -62z" />
    <glyph glyph-name="ampersand" unicode="&#x26;" horiz-adv-x="450" 
d="M433 4c-23.333 -20 -44.6689 -18.665 -64.002 4.00195l-76 85l-4 -8c-10 -18.667 -18.833 -33.5 -26.5 -44.5s-18.667 -21.167 -33 -30.5s-30.833 -14 -49.5 -14h-28c-41.333 0 -73.666 11.5 -96.999 34.5s-35 58.5 -35 106.5v70c0 61.333 16 107.333 48 138l-9 11
c-20.667 23.333 -31 54.666 -31 93.999v71c0 50 9.5 88 28.5 114s51.167 39 96.5 39h26c44.667 0 76.667 -13.167 96 -39.5s29 -64.5 29 -114.5v-37c0 -17.333 -4.83301 -30.5 -14.5 -39.5s-21.834 -13.5 -36.501 -13.5c-15.333 0 -27.5 4.33301 -36.5 13
s-13.5 20.667 -13.5 36v65c0 10.667 -3.33301 19.334 -10 26.001s-15.667 10 -27 10c-10.667 0 -19.5 -3.33301 -26.5 -10s-10.5 -15.334 -10.5 -26.001v-113c0 -15.333 5.33301 -29 16 -41l126 -140l35 73c12 26.667 32.667 33 62 19
c12.667 -6.66699 20.834 -15.667 24.501 -27s2.16699 -23.333 -4.5 -36l-52 -101l101 -112c18.667 -20.667 17.334 -41.334 -3.99902 -62.001zM126.997 132.002c0 -12 3.83301 -21.333 11.5 -28s17.5 -10 29.5 -10c10.667 0 19 2.5 25 7.5s12 13.5 18 25.5l18 38l-96 108
c-4 -6 -6 -13.333 -6 -22v-119z" />
    <glyph glyph-name="quotesingle" unicode="'" horiz-adv-x="109" 
d="M55 477c-24 0 -37.667 16.333 -41 49l-9 93c-1.33301 13.333 3.16699 25.166 13.5 35.499s22.5 15.5 36.5 15.5c13.333 0 25.166 -5.16699 35.499 -15.5s14.833 -22.166 13.5 -35.499l-9 -93c-3.33301 -32.667 -16.666 -49 -39.999 -49z" />
    <glyph glyph-name="parenleft" unicode="(" horiz-adv-x="186" 
d="M142 -112c-34 -10 -55.6641 0 -64.9971 30c-38 128.667 -57 249.334 -57 362.001c0 112 19 232.333 57 361c8.66699 30 30 40.333 64 31c15.333 -4.66699 26.666 -12.334 33.999 -23.001s8.66602 -23.334 3.99902 -38.001c-36.667 -120 -55 -230.333 -55 -331
c0 -59.333 4.16699 -113.333 12.5 -162s22.166 -105 41.499 -169c9.33301 -29.333 -2.66699 -49.666 -36 -60.999z" />
    <glyph glyph-name="parenright" unicode=")" horiz-adv-x="181" 
d="M39 -112c-33.333 11.333 -45.3301 31.666 -35.9971 60.999c19.333 64 33.166 120.333 41.499 169s12.5 102.667 12.5 162c0 100.667 -18.333 211 -55 331c-4.66699 14.667 -3.33398 27.334 3.99902 38.001s18.666 18.334 33.999 23.001c34 9.33301 55.333 -1 64 -31
c38 -128.667 57 -249 57 -361c0 -112.667 -19 -233.334 -57 -362.001c-9.33301 -30 -31 -40 -65 -30z" />
    <glyph glyph-name="asterisk" unicode="*" horiz-adv-x="338" 
d="M266 379c-11.333 -8 -23.165 -11.668 -35.498 -11.001s-21.5 7 -27.5 19l-34 72l-35 -73c-5.33301 -11.333 -14.333 -17.333 -27 -18s-24.334 3 -35.001 11c-11.333 9.33301 -18.333 19.5 -21 30.5s0.666016 21.5 9.99902 31.5l58 55l-81 10
c-12.667 1.33301 -21.167 8 -25.5 20s-4.16602 24.333 0.500977 37c4.66699 13.333 12.167 23.166 22.5 29.499s21.166 6.5 32.499 0.5l70 -39l-15 80c-2.66699 12.667 0.833008 22.834 10.5 30.501s21.5 11.5 35.5 11.5s25.833 -3.83301 35.5 -11.5
s13.167 -17.834 10.5 -30.501l-15 -79l71 38c10.667 6 21.334 5.83301 32.001 -0.5s18 -16.166 22 -29.499c4.66699 -12.667 4.66699 -25 0 -37s-13.334 -18.667 -26.001 -20l-80 -10l59 -56c8.66699 -9.33301 11.667 -19.666 9 -30.999s-9.66699 -21.333 -21 -30z" />
    <glyph glyph-name="plus" unicode="+" horiz-adv-x="418" 
d="M209 62c-16 0 -28.833 4.16699 -38.5 12.5s-14.5 20.166 -14.5 35.499l3 90l-91 -3c-15.333 0 -27.166 4.83301 -35.499 14.5s-12.5 22.5 -12.5 38.5s4.16699 29 12.5 39s20.166 15 35.499 15l91 -3l-3 91c0 15.333 4.83301 27.166 14.5 35.499s22.5 12.5 38.5 12.5
s29 -4.16699 39 -12.5s15 -20.166 15 -35.499l-3 -91l90 3c15.333 0 27.166 -5 35.499 -15s12.5 -23 12.5 -39s-4.16699 -28.833 -12.5 -38.5s-20.166 -14.5 -35.499 -14.5l-90 3l3 -90c0 -15.333 -5 -27.166 -15 -35.499s-23 -12.5 -39 -12.5z" />
    <glyph glyph-name="comma" unicode="," horiz-adv-x="137" 
d="M36 -68c-23.333 0 -33.001 12.667 -29.001 38l16 102c4 26.667 24.667 40 62 40c18.667 0 31.834 -3.5 39.501 -10.5s8.83398 -16.833 3.50098 -29.5l-39 -102c-5.33301 -13.333 -11.833 -23 -19.5 -29s-18.834 -9 -33.501 -9z" />
    <glyph glyph-name="hyphen" unicode="-" horiz-adv-x="248" 
d="M68 197c-15.333 0 -27.166 4.83301 -35.499 14.5s-12.5 22.5 -12.5 38.5s4.16699 29 12.5 39s20.166 15 35.499 15h112c15.333 0 27.166 -5 35.499 -15s12.5 -23 12.5 -39s-4.16699 -28.833 -12.5 -38.5s-20.166 -14.5 -35.499 -14.5h-112z" />
    <glyph glyph-name="period" unicode="." horiz-adv-x="149" 
d="M74 -5c-15.333 0 -27.832 3.83203 -37.499 11.499s-14.5 18.834 -14.5 33.501v37c0 14.667 4.83301 26 14.5 34s22.167 12 37.5 12s27.666 -4 36.999 -12s14 -19.333 14 -34v-37c0 -30 -17 -45 -51 -45z" />
    <glyph glyph-name="slash" unicode="/" horiz-adv-x="302" 
d="M62 0c-15.333 4 -26.834 11.3311 -34.501 21.998s-9.5 23.334 -5.5 38.001l155 577c4 14.667 11.833 24.834 23.5 30.501s25.167 6.5 40.5 2.5c34 -9.33301 47 -29.333 39 -60l-155 -578c-4 -14.667 -11.667 -24.667 -23 -30s-24.666 -6 -39.999 -2z" />
    <glyph glyph-name="zero" unicode="0" horiz-adv-x="352" 
d="M162 -4c-42 0 -76.167 11.667 -102.5 35s-39.5 58.666 -39.5 105.999v376c0 107.333 47.333 161 142 161h28c94.667 0 142 -54 142 -162v-375c0 -47.333 -13.167 -82.666 -39.5 -105.999s-60.5 -35 -102.5 -35h-28zM176 94c12.667 0 24 3.33301 34 10s15 16 15 28v405
c0 10.667 -5.16699 19.667 -15.5 27s-21.5 11 -33.5 11s-23.167 -3.66699 -33.5 -11s-15.5 -16.333 -15.5 -27v-405c0 -12 5 -21.333 15 -28s21.333 -10 34 -10z" />
    <glyph glyph-name="one" unicode="1" horiz-adv-x="222" 
d="M149 -4c-16 0 -29 4.16699 -39 12.5s-15 20.166 -15 35.499v529h-28c-31.333 1.33301 -47 17.333 -47 48c0 31.333 16 47.666 48 48.999h81c16 0 28.833 -4.16699 38.5 -12.5s14.5 -20.166 14.5 -35.499v-578c0 -15.333 -4.83301 -27.166 -14.5 -35.499
s-22.5 -12.5 -38.5 -12.5z" />
    <glyph glyph-name="two" unicode="2" horiz-adv-x="327" 
d="M64 0c-29.333 0 -44.0029 16.001 -44.0029 48.001c0 46.667 6.33301 90 19 130s28 73.667 46 101s36.167 53 54.5 77s33.833 49.167 46.5 75.5s19 52.5 19 78.5v27c0 9.33301 -3.66699 18 -11 26s-16.666 12 -27.999 12s-20.666 -3.5 -27.999 -10.5
s-11 -16.167 -11 -27.5v-76c0 -15.333 -4.83301 -27.333 -14.5 -36s-22.5 -13 -38.5 -13c-15.333 0 -28.166 4.5 -38.499 13.5s-15.5 22.167 -15.5 39.5v86c0 34 11.833 63 35.5 87s56.834 36 99.501 36h17c39.333 0 71.666 -13 96.999 -39s38 -58.667 38 -98
c0 -48 -9 -94 -27 -138s-37.833 -79.667 -59.5 -107s-42.167 -57.833 -61.5 -91.5s-30 -64.834 -32 -93.501h132c15.333 0 27.166 -5 35.499 -15s12.5 -23 12.5 -39s-4.16699 -28.833 -12.5 -38.5s-20.166 -14.5 -35.499 -14.5h-195z" />
    <glyph glyph-name="three" unicode="3" horiz-adv-x="331" 
d="M155 -4c-42.667 0 -75.834 11.998 -99.501 35.998s-35.5 53 -35.5 87v75c0 17.333 5.16699 30.5 15.5 39.5s23.166 13.5 38.499 13.5c16 0 28.833 -4.33301 38.5 -13s14.5 -20.667 14.5 -36v-57c0 -11.333 3.66699 -20.5 11 -27.5s16.666 -10.5 27.999 -10.5
c25.333 0 38 13 38 39v120c0 8.66699 -3.5 16.5 -10.5 23.5s-16.167 10.5 -27.5 10.5h-20c-12 0 -21.333 4 -28 12s-10 18 -10 30c0 12.667 3.33301 23 10 31s16 12 28 12h20c11.333 0 20.5 3.5 27.5 10.5s10.5 14.833 10.5 23.5v121c0 26 -12.667 39 -38 39
c-11.333 0 -20.666 -3.5 -27.999 -10.5s-11 -16.167 -11 -27.5v-58c0 -15.333 -4.83301 -27.333 -14.5 -36s-22.5 -13 -38.5 -13c-15.333 0 -28.166 4.5 -38.499 13.5s-15.5 22.167 -15.5 39.5v68c0 34 11.833 63 35.5 87s56.834 36 99.501 36h14
c48 0 83.667 -11.667 107 -35s35 -55.666 35 -96.999v-96c0 -46 -15.333 -80 -46 -102c30.667 -22.667 46 -57 46 -103v-113c0 -41.333 -11.667 -73.666 -35 -96.999s-59 -35 -107 -35h-14z" />
    <glyph glyph-name="four" unicode="4" horiz-adv-x="387" 
d="M261 -4c-16 0 -29 4.16797 -39 12.501s-15 20.166 -15 35.499v137l-145 -1c-20 0 -35.833 9 -47.5 27s-13.167 36.333 -4.5 55l186 381c10.667 20.667 29 31 55 31c16.667 0 31.334 -4.33301 44.001 -13s19 -20.334 19 -35.001v-339h20
c15.333 0 27.166 -4.83301 35.499 -14.5s12.5 -22.5 12.5 -38.5s-4.33301 -28.833 -13 -38.5s-20.667 -14.5 -36 -14.5h-19v-137c0 -15.333 -4.83301 -27.166 -14.5 -35.499s-22.5 -12.5 -38.5 -12.5zM105 287.001h102v221z" />
    <glyph glyph-name="five" unicode="5" horiz-adv-x="335" 
d="M152 -4c-41.333 0 -73.668 11.5 -97.001 34.5s-35 58.5 -35 106.5v33c0 15.333 4.83301 27.166 14.5 35.499s22.5 12.5 38.5 12.5s29 -4.16699 39 -12.5s15 -20.166 15 -35.499v-38c0 -25.333 13 -38 39 -38s39 12.667 39 38v229c0 11.333 -3.66699 20.5 -11 27.5
s-16.666 10.5 -27.999 10.5c-22.667 0 -34 -12.667 -34 -38v-1c0 -15.333 -5 -27.166 -15 -35.499s-23 -12.5 -39 -12.5s-28.833 4.16699 -38.5 12.5s-14.5 20.166 -14.5 35.499v262c0 32 14.667 48 44 48h198c15.333 0 27.166 -4.83301 35.499 -14.5s12.5 -22.5 12.5 -38.5
s-4.16699 -29 -12.5 -39s-20.166 -15 -35.499 -15h-135v-94c13.333 19.333 37.666 29 72.999 29c31.333 0 57 -11.667 77 -35s30 -58.333 30 -105v-221c0 -48 -11.667 -83.5 -35 -106.5s-55.666 -34.5 -96.999 -34.5h-28z" />
    <glyph glyph-name="six" unicode="6" 
d="M152 -4c-41.333 0 -73.6689 11.501 -97.002 34.501s-35 58.5 -35 106.5v375c0 52.667 10.167 92.667 30.5 120s54.166 41 101.499 41h28c47.333 0 81 -13.833 101 -41.5s30.333 -67.834 31 -120.501v-20c-1.33301 -32 -19 -48 -53 -48c-16 0 -29 4.16699 -39 12.5
s-15 20.166 -15 35.499v45c0 11.333 -3.66699 20.5 -11 27.5s-16.666 10.5 -27.999 10.5s-20.666 -3.5 -27.999 -10.5s-11 -16.167 -11 -27.5v-151c15.333 22 41.333 33 78 33c31.333 0 57 -11.667 77 -35s30 -58.666 30 -105.999v-140c0 -48 -11.667 -83.5 -35 -106.5
s-55.666 -34.5 -96.999 -34.5h-28zM126.997 132.001c0 -25.333 12.998 -38 38.998 -38s39 12.667 39 38v149c0 11.333 -3.66699 20.5 -11 27.5s-16.666 10.5 -27.999 10.5s-20.666 -3.5 -27.999 -10.5s-11 -16.167 -11 -27.5v-149z" />
    <glyph glyph-name="seven" unicode="7" horiz-adv-x="293" 
d="M102 0c-18.667 0 -31.999 5.16699 -39.999 15.5s-10.333 22.833 -7 37.5l106 514h-107c-15.333 0 -27.333 4.66699 -36 14s-13 21.666 -13 36.999c0 16 4.33301 28.667 13 38s20.667 14 36 14h174c15.333 0 27.5 -3.66699 36.5 -11s13.5 -17.666 13.5 -30.999
c0 -16 -2 -33.333 -6 -52l-108 -528c-6.66699 -32 -23.334 -48 -50.001 -48h-12z" />
    <glyph glyph-name="eight" unicode="8" 
d="M152 -4c-41.333 0 -73.668 11.5 -97.001 34.5s-35 58.5 -35 106.5v70c0 62.667 18.667 108 56 136c-32 24 -48 59.333 -48 106v72c0 50 9.66699 88 29 114s51.333 39 96 39h26c44.667 0 76.667 -13.167 96 -39.5s29 -64.5 29 -114.5v-71c0 -46.667 -16 -82 -48 -106
c37.333 -28 56 -73.667 56 -137v-69c0 -48 -11.667 -83.5 -35 -106.5s-55.666 -34.5 -96.999 -34.5h-28zM165.998 94c26 0 38.998 12.667 38.998 38v135c0 11.333 -3.66699 20.5 -11 27.5s-16.666 10.5 -27.999 10.5s-20.666 -3.5 -27.999 -10.5s-11 -16.167 -11 -27.5v-135
c0 -25.333 13 -38 39 -38zM165.996 379c24.667 0 37 12 37 36v129c0 10.667 -3.5 19.334 -10.5 26.001s-15.833 10 -26.5 10s-19.5 -3.33301 -26.5 -10s-10.5 -15.334 -10.5 -26.001v-129c0 -24 12.333 -36 37 -36z" />
    <glyph glyph-name="nine" unicode="9" 
d="M152 -4c-47.333 0 -81.1641 13.833 -101.497 41.5s-30.5 67.834 -30.5 120.501v20c0 15.333 4.83301 27.166 14.5 35.499s22.5 12.5 38.5 12.5s29 -4.16699 39 -12.5s15 -20.166 15 -35.499v-45c0 -11.333 3.66699 -20.5 11 -27.5s16.666 -10.5 27.999 -10.5
s20.666 3.5 27.999 10.5s11 16.167 11 27.5v146c-15.333 -22 -41.333 -33 -78 -33c-31.333 0 -57 11.667 -77 35s-30 58.666 -30 105.999v145c0 48 11.667 83.5 35 106.5s55.666 34.5 96.999 34.5h28c41.333 0 73.666 -11.5 96.999 -34.5s35 -58.5 35 -106.5v-375
c0 -52.667 -10.167 -92.667 -30.5 -120s-54.166 -41 -101.499 -41h-28zM127.002 383c0 -11.333 3.66895 -20.5 11.002 -27.5s16.666 -10.5 27.999 -10.5s20.666 3.5 27.999 10.5s11 16.167 11 27.5v154c0 25.333 -13 38 -39 38s-39 -12.667 -39 -38v-154z" />
    <glyph glyph-name="colon" unicode=":" horiz-adv-x="143" 
d="M72 377c-15.333 0 -27.832 3.83203 -37.499 11.499s-14.5 18.834 -14.5 33.501v37c0 14.667 4.83301 26 14.5 34s22.167 12 37.5 12s27.666 -4 36.999 -12s14 -19.333 14 -34v-37c0 -30 -17 -45 -51 -45zM72.001 -5.00098c-15.333 0 -27.832 3.83203 -37.499 11.499
s-14.5 18.834 -14.5 33.501v37c0 14.667 4.83301 26 14.5 34s22.167 12 37.5 12s27.666 -4 36.999 -12s14 -19.333 14 -34v-37c0 -30 -17 -45 -51 -45z" />
    <glyph glyph-name="semicolon" unicode=";" horiz-adv-x="157" 
d="M78 377c-15.333 0 -27.832 3.83203 -37.499 11.499s-14.5 18.834 -14.5 33.501v37c0 14.667 4.83301 26 14.5 34s22.167 12 37.5 12s27.666 -4 36.999 -12s14 -19.333 14 -34v-37c0 -30 -17 -45 -51 -45zM40.001 -68.001c-23.333 0 -33.001 12.667 -29.001 38l16 102
c4 26.667 24.667 40 62 40c18.667 0 31.834 -3.5 39.501 -10.5s8.83398 -16.833 3.50098 -29.5l-39 -102c-5.33301 -13.333 -11.833 -23 -19.5 -29s-18.834 -9 -33.501 -9z" />
    <glyph glyph-name="less" unicode="&#x3c;" horiz-adv-x="327" 
d="M223 218c20.667 -20 19.667 -40.666 -3 -61.999c-18.667 -16.667 -39 -15 -61 5l-59 54c-16 15.333 -24 34.666 -24 57.999c0 24 8 43 24 57l59 54c22 20 42.333 21.667 61 5c23.333 -22 24.333 -42.667 3 -62l-59 -54z" />
    <glyph glyph-name="equal" unicode="=" horiz-adv-x="438" 
d="M88 277c-15.333 0 -27.166 4.83301 -35.499 14.5s-12.5 22.5 -12.5 38.5s4.16699 29 12.5 39s20.166 15 35.499 15h262c15.333 0 27.166 -5 35.499 -15s12.5 -23 12.5 -39s-4.16699 -28.833 -12.5 -38.5s-20.166 -14.5 -35.499 -14.5h-262zM88 117
c-15.333 0 -27.166 4.83301 -35.499 14.5s-12.5 22.5 -12.5 38.5s4.16699 29 12.5 39s20.166 15 35.499 15h262c15.333 0 27.166 -5 35.499 -15s12.5 -23 12.5 -39s-4.16699 -28.833 -12.5 -38.5s-20.166 -14.5 -35.499 -14.5h-262z" />
    <glyph glyph-name="greater" unicode="&#x3e;" horiz-adv-x="327" 
d="M97 218c-20.667 -20 -19.667 -40.666 3 -61.999c18.667 -16.667 39 -15 61 5l59 54c16 15.333 24 34.666 24 57.999c0 24 -8 43 -24 57l-59 54c-22 20 -42.333 21.667 -61 5c-23.333 -22 -24.333 -42.667 -3 -62l59 -54z" />
    <glyph glyph-name="question" unicode="?" horiz-adv-x="327" 
d="M144 167c-15.333 0 -28.167 4.5 -38.5 13.5s-15.5 22.167 -15.5 39.5c0 34 4 62.667 12 86s17.5 41.5 28.5 54.5s22.167 25.333 33.5 37s21 26.667 29 45s12 40.833 12 67.5v27c0 9.33301 -3.66699 18 -11 26s-16.666 12 -27.999 12s-20.666 -3.5 -27.999 -10.5
s-11 -16.167 -11 -27.5v-76c0 -15.333 -4.83301 -27.333 -14.5 -36s-22.5 -13 -38.5 -13c-15.333 0 -28.166 4.5 -38.499 13.5s-15.5 22.167 -15.5 39.5v86c0 34 11.833 63 35.5 87s56.834 36 99.501 36h17c39.333 0 71.666 -13 96.999 -39s38 -58.667 38 -98
c0 -40 -3.83301 -73.5 -11.5 -100.5s-16.834 -47.167 -27.501 -60.5s-21.334 -26 -32.001 -38s-19.834 -27.833 -27.501 -47.5s-11.5 -44.5 -11.5 -74.5c0 -15.333 -4.83301 -27.333 -14.5 -36s-22.5 -13 -38.5 -13zM143.999 -5c-16 0 -28.999 3.83301 -38.999 11.5
s-15 18.834 -15 33.501v37c0 14.667 5.16699 26 15.5 34s23.166 12 38.499 12s28 -4 38 -12s15 -19.333 15 -34v-37c0 -14.667 -4.83301 -25.834 -14.5 -33.501s-22.5 -11.5 -38.5 -11.5z" />
    <glyph glyph-name="at" unicode="@" horiz-adv-x="600" 
d="M277 -28c-83.333 0 -147.002 23.834 -191.002 71.501s-66 106.5 -66 176.5v227c0 38.667 8.83301 76.334 26.5 113.001s46.667 68.334 87 95.001s88.166 40 143.499 40h46c42 0 80 -7.83301 114 -23.5s61 -35.834 81 -60.501s35.333 -51.167 46 -79.5
s16 -56.833 16 -85.5v-204c0 -38 -13 -66.833 -39 -86.5s-57.333 -29.5 -94 -29.5c-37.333 0 -65.5 7.16699 -84.5 21.5s-29.833 38.5 -32.5 72.5v-3c0.666992 -17.333 -5.66602 -35.666 -18.999 -54.999s-30.666 -29 -51.999 -29c-22.667 0 -40.5 6.16699 -53.5 18.5
s-19.5 28.166 -19.5 47.499v47c0 24 7.5 45 22.5 63s31.333 31.333 49 40s34 19.834 49 33.501s22.5 29.167 22.5 46.5v2c0 7.33301 -2.83301 14.166 -8.5 20.499s-13.167 9.5 -22.5 9.5s-16.833 -2.66699 -22.5 -8s-8.5 -12.666 -8.5 -21.999v-26
c0 -26 -13.667 -39 -41 -39s-41 14 -41 42v34c0 28 9.5 51.5 28.5 70.5s45.833 28.5 80.5 28.5h13c30.667 0 56.5 -9.83301 77.5 -29.5s31.5 -42.834 31.5 -69.501v-203c0 -17.333 10.333 -26 31 -26c21.333 0 32 8.66699 32 26v226c0 34.667 -17 65.834 -51 93.501
s-73.667 41.5 -119 41.5h-17c-45.333 0 -85 -13.833 -119 -41.5s-51 -58.834 -51 -93.501v-264c0 -38 16 -69.833 48 -95.5s69 -38.5 111 -38.5c17.333 0 32.666 1 45.999 3s23 3.83301 29 5.5s13.833 4.66699 23.5 9s15.834 6.83301 18.501 7.5
c30 11.333 52 1.66602 66 -29.001c13.333 -30.667 3.66602 -53.334 -29.001 -68.001c-23.333 -10 -45.166 -16.333 -65.499 -19s-51.166 -4 -92.499 -4zM270.998 240.001c0 -16.667 9 -24.999 27 -24.999c20.667 0 31 15.667 31 47v63
c-20 -14.667 -34.667 -27.334 -44 -38.001s-14 -22 -14 -34v-13z" />
    <glyph glyph-name="A" unicode="A" horiz-adv-x="395" 
d="M62 -2c-32.667 5.33301 -46.3291 24 -40.9961 56l89 563c5.33301 38 34.666 57 87.999 57c52.667 0 81.667 -19 87 -57l89 -563c5.33301 -32 -8.33398 -50.667 -41.001 -56c-15.333 -2.66699 -28.333 -0.666992 -39 6s-17.334 17.667 -20.001 33l-26 174h-101l-26 -174
c-2.66699 -15.333 -9.33398 -26.333 -20.001 -33s-23.667 -8.66699 -39 -6zM156.005 271h83l-41 274z" />
    <glyph glyph-name="B" unicode="B" horiz-adv-x="330" 
d="M64 0c-29.333 0 -44 15.998 -44 47.998v574c0 32 14.667 48 44 48h104c48 0 83.667 -11.667 107 -35s35 -55.666 35 -96.999v-92c0 -46 -15.333 -80 -46 -102c30.667 -22.667 46 -57 46 -103v-109c0 -41.333 -11.667 -73.666 -35 -96.999s-59 -35 -107 -35h-104z
M127 96.998h38c25.333 0 38 13 38 39v126c0 8.66699 -3.5 16.5 -10.5 23.5s-16.167 10.5 -27.5 10.5h-38v-199zM127 380.998h38c11.333 0 20.5 3.5 27.5 10.5s10.5 14.833 10.5 23.5v119c0 26 -12.667 39 -38 39h-38v-192z" />
    <glyph glyph-name="C" unicode="C" 
d="M152 -4c-41.333 0 -73.668 11.501 -97.001 34.501s-35 58.5 -35 106.5v376c0 52.667 10.167 92.667 30.5 120s54.166 41 101.499 41h28c47.333 0 81.166 -13.833 101.499 -41.5s30.5 -67.834 30.5 -120.501v-71c0 -15.333 -4.83301 -27.166 -14.5 -35.499
s-22.5 -12.5 -38.5 -12.5s-29 4.16699 -39 12.5s-15 20.166 -15 35.499v96c0 11.333 -3.66699 20.5 -11 27.5s-16.666 10.5 -27.999 10.5s-20.666 -3.5 -27.999 -10.5s-11 -16.167 -11 -27.5v-405c0 -25.333 13 -38 39 -38s39 12.667 39 38v91c0 15.333 5 27.166 15 35.499
s23 12.5 39 12.5s28.833 -4.16699 38.5 -12.5s14.5 -20.166 14.5 -35.499v-86c0 -48 -11.667 -83.5 -35 -106.5s-55.666 -34.5 -96.999 -34.5h-28z" />
    <glyph glyph-name="D" unicode="D" horiz-adv-x="320" 
d="M64 0c-29.333 0 -44 15.998 -44 47.998v574c0 32 14.667 48 44 48h94c48 0 83.667 -11.667 107 -35s35 -55.666 35 -96.999v-406c0 -41.333 -11.667 -73.666 -35 -96.999s-59 -35 -107 -35h-94zM127 96.998h28c25.333 0 38 13 38 39v398c0 26 -12.667 39 -38 39h-28v-476
z" />
    <glyph glyph-name="E" unicode="E" horiz-adv-x="286" 
d="M64 0c-29.333 0 -44 16 -44 48v574c0 32 14.667 48 44 48h159c15.333 0 27.166 -5 35.499 -15s12.5 -23 12.5 -39s-4.16699 -28.833 -12.5 -38.5s-20.166 -14.5 -35.499 -14.5h-96v-182h76c15.333 0 26.333 -3.5 33 -10.5s10 -18.167 10 -33.5s-3.33301 -26.333 -10 -33
s-17.667 -10 -33 -10h-76v-187h101c15.333 0 27.166 -5 35.499 -15s12.5 -23 12.5 -39s-4.16699 -28.833 -12.5 -38.5s-20.166 -14.5 -35.499 -14.5h-164z" />
    <glyph glyph-name="F" unicode="F" horiz-adv-x="291" 
d="M74 -4c-16 0 -29 4.16699 -39 12.5s-15 20.166 -15 35.499v578c0 32 14.667 48 44 48h159c15.333 0 27.166 -5 35.499 -15s12.5 -23 12.5 -39s-4.16699 -28.833 -12.5 -38.5s-20.166 -14.5 -35.499 -14.5h-96v-182h76c15.333 0 26.333 -3.5 33 -10.5s10 -18.167 10 -33.5
s-3.33301 -26.333 -10 -33s-17.667 -10 -33 -10h-76v-250c0 -15.333 -4.83301 -27.166 -14.5 -35.499s-22.5 -12.5 -38.5 -12.5z" />
    <glyph glyph-name="G" unicode="G" 
d="M152 -4c-41.333 0 -73.668 11.501 -97.001 34.501s-35 58.5 -35 106.5v376c0 52.667 10.167 92.667 30.5 120s54.166 41 101.499 41h28c47.333 0 81.166 -13.833 101.499 -41.5s30.5 -67.834 30.5 -120.501v-71c0 -15.333 -4.83301 -27.166 -14.5 -35.499
s-22.5 -12.5 -38.5 -12.5s-29 4.16699 -39 12.5s-15 20.166 -15 35.499v96c0 11.333 -3.66699 20.5 -11 27.5s-16.666 10.5 -27.999 10.5s-20.666 -3.5 -27.999 -10.5s-11 -16.167 -11 -27.5v-405c0 -25.333 13 -38 39 -38s39 12.667 39 38v129h-19c-5.33301 0 -10 2 -14 6
s-6 8.66699 -6 14v19c0 14 6.66699 21 20 21h82c29.333 0 44 -16 44 -48v-136c0 -48 -11.667 -83.5 -35 -106.5s-55.666 -34.5 -96.999 -34.5h-28z" />
    <glyph glyph-name="H" unicode="H" 
d="M259 -4c-16 0 -29 4.16699 -39 12.5s-15 20.166 -15 35.499v247h-78v-247c0 -15.333 -4.83301 -27.166 -14.5 -35.499s-22.5 -12.5 -38.5 -12.5s-29 4.16699 -39 12.5s-15 20.166 -15 35.499v582c0 15.333 5 27.166 15 35.499s23 12.5 39 12.5
s28.833 -4.16699 38.5 -12.5s14.5 -20.166 14.5 -35.499v-275h78v275c0 15.333 5 27.166 15 35.499s23 12.5 39 12.5s28.833 -4.16699 38.5 -12.5s14.5 -20.166 14.5 -35.499v-582c0 -15.333 -4.83301 -27.166 -14.5 -35.499s-22.5 -12.5 -38.5 -12.5z" />
    <glyph glyph-name="I" unicode="I" horiz-adv-x="167" 
d="M84 -4c-16 0 -29 4.16699 -39 12.5s-15 20.166 -15 35.499v582c0 15.333 5 27.166 15 35.499s23 12.5 39 12.5s28.833 -4.16699 38.5 -12.5s14.5 -20.166 14.5 -35.499v-582c0 -15.333 -4.83301 -27.166 -14.5 -35.499s-22.5 -12.5 -38.5 -12.5z" />
    <glyph glyph-name="J" unicode="J" 
d="M152 -4c-41.333 0 -73.668 11.5 -97.001 34.5s-35 58.5 -35 106.5v86c0 15.333 4.83301 27.166 14.5 35.499s22.5 12.5 38.5 12.5s29 -4.16699 39 -12.5s15 -20.166 15 -35.499v-91c0 -25.333 13 -38 39 -38s39 12.667 39 38v494c0 15.333 5 27.166 15 35.499
s23 12.5 39 12.5s28.833 -4.16699 38.5 -12.5s14.5 -20.166 14.5 -35.499v-489c0 -48 -11.667 -83.5 -35 -106.5s-55.666 -34.5 -96.999 -34.5h-28z" />
    <glyph glyph-name="K" unicode="K" horiz-adv-x="391" 
d="M343 7c-13.333 -8.66699 -26.668 -11.8301 -40.001 -9.49707s-23.666 10.166 -30.999 23.499l-145 259v-236c0 -15.333 -4.83301 -27.166 -14.5 -35.499s-22.5 -12.5 -38.5 -12.5s-29 4.16699 -39 12.5s-15 20.166 -15 35.499v582c0 15.333 5 27.166 15 35.499
s23 12.5 39 12.5s28.833 -4.16699 38.5 -12.5s14.5 -20.166 14.5 -35.499v-251l130 273c6 13.333 16 21.166 30 23.499s27.667 -0.833984 41 -9.50098c13.333 -8 22 -17.833 26 -29.5s2.33301 -24.5 -5 -38.5l-139 -255l154 -264c7.33301 -14 9 -26.833 5 -38.5
s-12.667 -21.5 -26 -29.5z" />
    <glyph glyph-name="L" unicode="L" horiz-adv-x="296" 
d="M64 0c-29.333 0 -44 16 -44 48v578c0 15.333 5 27.166 15 35.499s23 12.5 39 12.5s28.833 -4.16699 38.5 -12.5s14.5 -20.166 14.5 -35.499v-519h101c15.333 0 27.166 -5 35.499 -15s12.5 -23 12.5 -39s-4.16699 -28.833 -12.5 -38.5s-20.166 -14.5 -35.499 -14.5h-164z
" />
    <glyph glyph-name="M" unicode="M" horiz-adv-x="413" 
d="M74 -4c-16 0 -29.002 4.16699 -39.002 12.5s-15 20.166 -15 35.499v582c0 32 16.333 48 49 48c27.333 0 44 -11.333 50 -34l88 -308l87 308c6 22.667 22.667 34 50 34c32.667 0 49 -16 49 -48v-582c0 -15.333 -5 -27.166 -15 -35.499s-23 -12.5 -39 -12.5
s-28.833 4.16699 -38.5 12.5s-14.5 20.166 -14.5 35.499v360l-54 -194c-3.33301 -12.667 -11.666 -19 -24.999 -19s-21.666 6.33301 -24.999 19l-55 195v-361c0 -15.333 -4.83301 -27.166 -14.5 -35.499s-22.5 -12.5 -38.5 -12.5z" />
    <glyph glyph-name="N" unicode="N" horiz-adv-x="362" 
d="M74 -4c-16 0 -29 4.16699 -39 12.5s-15 20.166 -15 35.499v582c0 15.333 5 27.166 15 35.499s23 12.5 39 12.5c29.333 0 47 -11.333 53 -34l98 -357v343c0 15.333 5 27.166 15 35.499s23 12.5 39 12.5s28.833 -4.16699 38.5 -12.5s14.5 -20.166 14.5 -35.499v-582
c0 -15.333 -4.83301 -27.166 -14.5 -35.499s-22.5 -12.5 -38.5 -12.5c-26 0 -42.333 13.333 -49 40l-103 369v-361c0 -15.333 -4.83301 -27.166 -14.5 -35.499s-22.5 -12.5 -38.5 -12.5z" />
    <glyph glyph-name="O" unicode="O" horiz-adv-x="342" 
d="M157 -4c-41.333 0 -73.666 11.501 -96.999 34.501s-35 58.5 -35 106.5v376c0 52.667 10.167 92.667 30.5 120s54.166 41 101.499 41h28c47.333 0 81.166 -13.833 101.499 -41.5s30.5 -67.834 30.5 -120.501v-375c0 -48 -11.667 -83.5 -35 -106.5
s-55.666 -34.5 -96.999 -34.5h-28zM171 94.001c26 0 38.998 12.667 38.998 38v405c0 11.333 -3.66699 20.5 -11 27.5s-16.666 10.5 -27.999 10.5s-20.666 -3.5 -27.999 -10.5s-11 -16.167 -11 -27.5v-405c0 -25.333 13 -38 39 -38z" />
    <glyph glyph-name="P" unicode="P" horiz-adv-x="330" 
d="M74 -4c-16 0 -29 4.16504 -39 12.498s-15 20.166 -15 35.499v578c0 32 14.667 48 44 48h104c48 0 83.667 -11.667 107 -35s35 -55.666 35 -96.999v-146c0 -41.333 -11.667 -73.666 -35 -96.999s-59 -35 -107 -35h-41v-216c0 -15.333 -4.83301 -27.166 -14.5 -35.499
s-22.5 -12.5 -38.5 -12.5zM127 356.998h38c25.333 0 38 13 38 39v138c0 26 -12.667 39 -38 39h-38v-216z" />
    <glyph glyph-name="Q" unicode="Q" 
d="M165 -170c-16 0 -28.8311 4.16797 -38.498 12.501s-14.5 20.166 -14.5 35.499v122c-61.333 14 -92 59.667 -92 137v376c0 52.667 10.167 92.667 30.5 120s54.166 41 101.499 41h28c47.333 0 81.166 -13.833 101.499 -41.5s30.5 -67.834 30.5 -120.501v-375
c0 -78 -31 -123.667 -93 -137v-122c0 -15.333 -5 -27.166 -15 -35.499s-23 -12.5 -39 -12.5zM166.002 94.001c26 0 38.998 12.667 38.998 38v405c0 11.333 -3.66699 20.5 -11 27.5s-16.666 10.5 -27.999 10.5s-20.666 -3.5 -27.999 -10.5s-11 -16.167 -11 -27.5v-405
c0 -25.333 13 -38 39 -38z" />
    <glyph glyph-name="R" unicode="R" horiz-adv-x="334" 
d="M271 -2c-34.667 -6.66699 -55.667 5.33301 -63 36l-55 255h-26v-245c0 -15.333 -4.83301 -27.166 -14.5 -35.499s-22.5 -12.5 -38.5 -12.5s-29 4.16699 -39 12.5s-15 20.166 -15 35.499v578c0 32 14.667 48 44 48h104c48 0 83.667 -11.667 107 -35s35 -55.666 35 -96.999
v-119c0 -48 -17.333 -83.667 -52 -107l55 -255c2.66699 -14.667 0.166992 -27.334 -7.5 -38.001s-19.167 -17.667 -34.5 -21zM127 374h38c11.333 0 20.5 3.5 27.5 10.5s10.5 14.833 10.5 23.5v126c0 26 -12.667 39 -38 39h-38v-199z" />
    <glyph glyph-name="S" unicode="S" horiz-adv-x="327" 
d="M152 -4c-41.333 0 -73.6689 11.499 -97.002 34.499s-35 58.5 -35 106.5v61c0 35.333 16.667 53 50 53c34.667 0 52 -15.667 52 -47v-72c0 -25.333 13 -38 39 -38s39 12.667 39 38v14c0 32.667 -6.16699 61.834 -18.5 87.501s-27.333 47.5 -45 65.5
s-35.334 36.667 -53.001 56s-32.667 44.5 -45 75.5s-18.5 66.5 -18.5 106.5c0 39.333 12.667 72 38 98s57.666 39 96.999 39h17c42.667 0 75.834 -12 99.501 -36s35.5 -53 35.5 -87v-86c0 -17.333 -5.16699 -30.5 -15.5 -39.5s-23.166 -13.5 -38.499 -13.5
c-16 0 -28.833 4.33301 -38.5 13s-14.5 20.667 -14.5 36v76c0 11.333 -3.66699 20.5 -11 27.5s-16.666 10.5 -27.999 10.5s-20.666 -4 -27.999 -12s-11 -16.667 -11 -26v-27c0 -26.667 6.33301 -51.5 19 -74.5s28 -43.667 46 -62s36.167 -37.5 54.5 -57.5
s33.833 -44.5 46.5 -73.5s19 -61.167 19 -96.5c0 -100 -44 -150 -132 -150h-23z" />
    <glyph glyph-name="T" unicode="T" horiz-adv-x="322" 
d="M162 -4c-16 0 -29 4.16699 -39 12.5s-15 20.166 -15 35.499v529h-50c-32 0 -48 16 -48 48c0 32.667 16 49 48 49h206c32 0 48 -16.333 48 -49c0 -32 -16 -48 -48 -48h-49v-529c0 -15.333 -4.83301 -27.166 -14.5 -35.499s-22.5 -12.5 -38.5 -12.5z" />
    <glyph glyph-name="U" unicode="U" 
d="M152 -4c-41.333 0 -73.668 11.5 -97.001 34.5s-35 58.5 -35 106.5v490c0 15.333 5 27.166 15 35.499s23 12.5 39 12.5s28.833 -4.16699 38.5 -12.5s14.5 -20.166 14.5 -35.499v-495c0 -25.333 13 -38 39 -38s39 12.667 39 38v494c0 15.333 5 27.166 15 35.499
s23 12.5 39 12.5s28.833 -4.16699 38.5 -12.5s14.5 -20.166 14.5 -35.499v-489c0 -48 -11.667 -83.5 -35 -106.5s-55.666 -34.5 -96.999 -34.5h-28z" />
    <glyph glyph-name="V" unicode="V" horiz-adv-x="395" 
d="M198 -1c-56.667 0 -87.667 19 -93 57l-84 561c-2.66699 15.333 0.333008 27.833 9 37.5s21 15.834 37 18.501c15.333 2.66699 28.5 0.666992 39.5 -6s17.5 -17.667 19.5 -33l72 -507l71 507c2 15.333 8.5 26.333 19.5 33s24.167 8.66699 39.5 6
c16 -2.66699 28.333 -8.83398 37 -18.501s11.667 -22.167 9 -37.5l-84 -561c-5.33301 -38 -36 -57 -92 -57z" />
    <glyph glyph-name="W" unicode="W" horiz-adv-x="550" 
d="M168 -6c-44.667 0 -69.001 15.001 -73.001 45.001l-74 577c-2 15.333 1.16699 28 9.5 38s20.166 16.333 35.499 19c16 2.66699 30 0.666992 42 -6s19 -17.334 21 -32.001l53 -443l37 437c1.33301 13.333 6.33301 24 15 32s19.334 12 32.001 12h15
c12.667 0 23.334 -4 32.001 -12s13.667 -18.667 15 -32l38 -446l55 452c2 14.667 9 25.334 21 32.001s26 8.66699 42 6c15.333 -2.66699 27.166 -9 35.499 -19s11.5 -22.667 9.5 -38l-74 -577c-2 -14.667 -9.83301 -25.834 -23.5 -33.501s-30.5 -11.5 -50.5 -11.5
c-43.333 0 -66.666 16.333 -69.999 49l-37 386l-35 -386c-1.33301 -15.333 -8.5 -27.333 -21.5 -36s-29.5 -13 -49.5 -13z" />
    <glyph glyph-name="X" unicode="X" horiz-adv-x="393" 
d="M339 1c-14.667 -6 -28.3311 -7.00098 -40.998 -3.00098s-21.667 13 -27 27l-76 186l-72 -186c-5.33301 -14 -14.5 -23 -27.5 -27s-26.5 -3 -40.5 3c-14.667 5.33301 -25 13.833 -31 25.5s-6 24.5 0 38.5l117 277l-107 262c-6 13.333 -5.83301 25.833 0.5 37.5
s16.833 20.5 31.5 26.5c14 6 27.167 6.83301 39.5 2.5s21.5 -13.166 27.5 -26.499l71 -174l63 174c5.33301 13.333 14.333 22.333 27 27s25.667 4 39 -2c15.333 -6 26.166 -14.833 32.499 -26.5s6.5 -24.5 0.5 -38.5l-107 -270l110 -268c6 -14 6.16699 -27 0.5 -39
s-15.834 -20.667 -30.501 -26z" />
    <glyph glyph-name="Y" unicode="Y" horiz-adv-x="407" 
d="M205 -4c-16 0 -28.999 4.16699 -38.999 12.5s-15 20.166 -15 35.499v195l-132 371c-5.33301 14.667 -4.16602 28.167 3.50098 40.5s19.5 19.833 35.5 22.5c33.333 5.33301 54.666 -7.66699 63.999 -39l82 -281l81 281c9.33301 31.333 30.666 44.333 63.999 39
c15.333 -2.66699 26.833 -10.167 34.5 -22.5s9.16699 -25.833 4.5 -40.5l-130 -371v-195c0 -15.333 -4.83301 -27.166 -14.5 -35.499s-22.5 -12.5 -38.5 -12.5z" />
    <glyph glyph-name="Z" unicode="Z" horiz-adv-x="320" 
d="M68 0c-12.667 0 -23.5 5.00293 -32.5 15.0029s-13.5 21 -13.5 33c0 17.333 2.66699 33.666 8 48.999l161 470h-122c-15.333 0 -27.333 4.66699 -36 14s-13 21.666 -13 36.999c0 16 4.33301 28.667 13 38s20.667 14 36 14h182c32.667 0 49 -15.667 49 -47
c0 -12.667 -3.33301 -28.334 -10 -47.001l-160 -473h121c15.333 0 27.166 -4.66699 35.499 -14s12.5 -22 12.5 -38s-4.16699 -28.5 -12.5 -37.5s-20.166 -13.5 -35.499 -13.5h-183z" />
    <glyph glyph-name="bracketleft" unicode="[" horiz-adv-x="236" 
d="M64 -140c-29.333 0 -44 16 -44 48v744c0 32 14.667 48 44 48h104c15.333 0 27.166 -4.83301 35.499 -14.5s12.5 -22.5 12.5 -38.5s-4.16699 -29 -12.5 -39s-20.166 -15 -35.499 -15h-41v-626h41c15.333 0 27.166 -5 35.499 -15s12.5 -23 12.5 -39
s-4.16699 -28.833 -12.5 -38.5s-20.166 -14.5 -35.499 -14.5h-104z" />
    <glyph glyph-name="backslash" unicode="\" horiz-adv-x="302" 
d="M240 0c-15.333 -4 -28.667 -3.33105 -40 2.00195s-19 15.333 -23 30l-155 578c-8 30.667 5 50.667 39 60c15.333 4 28.833 3.16699 40.5 -2.5s19.5 -15.834 23.5 -30.501l155 -577c4 -14.667 2.16699 -27.334 -5.5 -38.001s-19.167 -18 -34.5 -22z" />
    <glyph glyph-name="bracketright" unicode="]" horiz-adv-x="236" 
d="M172 -140h-104c-15.333 0 -27.166 4.83301 -35.499 14.5s-12.5 22.5 -12.5 38.5s4.16699 29 12.5 39s20.166 15 35.499 15h41v626h-41c-15.333 0 -27.166 5 -35.499 15s-12.5 23 -12.5 39s4.16699 28.833 12.5 38.5s20.166 14.5 35.499 14.5h104c29.333 0 44 -16 44 -48
v-744c0 -32 -14.667 -48 -44 -48z" />
    <glyph glyph-name="asciicircum" unicode="^" horiz-adv-x="327" 
d="M109 541c-20 -20.667 -40.666 -19.667 -61.999 3c-16.667 18.667 -15 39 5 61l54 59c15.333 16 34.666 24 57.999 24c24 0 43 -8 57 -24l54 -59c20 -22 21.667 -42.333 5 -61c-22 -23.333 -42.667 -24.333 -62 -3l-54 59z" />
    <glyph glyph-name="underscore" unicode="_" horiz-adv-x="520" 
d="M66 -95c-14 0 -25.167 4.66699 -33.5 14s-12.5 21.666 -12.5 36.999s4.16699 27.833 12.5 37.5s19.5 14.5 33.5 14.5h370c14 0 25.167 -4.83301 33.5 -14.5s12.5 -22.167 12.5 -37.5s-4.16699 -27.666 -12.5 -36.999s-19.5 -14 -33.5 -14h-370z" />
    <glyph glyph-name="grave" unicode="`" horiz-adv-x="327" 
d="M100 598c-24 20 -28 41.334 -12 64.001c8.66699 12 19.167 18.5 31.5 19.5s23.833 -3.16699 34.5 -12.5l68 -57c23.333 -20 27 -41.333 11 -64c-18 -24.667 -39 -27.334 -63 -8.00098z" />
    <glyph glyph-name="a" unicode="a" horiz-adv-x="327" 
d="M259 -4c-39.333 0 -59.0049 18 -59.0049 54v37c-3.33301 -22 -13 -42.667 -29 -62s-36 -29 -60 -29c-28 0 -50.167 7.83301 -66.5 23.5s-24.5 35.167 -24.5 58.5v59c0 24.667 6.16699 46.5 18.5 65.5s27.333 34.333 45 46s35.334 22.834 53.001 33.501s32.667 23 45 37
s18.5 29.667 18.5 47v1c0 9.33301 -3.66699 18 -11 26s-16.666 12 -27.999 12s-20.666 -3.5 -27.999 -10.5s-11 -16.167 -11 -27.5v-32c0 -16 -4.5 -28.167 -13.5 -36.5s-21.5 -12.5 -37.5 -12.5c-14.667 0 -26.834 4.5 -36.501 13.5s-14.5 22.167 -14.5 39.5v42
c0 34 11.833 63 35.5 87s56.834 36 99.501 36h17c38.667 0 70.834 -12.333 96.501 -37s38.5 -53.334 38.5 -86.001v-347c0 -11.333 -4.16699 -20.5 -12.5 -27.5s-20.166 -10.5 -35.499 -10.5zM126.995 130c0 -20.667 11 -31 33 -31c26.667 0 40 19.667 40 59v78
c-26 -19.333 -44.667 -35.333 -56 -48s-17 -26.667 -17 -42v-16z" />
    <glyph glyph-name="b" unicode="b" horiz-adv-x="325" 
d="M68 -4c-15.333 0 -27.167 3.50195 -35.5 10.502s-12.5 16.167 -12.5 27.5v592c0 15.333 4.83301 27.166 14.5 35.499s22.5 12.5 38.5 12.5s29 -4.16699 39 -12.5s15 -20.166 15 -35.499v-203c5.33301 20.667 15.666 39.167 30.999 55.5s34 24.5 56 24.5
c28.667 0 51 -8.83301 67 -26.5s24 -42.834 24 -75.501v-303c0 -32.667 -8 -57.834 -24 -75.501s-38.333 -26.5 -67 -26.5c-22 0 -40.667 8.16699 -56 24.5s-25.666 34.833 -30.999 55.5v-26c0 -36 -19.667 -54 -59 -54zM126.999 158.002c0 -20.667 3 -35.667 9 -45
s15.667 -14 29 -14c22 0 33 10.333 33 31v239c0 20.667 -11 31 -33 31c-13.333 0 -23 -4.66699 -29 -14s-9 -24.333 -9 -45v-183z" />
    <glyph glyph-name="c" unicode="c" 
d="M152 -4c-41.333 0 -73.6699 11.499 -97.0029 34.499s-35 58.5 -35 106.5v206c0 49.333 12 88.5 36 117.5s56 43.5 96 43.5h28c40 0 72 -14.667 96 -44s36 -68.666 36 -117.999v-21c0 -15.333 -4.83301 -27.166 -14.5 -35.499s-22.5 -12.5 -38.5 -12.5
s-29 4.16699 -39 12.5s-15 20.166 -15 35.499v46c0 11.333 -3.66699 20.5 -11 27.5s-16.666 10.5 -27.999 10.5s-20.666 -3.5 -27.999 -10.5s-11 -16.167 -11 -27.5v-235c0 -25.333 13 -38 39 -38s39 12.667 39 38v38c0 15.333 5 27.166 15 35.499s23 12.5 39 12.5
s28.833 -4.16699 38.5 -12.5s14.5 -20.166 14.5 -35.499v-33c0 -48 -11.667 -83.5 -35 -106.5s-55.666 -34.5 -96.999 -34.5h-28z" />
    <glyph glyph-name="d" unicode="d" horiz-adv-x="325" 
d="M111 -4c-28 0 -50.168 7.83301 -66.501 23.5s-24.5 35.167 -24.5 58.5v343c0 23.333 8.16699 42.833 24.5 58.5s38.5 23.5 66.5 23.5c22 0 40.667 -8.16699 56 -24.5s25.666 -34.833 30.999 -55.5v203c0 15.333 5 27.166 15 35.499s23 12.5 39 12.5
s28.833 -4.16699 38.5 -12.5s14.5 -20.166 14.5 -35.499v-592c0 -11.333 -4.16699 -20.5 -12.5 -27.5s-20.166 -10.5 -35.499 -10.5c-39.333 0 -59 18 -59 54v26c-5.33301 -20.667 -15.666 -39.167 -30.999 -55.5s-34 -24.5 -56 -24.5zM126.999 130c0 -20.667 11 -31 33 -31
c13.333 0 23 4.66699 29 14s9 24.333 9 45v183c0 20.667 -3 35.667 -9 45s-15.667 14 -29 14c-22 0 -33 -10.333 -33 -31v-239z" />
    <glyph glyph-name="e" unicode="e" 
d="M157 -4c-42 0 -75.335 11.668 -100.002 35.001s-37 58.666 -37 105.999v216c0 48 12.667 85.167 38 111.5s58.333 39.5 99 39.5h23c40.667 0 72.834 -13.167 96.501 -39.5s35.5 -63.833 35.5 -112.5v-75c0 -5.33301 -2 -10 -6 -14s-8.66699 -6 -14 -6h-165v-125
c0 -25.333 13 -38 39 -38s39 12.667 39 38v38c0 15.333 5 27.166 15 35.499s23 12.5 39 12.5s28.833 -4.16699 38.5 -12.5s14.5 -20.166 14.5 -35.499v-33c0 -48 -11.667 -83.5 -35 -106.5s-55.666 -34.5 -96.999 -34.5h-23zM126.998 317.001h72.998
c3.33301 0 5 1.66699 5 5v45c0 11.333 -3.66699 20.5 -11 27.5s-16.666 10.5 -27.999 10.5s-20.666 -3.5 -27.999 -10.5s-11 -16.167 -11 -27.5v-50z" />
    <glyph glyph-name="f" unicode="f" horiz-adv-x="279" 
d="M134 -4c-16 0 -28.998 4.16699 -38.998 12.5s-15 20.166 -15 35.499v356l-31 -2c-29.333 -2 -44 14 -44 48c0 34.667 14.667 51 44 49l31 -2v40c0 48 11.667 83.5 35 106.5s55.666 34.5 96.999 34.5h14c15.333 0 27.166 -4.83301 35.499 -14.5s12.5 -22.5 12.5 -38.5
c0 -32.667 -16 -49 -48 -49c-26 0 -39 -12.667 -39 -38v-41l31 2c28 2 42 -14.333 42 -49c0 -34 -14 -50 -42 -48l-31 2v-356c0 -15.333 -4.83301 -27.166 -14.5 -35.499s-22.5 -12.5 -38.5 -12.5z" />
    <glyph glyph-name="g" unicode="g" horiz-adv-x="326" 
d="M142 -170c-37.333 0 -67.998 8.83301 -91.998 26.5s-36 40.167 -36 67.5c0 14.667 4.66699 26.5 14 35.5s21.333 13.5 36 13.5s26.5 -4.5 35.5 -13.5s16.833 -18 23.5 -27s15 -13.5 25 -13.5h8c28.667 0 43 19 43 57v100c-5.33301 -20.667 -15.666 -39.167 -30.999 -55.5
s-34 -24.5 -56 -24.5c-28 0 -50.167 7.83301 -66.5 23.5s-24.5 35.167 -24.5 58.5v343c0 23.333 8.16699 42.833 24.5 58.5s38.5 23.5 66.5 23.5c22 0 40.667 -8.16699 56 -24.5s25.666 -34.833 30.999 -55.5v27c0 36 19.667 54 59 54c15.333 0 27.166 -3.5 35.499 -10.5
s12.5 -16.167 12.5 -27.5v-474c0 -52 -12.833 -92 -38.5 -120s-62.834 -42 -111.501 -42h-14zM128.002 130c0 -20.667 11 -31 33 -31c13.333 0 23 4.66699 29 14s9 24.333 9 45v183c0 20.667 -3 35.667 -9 45s-15.667 14 -29 14c-22 0 -33 -10.333 -33 -31v-239z" />
    <glyph glyph-name="h" unicode="h" horiz-adv-x="325" 
d="M251 -4c-16 0 -28.832 4.33301 -38.499 13s-14.5 20.667 -14.5 36v324c0 20.667 -11 31 -33 31c-13.333 0 -23 -4.66699 -29 -14s-9 -24.333 -9 -45v-297c0 -15.333 -4.83301 -27.166 -14.5 -35.499s-22.5 -12.5 -38.5 -12.5s-29 4.16699 -39 12.5s-15 20.166 -15 35.499
v576c0 36 19.667 54 59 54c15.333 0 27.166 -3.5 35.499 -10.5s12.5 -16.167 12.5 -27.5v-213c5.33301 20.667 15.666 39.167 30.999 55.5s34 24.5 56 24.5c28 0 50.167 -7.83301 66.5 -23.5s24.5 -35.167 24.5 -58.5v-372c0 -17.333 -5.16699 -30.5 -15.5 -39.5
s-23.166 -13.5 -38.499 -13.5z" />
    <glyph glyph-name="i" unicode="i" horiz-adv-x="147" 
d="M74 -4c-16 0 -29 4.16699 -39 12.5s-15 20.166 -15 35.499v412c0 15.333 5 27.166 15 35.499s23 12.5 39 12.5s28.833 -4.16699 38.5 -12.5s14.5 -20.166 14.5 -35.499v-412c0 -15.333 -4.83301 -27.166 -14.5 -35.499s-22.5 -12.5 -38.5 -12.5zM74 546
c-15.333 0 -27.832 3.83203 -37.499 11.499s-14.5 18.834 -14.5 33.501v37c0 14.667 4.83301 26 14.5 34s22.167 12 37.5 12s27.666 -4 36.999 -12s14 -19.333 14 -34v-37c0 -30 -17 -45 -51 -45z" />
    <glyph glyph-name="j" unicode="j" horiz-adv-x="149" 
d="M-17 -179c-15.333 0 -27.167 4.83301 -35.5 14.5s-12.5 22.5 -12.5 38.5s4.16699 29 12.5 39s20.166 15 35.499 15c26 0 39 12.667 39 38v490c0 15.333 5 27.166 15 35.499s23 12.5 39 12.5s28.833 -4.16699 38.5 -12.5s14.5 -20.166 14.5 -35.499v-494
c0 -48 -11.667 -83.5 -35 -106.5s-55.666 -34.5 -96.999 -34.5h-14zM75.999 546c-15.333 0 -27.832 3.83203 -37.499 11.499s-14.5 18.834 -14.5 33.501v37c0 14.667 4.83301 26 14.5 34s22.167 12 37.5 12s27.666 -4 36.999 -12s14 -19.333 14 -34v-37
c0 -30 -17 -45 -51 -45z" />
    <glyph glyph-name="k" unicode="k" horiz-adv-x="345" 
d="M303 9c-12 -9.33301 -25.333 -13.168 -40 -11.501s-25.667 8.83398 -33 21.501l-103 179v-154c0 -15.333 -4.83301 -27.166 -14.5 -35.499s-22.5 -12.5 -38.5 -12.5s-29 4.16699 -39 12.5s-15 20.166 -15 35.499v582c0 15.333 5 27.166 15 35.499s23 12.5 39 12.5
s28.833 -4.16699 38.5 -12.5s14.5 -20.166 14.5 -35.499v-312l92 166c7.33301 13.333 18.333 20.666 33 21.999s28 -2.66699 40 -12c27.333 -17.333 32 -39.666 14 -66.999l-103 -164l111 -180c18.667 -30 15 -53.333 -11 -70z" />
    <glyph glyph-name="l" unicode="l" horiz-adv-x="147" 
d="M74 -4c-16 0 -29 4.16699 -39 12.5s-15 20.166 -15 35.499v582c0 15.333 5 27.166 15 35.499s23 12.5 39 12.5s28.833 -4.16699 38.5 -12.5s14.5 -20.166 14.5 -35.499v-582c0 -15.333 -4.83301 -27.166 -14.5 -35.499s-22.5 -12.5 -38.5 -12.5z" />
    <glyph glyph-name="m" unicode="m" horiz-adv-x="504" 
d="M430 -4c-16 0 -28.833 4.33398 -38.5 13.001s-14.5 20.667 -14.5 36v324c0 20.667 -11 31 -33 31c-26 0 -39 -19.667 -39 -59v-292c0 -17.333 -5.16699 -30.5 -15.5 -39.5s-23.166 -13.5 -38.499 -13.5c-16 0 -28.833 4.33301 -38.5 13s-14.5 20.667 -14.5 36v324
c0 20.667 -11 31 -33 31c-13.333 0 -23 -4.66699 -29 -14s-9 -24.333 -9 -45v-297c0 -15.333 -4.83301 -27.166 -14.5 -35.499s-22.5 -12.5 -38.5 -12.5s-29 4.16699 -39 12.5s-15 20.166 -15 35.499v405c0 36 19.667 54 59 54c15.333 0 27.166 -3.5 35.499 -10.5
s12.5 -16.167 12.5 -27.5v-29c8 18.667 19.667 34.5 35 47.5s32.666 19.5 51.999 19.5c48 0 77 -22.333 87 -67c8 18 20.5 33.667 37.5 47s35.167 20 54.5 20c28.667 0 51 -8.83301 67 -26.5s24 -42.834 24 -75.501v-352c0 -17.333 -5.16699 -30.5 -15.5 -39.5
s-23.166 -13.5 -38.499 -13.5z" />
    <glyph glyph-name="n" unicode="n" horiz-adv-x="325" 
d="M251 -4c-16 0 -28.832 4.33398 -38.499 13.001s-14.5 20.667 -14.5 36v324c0 20.667 -11 31 -33 31c-13.333 0 -23 -4.66699 -29 -14s-9 -24.333 -9 -45v-297c0 -15.333 -4.83301 -27.166 -14.5 -35.499s-22.5 -12.5 -38.5 -12.5s-29 4.16699 -39 12.5
s-15 20.166 -15 35.499v405c0 36 19.667 54 59 54c15.333 0 27.166 -3.5 35.499 -10.5s12.5 -16.167 12.5 -27.5v-29c8 18.667 19.667 34.5 35 47.5s32.666 19.5 51.999 19.5c28.667 0 51 -8.83301 67 -26.5s24 -42.834 24 -75.501v-352
c0 -17.333 -5.16699 -30.5 -15.5 -39.5s-23.166 -13.5 -38.499 -13.5z" />
    <glyph glyph-name="o" unicode="o" 
d="M152 -4c-41.333 0 -73.668 11.501 -97.001 34.501s-35 58.5 -35 106.5v206c0 48.667 12.833 87.667 38.5 117s58.5 44 98.5 44h18c40 0 72.833 -14.833 98.5 -44.5s38.5 -68.834 38.5 -117.501v-205c0 -48 -11.667 -83.5 -35 -106.5s-55.666 -34.5 -96.999 -34.5h-28z
M165.998 94.001c26 0 38.998 12.667 38.998 38v235c0 11.333 -3.66699 20.5 -11 27.5s-16.666 10.5 -27.999 10.5s-20.666 -3.5 -27.999 -10.5s-11 -16.167 -11 -27.5v-235c0 -25.333 13 -38 39 -38z" />
    <glyph glyph-name="p" unicode="p" horiz-adv-x="325" 
d="M74 -170c-16 0 -28.999 4.16895 -38.999 12.502s-15 20.166 -15 35.499v572c0 36 19.667 54 59 54c15.333 0 27.166 -3.5 35.499 -10.5s12.5 -16.167 12.5 -27.5v-43c5.33301 20.667 15.666 39.167 30.999 55.5s34 24.5 56 24.5c28.667 0 51 -8.83301 67 -26.5
s24 -42.834 24 -75.501v-303c0 -32.667 -8 -57.834 -24 -75.501s-38.333 -26.5 -67 -26.5c-22 0 -40.667 8.16699 -56 24.5s-25.666 34.833 -30.999 55.5v-198c0 -15.333 -4.83301 -27.166 -14.5 -35.499s-22.5 -12.5 -38.5 -12.5zM127.001 158.002
c0 -20.667 3 -35.667 9 -45s15.667 -14 29 -14c22 0 33 10.333 33 31v239c0 20.667 -11 31 -33 31c-13.333 0 -23 -4.66699 -29 -14s-9 -24.333 -9 -45v-183z" />
    <glyph glyph-name="q" unicode="q" horiz-adv-x="325" 
d="M252 -170c-16 0 -28.999 4.16504 -38.999 12.498s-15 20.166 -15 35.499v198c-5.33301 -20.667 -15.666 -39.167 -30.999 -55.5s-34 -24.5 -56 -24.5c-28.667 0 -51 8.83301 -67 26.5s-24 42.834 -24 75.501v303c0 32.667 8 57.834 24 75.501s38.333 26.5 67 26.5
c22 0 40.667 -8.16699 56 -24.5s25.666 -34.833 30.999 -55.5v27c0 36 19.667 54 59 54c15.333 0 27.166 -3.5 35.499 -10.5s12.5 -16.167 12.5 -27.5v-588c0 -15.333 -4.83301 -27.166 -14.5 -35.499s-22.5 -12.5 -38.5 -12.5zM127.001 129.998c0 -20.667 11 -31 33 -31
c13.333 0 23 4.66699 29 14s9 24.333 9 45v183c0 20.667 -3 35.667 -9 45s-15.667 14 -29 14c-22 0 -33 -10.333 -33 -31v-239z" />
    <glyph glyph-name="r" unicode="r" horiz-adv-x="325" 
d="M74 -4c-16 0 -28.999 4.16797 -38.999 12.501s-15 20.166 -15 35.499v405c0 36 19.667 54 59 54c15.333 0 27.166 -3.5 35.499 -10.5s12.5 -16.167 12.5 -27.5v-42c5.33301 20.667 15.666 39.167 30.999 55.5s34 24.5 56 24.5c28.667 0 51 -8.83301 67 -26.5
s24 -42.834 24 -75.501v-70c0 -17.333 -5.16699 -30.5 -15.5 -39.5s-23.166 -13.5 -38.499 -13.5c-16 0 -28.833 4.33301 -38.5 13s-14.5 20.667 -14.5 36v42c0 20.667 -11 31 -33 31c-13.333 0 -23 -4.66699 -29 -14s-9 -24.333 -9 -45v-297
c0 -15.333 -4.83301 -27.166 -14.5 -35.499s-22.5 -12.5 -38.5 -12.5z" />
    <glyph glyph-name="s" unicode="s" horiz-adv-x="327" 
d="M152 -4c-41.333 0 -73.6719 11.4951 -97.0049 34.4951s-35 58.5 -35 106.5v23c0 35.333 16.667 53 50 53c34.667 0 52 -15.667 52 -47v-34c0 -25.333 13 -38 39 -38s39 12.667 39 38v14c0 15.333 -6.16699 29 -18.5 41s-27.333 23 -45 33s-35.334 21.167 -53.001 33.5
s-32.667 29.5 -45 51.5s-18.5 48 -18.5 78c0 32.667 12.833 61.334 38.5 86.001s57.834 37 96.501 37h17c42.667 0 75.834 -12 99.501 -36s35.5 -53 35.5 -87v-42c0 -17.333 -5.16699 -30.5 -15.5 -39.5s-23.166 -13.5 -38.499 -13.5c-16 0 -28.833 4.33301 -38.5 13
s-14.5 20.667 -14.5 36v32c0 11.333 -3.66699 20.5 -11 27.5s-16.666 10.5 -27.999 10.5s-20.666 -4 -27.999 -12s-11 -16.667 -11 -26c0 -18.667 6.33301 -35.167 19 -49.5s28 -26.666 46 -36.999s36.167 -21.166 54.5 -32.499s33.833 -26.666 46.5 -45.999
s19 -41.666 19 -66.999c0 -48 -11.667 -83.5 -35 -106.5s-55.666 -34.5 -96.999 -34.5h-23z" />
    <glyph glyph-name="t" unicode="t" horiz-adv-x="305" 
d="M207 -1c-41.333 0 -73.666 11.499 -96.999 34.499s-35 58.5 -35 106.5v260l-31 -2c-29.333 -2 -44 14 -44 48c0 34.667 14.667 51 44 49l31 -2v59c0 36 19.667 54 59 54c15.333 0 27.166 -3.5 35.499 -10.5s12.5 -16.167 12.5 -27.5v-76l61 3
c14.667 0.666992 25.334 -3.33301 32.001 -12s10 -21 10 -37s-3.33301 -28.167 -10 -36.5s-17.334 -12.166 -32.001 -11.499l-61 3v-257c0 -25.333 13 -38 39 -38c15.333 0 27.166 -5 35.499 -15s12.5 -23 12.5 -39s-4.16699 -28.833 -12.5 -38.5
s-20.166 -14.5 -35.499 -14.5h-14z" />
    <glyph glyph-name="u" unicode="u" horiz-adv-x="325" 
d="M111 -4c-28 0 -50.168 7.83301 -66.501 23.5s-24.5 35.167 -24.5 58.5v372c0 17.333 5.16699 30.5 15.5 39.5s23.166 13.5 38.499 13.5c16 0 28.833 -4.33301 38.5 -13s14.5 -20.667 14.5 -36v-324c0 -20.667 11 -31 33 -31c13.333 0 23 4.66699 29 14s9 24.333 9 45v297
c0 15.333 5 27.166 15 35.499s23 12.5 39 12.5s28.833 -4.16699 38.5 -12.5s14.5 -20.166 14.5 -35.499v-421c0 -11.333 -4.16699 -20.5 -12.5 -27.5s-20.166 -10.5 -35.499 -10.5c-39.333 0 -59 18 -59 54v26c-5.33301 -20.667 -15.666 -39.167 -30.999 -55.5
s-34 -24.5 -56 -24.5z" />
    <glyph glyph-name="v" unicode="v" horiz-adv-x="355" 
d="M178 -4c-52 0 -80.998 18.333 -86.998 55l-70 393c-6 32.667 7 51.667 39 57c33.333 5.33301 52.666 -7.33398 57.999 -38.001l61 -364l58 364c5.33301 30.667 24.666 43.334 57.999 38.001c31.333 -5.33301 44.333 -24.333 39 -57l-68 -393
c-6.66699 -36.667 -36 -55 -88 -55z" />
    <glyph glyph-name="w" unicode="w" horiz-adv-x="550" 
d="M168 -6c-43.333 0 -67.6641 15 -72.9971 45l-74 406c-2.66699 15.333 -0.5 28 6.5 38s18.167 16.333 33.5 19c34 5.33301 53.667 -7.33398 59 -38.001l58 -316l39 310c1.33301 13.333 6.66602 24 15.999 32s20.333 12 33 12h15c12.667 0 23.667 -4 33 -12
s14.666 -18.667 15.999 -32l40 -319l60 325c5.33301 30.667 25 43.334 59 38.001c15.333 -2.66699 26.5 -9 33.5 -19s9.16699 -22.667 6.5 -38l-74 -406c-4.66699 -30 -29.334 -45 -74.001 -45c-20 0 -36.5 4.33301 -49.5 13s-20.5 20.667 -22.5 36l-35 258l-33 -258
c-2 -15.333 -9.66699 -27.333 -23 -36s-30 -13 -50 -13z" />
    <glyph glyph-name="x" unicode="x" horiz-adv-x="345" 
d="M292 5c-31.333 -15.333 -54.002 -8.33496 -68.002 20.998l-56 123l-49 -122c-14 -29.333 -36 -36.666 -66 -21.999c-31.333 14 -40.666 36 -27.999 66l94 182l-85 178c-14 29.333 -5.33301 51 26 65c30.667 14 53 6.66699 67 -22l52 -115l47 115
c14 28.667 36.667 36.334 68 23.001c30.667 -15.333 39.334 -37.333 26.001 -66l-92 -176l90 -185c6 -12.667 6.66699 -25.167 2 -37.5s-14 -21.5 -28 -27.5z" />
    <glyph glyph-name="y" unicode="y" horiz-adv-x="337" 
d="M78 -170c-15.333 0 -27.1641 4.83301 -35.4971 14.5s-12.5 22.5 -12.5 38.5s4.16699 29 12.5 39s20.166 15 35.499 15c12 0 21.833 3.5 29.5 10.5s10.167 16.167 7.5 27.5l-103 469c-3.33301 15.333 -1.5 28 5.5 38s18.167 16.333 33.5 19
c33.333 5.33301 52.666 -7.33398 57.999 -38.001l61 -354l58 354c5.33301 30.667 24.666 43.334 57.999 38.001c15.333 -2.66699 26.5 -9 33.5 -19s8.83301 -22.667 5.5 -38l-99 -473c-10 -50 -25.167 -86 -45.5 -108s-49.833 -33 -88.5 -33h-14z" />
    <glyph glyph-name="z" unicode="z" horiz-adv-x="290" 
d="M68 0c-12.667 0 -23.5 5.00098 -32.5 15.001s-13.5 21 -13.5 33c0 10.667 4.66699 26.667 14 48l132 301h-99c-15.333 0 -27.333 4.66699 -36 14s-13 21.666 -13 36.999c0 16 4.33301 28.667 13 38s20.667 14 36 14h172c32.667 0 49 -15.667 49 -47
c0 -8.66699 -5.33301 -24.667 -16 -48l-131 -302h98c15.333 0 27.166 -4.66699 35.499 -14s12.5 -22 12.5 -38s-4.16699 -28.5 -12.5 -37.5s-20.166 -13.5 -35.499 -13.5h-173z" />
    <glyph glyph-name="braceleft" unicode="{" horiz-adv-x="334" 
d="M241 -170c-45.333 0 -77.5 13.001 -96.5 39.001s-28.5 64 -28.5 114v200c0 8.66699 -3.5 16.5 -10.5 23.5s-16.167 10.5 -27.5 10.5h-20c-12 0 -21.333 4 -28 12s-10 18 -10 30c0 12.667 3.33301 23 10 31s16 12 28 12h20c11.333 0 20.5 3.5 27.5 10.5
s10.5 14.833 10.5 23.5v210c0 50 9.5 88 28.5 114s51.167 39 96.5 39h25c32 0 48 -16 48 -48c0 -30.667 -16 -46 -48 -46h-6c-10.667 0 -19.5 -3.33301 -26.5 -10s-10.5 -15.334 -10.5 -26.001v-202c0 -46 -15.333 -80 -46 -102c30.667 -23.333 46 -57.666 46 -102.999v-202
c0 -10.667 3.5 -19.334 10.5 -26.001s15.833 -10 26.5 -10h6c32 0 48 -15.333 48 -46c0 -32 -16 -48 -48 -48h-25z" />
    <glyph glyph-name="bar" unicode="|" horiz-adv-x="302" 
d="M155.766 688.371c15.8467 0.104492 28.8516 -4.00098 39.0176 -12.3203s15.2148 -20.0801 15.1475 -35.2822l-0.379883 -597.457c-0.0673828 -15.2021 -5.00195 -27.0498 -14.8037 -35.543c-9.80273 -8.49316 -22.627 -12.792 -38.4736 -12.8965
c-35.2568 0.21582 -52.9902 16.1699 -53.2002 47.8623l0.121094 598.422c0.0673828 15.2021 4.88477 26.8457 14.4521 34.9307s22.2734 12.1797 38.1191 12.2842z" />
    <glyph glyph-name="braceright" unicode="}" horiz-adv-x="334" 
d="M68 -170c-32 0 -48 15.999 -48 47.999c0 30.667 16 46 48 46h6c10.667 0 19.5 3.33301 26.5 10s10.5 15.334 10.5 26.001v202c0 45.333 15.333 79.666 46 102.999c-30.667 22 -46 56 -46 102v202c0 10.667 -3.5 19.334 -10.5 26.001s-15.833 10 -26.5 10h-6
c-32 0 -48 15.333 -48 46c0 32 16 48 48 48h25c45.333 0 77.5 -13 96.5 -39s28.5 -64 28.5 -114v-210c0 -8.66699 3.5 -16.5 10.5 -23.5s16.167 -10.5 27.5 -10.5h20c12 0 21.333 -4 28 -12s10 -18.333 10 -31c0 -12 -3.33301 -22 -10 -30s-16 -12 -28 -12h-20
c-11.333 0 -20.5 -3.5 -27.5 -10.5s-10.5 -14.833 -10.5 -23.5v-200c0 -50 -9.5 -88 -28.5 -114s-51.167 -39 -96.5 -39h-25z" />
    <glyph glyph-name="asciitilde" unicode="~" horiz-adv-x="362" 
d="M37 228c5.33301 -6 9.33301 -9.99902 12 -11.999s6.33398 -4.33301 11.001 -7s9.5 -3.5 14.5 -2.5s10.5 3.5 16.5 7.5c4.66699 2.66699 12.334 8.33398 23.001 17.001s19 13.667 25 15c3.33301 0.666992 15.666 -6.33301 36.999 -21s39.666 -22.334 54.999 -23.001
c10 0 27 4.83301 51 14.5s42.5 22.5 55.5 38.5c14.333 17.333 12.833 35.666 -4.5 54.999c-10.667 12 -22.5 18 -35.5 18s-22.333 -3.5 -28 -10.5s-12.334 -14.167 -20.001 -21.5s-14.5 -11 -20.5 -11c-4 0 -9.33301 3.66699 -16 11s-19.167 14.5 -37.5 21.5
s-38.666 10.167 -60.999 9.5s-44.5 -13.667 -66.5 -39c-21.333 -24.667 -25 -44.667 -11 -60z" />
    <glyph glyph-name="exclamdown" unicode="&#xa1;" horiz-adv-x="157" 
d="M79 332c28 0 42.667 -12.667 44 -38l14 -421c0 -14.667 -5.66699 -26.334 -17 -35.001s-25 -13 -41 -13c-16.667 0 -30.667 4.33301 -42 13s-17 20.334 -17 35.001l15 421c1.33301 25.333 16 38 44 38zM79 504c34 0 50.999 -15.001 50.999 -45.001v-37
c0 -14.667 -4.66699 -26 -14 -34s-21.666 -12 -36.999 -12s-27.833 4 -37.5 12s-14.5 19.333 -14.5 34v37c0 14.667 4.83301 25.834 14.5 33.501s22.167 11.5 37.5 11.5z" />
    <glyph glyph-name="copyright" unicode="&#xa9;" horiz-adv-x="600" 
 />
    <glyph glyph-name="guillemotleft" unicode="&#xab;" horiz-adv-x="544" 
d="M38 232c-12 12 -18.002 26 -18.002 42c0 15.333 6 29 18 41l175 170c10 9.33301 21.667 14 35 14s25.333 -4.66699 36 -14c24.667 -24 27.334 -44.667 8.00098 -62l-159 -149l159 -150c18.667 -17.333 15.334 -38 -9.99902 -62c-23.333 -21.333 -46.333 -21.333 -69 0z
M230.998 232c-12 12 -18.002 26 -18.002 42c0 15.333 6 29 18 41l175 170c10 9.33301 21.667 14 35 14s25.333 -4.66699 36 -14c24.667 -24 27.334 -44.667 8.00098 -62l-159 -149l159 -150c18.667 -17.333 15.334 -38 -9.99902 -62c-23.333 -21.333 -46.333 -21.333 -69 0z
" />
    <glyph glyph-name="registered" unicode="&#xae;" horiz-adv-x="600" 
 />
    <glyph glyph-name="degree" unicode="&#xb0;" horiz-adv-x="274" 
d="M137 443c-32.667 0 -60.334 11.333 -83.001 34s-34 50.334 -34 83.001s11.333 60.334 34 83.001s50.334 34 83.001 34s60.334 -11.333 83.001 -34s34 -50.334 34 -83.001s-11.333 -60.334 -34 -83.001s-50.334 -34 -83.001 -34zM137 515
c12.667 0 23.334 4.33301 32.001 13s13 19.334 13 32.001s-4.33301 23.334 -13 32.001s-19.334 13 -32.001 13s-23.334 -4.33301 -32.001 -13s-13 -19.334 -13 -32.001s4.33301 -23.334 13 -32.001s19.334 -13 32.001 -13z" />
    <glyph glyph-name="periodcentered" unicode="&#xb7;" horiz-adv-x="149" 
d="M74 188c-15.333 0 -27.832 3.83203 -37.499 11.499s-14.5 18.834 -14.5 33.501v37c0 14.667 4.83301 26 14.5 34s22.167 12 37.5 12s27.666 -4 36.999 -12s14 -19.333 14 -34v-37c0 -30 -17 -45 -51 -45z" />
    <glyph glyph-name="guillemotright" unicode="&#xbb;" horiz-adv-x="544" 
d="M331 62c-22.667 -21.333 -45.6689 -21.333 -69.002 0c-25.333 24 -28.666 44.667 -9.99902 62l159 150l-159 149c-19.333 17.333 -16.666 38 8.00098 62c10.667 9.33301 22.667 14 36 14s25 -4.66699 35 -14l175 -170c12 -12 18 -25.667 18 -41c0 -16 -6 -30 -18 -42z
M137.998 62c-22.667 -21.333 -45.6689 -21.333 -69.002 0c-25.333 24 -28.666 44.667 -9.99902 62l159 150l-159 149c-19.333 17.333 -16.666 38 8.00098 62c10.667 9.33301 22.667 14 36 14s25 -4.66699 35 -14l175 -170c12 -12 18 -25.667 18 -41c0 -16 -6 -30 -18 -42z
" />
    <glyph glyph-name="questiondown" unicode="&#xbf;" horiz-adv-x="327" 
d="M183 332c15.333 0 28.167 -4.5 38.5 -13.5s15.5 -22.167 15.5 -39.5c0 -34 -4 -62.667 -12 -86s-17.5 -41.5 -28.5 -54.5s-22.167 -25.333 -33.5 -37s-21 -26.667 -29 -45s-12 -40.833 -12 -67.5v-27c0 -9.33301 3.66699 -18 11 -26s16.666 -12 27.999 -12
s20.666 3.5 27.999 10.5s11 16.167 11 27.5v76c0 15.333 4.83301 27.333 14.5 36s22.5 13 38.5 13c15.333 0 28.166 -4.5 38.499 -13.5s15.5 -22.167 15.5 -39.5v-86c0 -34 -11.833 -63 -35.5 -87s-56.834 -36 -99.501 -36h-17c-39.333 0 -71.666 13 -96.999 39
s-38 58.667 -38 98c0 40 3.83301 73.5 11.5 100.5s16.834 47.167 27.501 60.5s21.334 26 32.001 38s19.834 27.833 27.501 47.5s11.5 44.5 11.5 74.5c0 15.333 4.83301 27.333 14.5 36s22.5 13 38.5 13zM183.001 504c16 0 28.999 -3.83301 38.999 -11.5
s15 -18.834 15 -33.501v-37c0 -14.667 -5.16699 -26 -15.5 -34s-23.166 -12 -38.499 -12s-28 4 -38 12s-15 19.333 -15 34v37c0 14.667 5 25.834 15 33.501s22.667 11.5 38 11.5z" />
    <glyph glyph-name="Agrave" unicode="&#xc0;" horiz-adv-x="395" 
d="M62 -2c-32.667 5.33301 -46.3291 24 -40.9961 56l89 563c5.33301 38 34.666 57 87.999 57c52.667 0 81.667 -19 87 -57l89 -563c5.33301 -32 -8.33398 -50.667 -41.001 -56c-15.333 -2.66699 -28.333 -0.666992 -39 6s-17.334 17.667 -20.001 33l-26 174h-101l-26 -174
c-2.66699 -15.333 -9.33398 -26.333 -20.001 -33s-23.667 -8.66699 -39 -6zM134.005 768c-24 20 -28 41.334 -12 64.001c8.66699 12 19.167 18.5 31.5 19.5s23.833 -3.16699 34.5 -12.5l68 -57c23.333 -20 27 -41.333 11 -64c-18 -24.667 -39 -27.334 -63 -8.00098z
M156.005 271.001h83l-41 274z" />
    <glyph glyph-name="Aacute" unicode="&#xc1;" horiz-adv-x="395" 
d="M62 -2c-32.667 5.33301 -46.3291 24 -40.9961 56l89 563c5.33301 38 34.666 57 87.999 57c52.667 0 81.667 -19 87 -57l89 -563c5.33301 -32 -8.33398 -50.667 -41.001 -56c-15.333 -2.66699 -28.333 -0.666992 -39 6s-17.334 17.667 -20.001 33l-26 174h-101l-26 -174
c-2.66699 -15.333 -9.33398 -26.333 -20.001 -33s-23.667 -8.66699 -39 -6zM175.005 713c-24 -19.333 -45 -16.667 -63 8c-16 22.667 -12.333 44 11 64l68 57c10.667 9.33301 22.167 13.5 34.5 12.5s22.833 -7.5 31.5 -19.5c16 -22.667 12 -44 -12 -64zM156.005 270.999h83
l-41 274z" />
    <glyph glyph-name="Acircumflex" unicode="&#xc2;" horiz-adv-x="395" 
d="M62 -2c-32.667 5.33301 -46.3291 24 -40.9961 56l89 563c5.33301 38 34.666 57 87.999 57c52.667 0 81.667 -19 87 -57l89 -563c5.33301 -32 -8.33398 -50.667 -41.001 -56c-15.333 -2.66699 -28.333 -0.666992 -39 6s-17.334 17.667 -20.001 33l-26 174h-101l-26 -174
c-2.66699 -15.333 -9.33398 -26.333 -20.001 -33s-23.667 -8.66699 -39 -6zM143.005 711c-20 -20.667 -40.666 -19.667 -61.999 3c-16.667 18.667 -15 39 5 61l54 59c15.333 16 34.666 24 57.999 24c24 0 43 -8 57 -24l54 -59c20 -22 21.667 -42.333 5 -61
c-22 -23.333 -42.667 -24.333 -62 -3l-54 59zM156.006 271h83l-41 274z" />
    <glyph glyph-name="Atilde" unicode="&#xc3;" horiz-adv-x="395" 
d="M76 713c5.33301 -6 9.33496 -10 12.002 -12s6.33398 -4.33301 11.001 -7s9.5 -3.5 14.5 -2.5s10.5 3.5 16.5 7.5c4.66699 2.66699 10 8.33398 16 17.001s12 13.667 18 15c3.33301 0.666992 12.166 -6.33301 26.499 -21s29.166 -22.334 44.499 -23.001
c10 0 25.167 4.83301 45.5 14.5s37 22.5 50 38.5s11.5 34.333 -4.5 55c-10.667 12 -20.667 18 -30 18s-16.833 -3.5 -22.5 -10.5s-12.334 -14.167 -20.001 -21.5s-14.5 -11 -20.5 -11c-4 0 -9.33301 3.66699 -16 11s-15.667 14.5 -27 21.5s-25.333 10.167 -42 9.5
c-18.667 -0.666992 -39 -13.667 -61 -39s-25.667 -45.333 -11 -60zM62.002 -2c-32.667 5.33301 -46.3291 24 -40.9961 56l89 563c5.33301 38 34.666 57 87.999 57c52.667 0 81.667 -19 87 -57l89 -563c5.33301 -32 -8.33398 -50.667 -41.001 -56
c-15.333 -2.66699 -28.333 -0.666992 -39 6s-17.334 17.667 -20.001 33l-26 174h-101l-26 -174c-2.66699 -15.333 -9.33398 -26.333 -20.001 -33s-23.667 -8.66699 -39 -6zM156.007 271h83l-41 274z" />
    <glyph glyph-name="Adieresis" unicode="&#xc4;" horiz-adv-x="395" 
d="M62 -2c-32.667 5.33301 -46.3291 24 -40.9961 56l89 563c5.33301 38 34.666 57 87.999 57c52.667 0 81.667 -19 87 -57l89 -563c5.33301 -32 -8.33398 -50.667 -41.001 -56c-15.333 -2.66699 -28.333 -0.666992 -39 6s-17.334 17.667 -20.001 33l-26 174h-101l-26 -174
c-2.66699 -15.333 -9.33398 -26.333 -20.001 -33s-23.667 -8.66699 -39 -6zM260.005 736c-32 0 -48.001 14 -48.001 42v34c0 13.333 4.33301 23.666 13 30.999s20.334 11 35.001 11c14 0 25.167 -3.66699 33.5 -11s12.5 -17.666 12.5 -30.999v-34c0 -28 -15.333 -42 -46 -42
zM137.004 736c-14 0 -25.333 3.66797 -34 11.001s-13 17.666 -13 30.999v34c0 13.333 4.33301 23.666 13 30.999s20 11 34 11s25.333 -3.66699 34 -11s13 -17.666 13 -30.999v-34c0 -28 -15.667 -42 -47 -42zM156.004 271.001h83l-41 274z" />
    <glyph glyph-name="Aring" unicode="&#xc5;" horiz-adv-x="395" 
d="M166 761c0 8.66699 2.66699 16 8 22s11.5 9 18.5 9c6.33301 0 12.166 -3 17.499 -9s8 -13.333 8 -22s-2.66699 -16 -8 -22s-11.5 -9 -18.5 -9c-6.33301 0 -12.166 3 -17.499 9s-8 13.333 -8 22zM115.5 759c0.333008 -33.333 7.83301 -54.833 22.5 -64.5
s32.834 -14.5 54.501 -14.5c21 0 39 4.16699 54 12.5s22.333 30 22 65s-7.83301 57.167 -22.5 66.5s-32.834 14 -54.501 14c-21 0 -39 -4.83301 -54 -14.5s-22.333 -31.167 -22 -64.5zM62 -2c-32.667 5.33301 -46.3291 24 -40.9961 56l89 563
c5.33301 38 34.666 57 87.999 57c52.667 0 81.667 -19 87 -57l89 -563c5.33301 -32 -8.33398 -50.667 -41.001 -56c-15.333 -2.66699 -28.333 -0.666992 -39 6s-17.334 17.667 -20.001 33l-26 174h-101l-26 -174c-2.66699 -15.333 -9.33398 -26.333 -20.001 -33
s-23.667 -8.66699 -39 -6zM156.005 271h83l-41 274z" />
    <glyph glyph-name="AE" unicode="&#xc6;" horiz-adv-x="523" 
d="M63 -1c-34.667 6.66699 -48.332 26 -40.999 58l130 554c4.66699 22 13.667 37.333 27 46s33 13 59 13h212c15.333 0 27.166 -5 35.499 -15s12.5 -23 12.5 -39s-4.16699 -28.833 -12.5 -38.5s-20.166 -14.5 -35.499 -14.5h-96v-182h76c15.333 0 26.333 -3.5 33 -10.5
s10 -18.167 10 -33.5s-3.33301 -26.333 -10 -33s-17.667 -10 -33 -10h-76v-187h101c15.333 0 27.166 -5 35.499 -15s12.5 -23 12.5 -39s-4.16699 -28.833 -12.5 -38.5s-20.166 -14.5 -35.499 -14.5h-164c-29.333 0 -44 16 -44 48v163h-84l-41 -174
c-6.66699 -30 -26.334 -42.667 -59.001 -38zM178.002 271h69v292z" />
    <glyph glyph-name="Ccedilla" unicode="&#xc7;" 
d="M130 -174c-14.667 0 -25.667 4.16699 -33 12.5s-11 19.5 -11 33.5c0 30 14.333 45 43 45h72c7.33301 0 11 3.66699 11 11s-3.66699 11 -11 11h-52c-7.33301 0 -12.833 2.16699 -16.5 6.5s-4.5 9.83301 -2.5 16.5l10 34c-80 5.33301 -120 52.333 -120 141v376
c0 52.667 10.167 92.667 30.5 120s54.166 41 101.499 41h28c47.333 0 81.166 -13.833 101.499 -41.5s30.5 -67.834 30.5 -120.501v-71c0 -15.333 -4.83301 -27.166 -14.5 -35.499s-22.5 -12.5 -38.5 -12.5s-29 4.16699 -39 12.5s-15 20.166 -15 35.499v96
c0 11.333 -3.66699 20.5 -11 27.5s-16.666 10.5 -27.999 10.5s-20.666 -3.5 -27.999 -10.5s-11 -16.167 -11 -27.5v-405c0 -25.333 13 -38 39 -38s39 12.667 39 38v91c0 15.333 5 27.166 15 35.499s23 12.5 39 12.5s28.833 -4.16699 38.5 -12.5s14.5 -20.166 14.5 -35.499
v-86c0 -46 -10.833 -80.667 -32.5 -104s-51.834 -35.666 -90.501 -36.999l-5 -14h18c20.667 0 37.834 -7.16699 51.501 -21.5s20.5 -33.166 20.5 -56.499c0 -22.667 -8.5 -41.334 -25.5 -56.001s-36.167 -22 -57.5 -22h-61z" />
    <glyph glyph-name="Egrave" unicode="&#xc8;" horiz-adv-x="286" 
d="M64 0c-29.333 0 -44 16 -44 48v574c0 32 14.667 48 44 48h159c15.333 0 27.166 -5 35.499 -15s12.5 -23 12.5 -39s-4.16699 -28.833 -12.5 -38.5s-20.166 -14.5 -35.499 -14.5h-96v-182h76c15.333 0 26.333 -3.5 33 -10.5s10 -18.167 10 -33.5s-3.33301 -26.333 -10 -33
s-17.667 -10 -33 -10h-76v-187h101c15.333 0 27.166 -5 35.499 -15s12.5 -23 12.5 -39s-4.16699 -28.833 -12.5 -38.5s-20.166 -14.5 -35.499 -14.5h-164zM80 768c-24 20 -28 41.334 -12 64.001c8.66699 12 19.167 18.5 31.5 19.5s23.833 -3.16699 34.5 -12.5l68 -57
c23.333 -20 27 -41.333 11 -64c-18 -24.667 -39 -27.334 -63 -8.00098z" />
    <glyph glyph-name="Eacute" unicode="&#xc9;" horiz-adv-x="286" 
d="M64 0c-29.333 0 -44 16 -44 48v574c0 32 14.667 48 44 48h159c15.333 0 27.166 -5 35.499 -15s12.5 -23 12.5 -39s-4.16699 -28.833 -12.5 -38.5s-20.166 -14.5 -35.499 -14.5h-96v-182h76c15.333 0 26.333 -3.5 33 -10.5s10 -18.167 10 -33.5s-3.33301 -26.333 -10 -33
s-17.667 -10 -33 -10h-76v-187h101c15.333 0 27.166 -5 35.499 -15s12.5 -23 12.5 -39s-4.16699 -28.833 -12.5 -38.5s-20.166 -14.5 -35.499 -14.5h-164zM121 713c-24 -19.333 -45 -16.667 -63 8c-16 22.667 -12.333 44 11 64l68 57c10.667 9.33301 22.167 13.5 34.5 12.5
s22.833 -7.5 31.5 -19.5c16 -22.667 12 -44 -12 -64z" />
    <glyph glyph-name="Ecircumflex" unicode="&#xca;" horiz-adv-x="286" 
d="M64 0c-29.333 0 -44 16 -44 48v574c0 32 14.667 48 44 48h159c15.333 0 27.166 -5 35.499 -15s12.5 -23 12.5 -39s-4.16699 -28.833 -12.5 -38.5s-20.166 -14.5 -35.499 -14.5h-96v-182h76c15.333 0 26.333 -3.5 33 -10.5s10 -18.167 10 -33.5s-3.33301 -26.333 -10 -33
s-17.667 -10 -33 -10h-76v-187h101c15.333 0 27.166 -5 35.499 -15s12.5 -23 12.5 -39s-4.16699 -28.833 -12.5 -38.5s-20.166 -14.5 -35.499 -14.5h-164zM89 711c-20 -20.667 -40.666 -19.667 -61.999 3c-16.667 18.667 -15 39 5 61l54 59c15.333 16 34.666 24 57.999 24
c24 0 43 -8 57 -24l54 -59c20 -22 21.667 -42.333 5 -61c-22 -23.333 -42.667 -24.333 -62 -3l-54 59z" />
    <glyph glyph-name="Edieresis" unicode="&#xcb;" horiz-adv-x="286" 
d="M64 0c-29.333 0 -44 16 -44 48v574c0 32 14.667 48 44 48h159c15.333 0 27.166 -5 35.499 -15s12.5 -23 12.5 -39s-4.16699 -28.833 -12.5 -38.5s-20.166 -14.5 -35.499 -14.5h-96v-182h76c15.333 0 26.333 -3.5 33 -10.5s10 -18.167 10 -33.5s-3.33301 -26.333 -10 -33
s-17.667 -10 -33 -10h-76v-187h101c15.333 0 27.166 -5 35.499 -15s12.5 -23 12.5 -39s-4.16699 -28.833 -12.5 -38.5s-20.166 -14.5 -35.499 -14.5h-164zM206 736c-32 0 -48.001 14 -48.001 42v34c0 13.333 4.33301 23.666 13 30.999s20.334 11 35.001 11
c14 0 25.167 -3.66699 33.5 -11s12.5 -17.666 12.5 -30.999v-34c0 -28 -15.333 -42 -46 -42zM82.999 736c-14 0 -25.333 3.66797 -34 11.001s-13 17.666 -13 30.999v34c0 13.333 4.33301 23.666 13 30.999s20 11 34 11s25.333 -3.66699 34 -11s13 -17.666 13 -30.999v-34
c0 -28 -15.667 -42 -47 -42z" />
    <glyph glyph-name="Igrave" unicode="&#xcc;" horiz-adv-x="167" 
d="M84 -4c-16 0 -29 4.16699 -39 12.5s-15 20.166 -15 35.499v582c0 15.333 5 27.166 15 35.499s23 12.5 39 12.5s28.833 -4.16699 38.5 -12.5s14.5 -20.166 14.5 -35.499v-582c0 -15.333 -4.83301 -27.166 -14.5 -35.499s-22.5 -12.5 -38.5 -12.5zM20 768
c-24 20 -28 41.334 -12 64.001c8.66699 12 19.167 18.5 31.5 19.5s23.833 -3.16699 34.5 -12.5l68 -57c23.333 -20 27 -41.333 11 -64c-18 -24.667 -39 -27.334 -63 -8.00098z" />
    <glyph glyph-name="Iacute" unicode="&#xcd;" horiz-adv-x="167" 
d="M84 -4c-16 0 -29 4.16699 -39 12.5s-15 20.166 -15 35.499v582c0 15.333 5 27.166 15 35.499s23 12.5 39 12.5s28.833 -4.16699 38.5 -12.5s14.5 -20.166 14.5 -35.499v-582c0 -15.333 -4.83301 -27.166 -14.5 -35.499s-22.5 -12.5 -38.5 -12.5zM61 713
c-24 -19.333 -45 -16.667 -63 8c-16 22.667 -12.333 44 11 64l68 57c10.667 9.33301 22.167 13.5 34.5 12.5s22.833 -7.5 31.5 -19.5c16 -22.667 12 -44 -12 -64z" />
    <glyph glyph-name="Icircumflex" unicode="&#xce;" horiz-adv-x="167" 
d="M84 -4c-16 0 -29 4.16699 -39 12.5s-15 20.166 -15 35.499v582c0 15.333 5 27.166 15 35.499s23 12.5 39 12.5s28.833 -4.16699 38.5 -12.5s14.5 -20.166 14.5 -35.499v-582c0 -15.333 -4.83301 -27.166 -14.5 -35.499s-22.5 -12.5 -38.5 -12.5zM29 711
c-20 -20.667 -40.666 -19.667 -61.999 3c-16.667 18.667 -15 39 5 61l54 59c15.333 16 34.666 24 57.999 24c24 0 43 -8 57 -24l54 -59c20 -22 21.667 -42.333 5 -61c-22 -23.333 -42.667 -24.333 -62 -3l-54 59z" />
    <glyph glyph-name="Idieresis" unicode="&#xcf;" horiz-adv-x="167" 
d="M84 -4c-16 0 -29 4.16699 -39 12.5s-15 20.166 -15 35.499v582c0 15.333 5 27.166 15 35.499s23 12.5 39 12.5s28.833 -4.16699 38.5 -12.5s14.5 -20.166 14.5 -35.499v-582c0 -15.333 -4.83301 -27.166 -14.5 -35.499s-22.5 -12.5 -38.5 -12.5zM146 736
c-32 0 -48.001 14 -48.001 42v34c0 13.333 4.33301 23.666 13 30.999s20.334 11 35.001 11c14 0 25.167 -3.66699 33.5 -11s12.5 -17.666 12.5 -30.999v-34c0 -28 -15.333 -42 -46 -42zM22.999 736c-14 0 -25.333 3.66797 -34 11.001s-13 17.666 -13 30.999v34
c0 13.333 4.33301 23.666 13 30.999s20 11 34 11s25.333 -3.66699 34 -11s13 -17.666 13 -30.999v-34c0 -28 -15.667 -42 -47 -42z" />
    <glyph glyph-name="Ntilde" unicode="&#xd1;" horiz-adv-x="362" 
d="M27 715c5.33301 -6 9.33301 -9.99902 12 -11.999s6.33398 -4.33301 11.001 -7s9.5 -3.5 14.5 -2.5s10.5 3.5 16.5 7.5c4.66699 2.66699 12.334 8.33398 23.001 17.001s19 13.667 25 15c3.33301 0.666992 15.666 -6.33301 36.999 -21s39.666 -22.334 54.999 -23.001
c10 0 27 4.83301 51 14.5s42.5 22.5 55.5 38.5c14.333 17.333 12.833 35.666 -4.5 54.999c-10.667 12 -22.5 18 -35.5 18s-22.333 -3.5 -28 -10.5s-12.334 -14.167 -20.001 -21.5s-14.5 -11 -20.5 -11c-4 0 -9.33301 3.66699 -16 11s-19.167 14.5 -37.5 21.5
s-38.666 10.167 -60.999 9.5s-44.5 -13.667 -66.5 -39c-21.333 -24.667 -25 -44.667 -11 -60zM74 -3.99902c-16 0 -29 4.16699 -39 12.5s-15 20.166 -15 35.499v582c0 15.333 5 27.166 15 35.499s23 12.5 39 12.5c29.333 0 47 -11.333 53 -34l98 -357v343
c0 15.333 5 27.166 15 35.499s23 12.5 39 12.5s28.833 -4.16699 38.5 -12.5s14.5 -20.166 14.5 -35.499v-582c0 -15.333 -4.83301 -27.166 -14.5 -35.499s-22.5 -12.5 -38.5 -12.5c-26 0 -42.333 13.333 -49 40l-103 369v-361c0 -15.333 -4.83301 -27.166 -14.5 -35.499
s-22.5 -12.5 -38.5 -12.5z" />
    <glyph glyph-name="Ograve" unicode="&#xd2;" horiz-adv-x="342" 
d="M157 -4c-41.333 0 -73.666 11.501 -96.999 34.501s-35 58.5 -35 106.5v376c0 52.667 10.167 92.667 30.5 120s54.166 41 101.499 41h28c47.333 0 81.166 -13.833 101.499 -41.5s30.5 -67.834 30.5 -120.501v-375c0 -48 -11.667 -83.5 -35 -106.5
s-55.666 -34.5 -96.999 -34.5h-28zM171 94.001c26 0 38.998 12.667 38.998 38v405c0 11.333 -3.66699 20.5 -11 27.5s-16.666 10.5 -27.999 10.5s-20.666 -3.5 -27.999 -10.5s-11 -16.167 -11 -27.5v-405c0 -25.333 13 -38 39 -38zM106.998 768.001
c-24 20 -28 41.334 -12 64.001c8.66699 12 19.167 18.5 31.5 19.5s23.833 -3.16699 34.5 -12.5l68 -57c23.333 -20 27 -41.333 11 -64c-18 -24.667 -39 -27.334 -63 -8.00098z" />
    <glyph glyph-name="Oacute" unicode="&#xd3;" horiz-adv-x="342" 
d="M157 -4c-41.333 0 -73.666 11.501 -96.999 34.501s-35 58.5 -35 106.5v376c0 52.667 10.167 92.667 30.5 120s54.166 41 101.499 41h28c47.333 0 81.166 -13.833 101.499 -41.5s30.5 -67.834 30.5 -120.501v-375c0 -48 -11.667 -83.5 -35 -106.5
s-55.666 -34.5 -96.999 -34.5h-28zM171 94.001c26 0 38.998 12.667 38.998 38v405c0 11.333 -3.66699 20.5 -11 27.5s-16.666 10.5 -27.999 10.5s-20.666 -3.5 -27.999 -10.5s-11 -16.167 -11 -27.5v-405c0 -25.333 13 -38 39 -38zM147.998 713.001
c-24 -19.333 -45 -16.667 -63 8c-16 22.667 -12.333 44 11 64l68 57c10.667 9.33301 22.167 13.5 34.5 12.5s22.833 -7.5 31.5 -19.5c16 -22.667 12 -44 -12 -64z" />
    <glyph glyph-name="Ocircumflex" unicode="&#xd4;" horiz-adv-x="342" 
d="M157 -4c-41.333 0 -73.666 11.501 -96.999 34.501s-35 58.5 -35 106.5v376c0 52.667 10.167 92.667 30.5 120s54.166 41 101.499 41h28c47.333 0 81.166 -13.833 101.499 -41.5s30.5 -67.834 30.5 -120.501v-375c0 -48 -11.667 -83.5 -35 -106.5
s-55.666 -34.5 -96.999 -34.5h-28zM171 94.001c26 0 38.998 12.667 38.998 38v405c0 11.333 -3.66699 20.5 -11 27.5s-16.666 10.5 -27.999 10.5s-20.666 -3.5 -27.999 -10.5s-11 -16.167 -11 -27.5v-405c0 -25.333 13 -38 39 -38zM115.998 711.001
c-20 -20.667 -40.666 -19.667 -61.999 3c-16.667 18.667 -15 39 5 61l54 59c15.333 16 34.666 24 57.999 24c24 0 43 -8 57 -24l54 -59c20 -22 21.667 -42.333 5 -61c-22 -23.333 -42.667 -24.333 -62 -3l-54 59z" />
    <glyph glyph-name="Otilde" unicode="&#xd5;" horiz-adv-x="342" 
d="M45 713c5.33301 -6 9.33496 -10 12.002 -12s6.33398 -4.33301 11.001 -7s9.5 -3.5 14.5 -2.5s10.5 3.5 16.5 7.5c4.66699 2.66699 10 8.33398 16 17.001s12 13.667 18 15c3.33301 0.666992 12.166 -6.33301 26.499 -21s29.166 -22.334 44.499 -23.001
c10 0 25.167 4.83301 45.5 14.5s37 22.5 50 38.5s11.5 34.333 -4.5 55c-10.667 12 -20.667 18 -30 18s-16.833 -3.5 -22.5 -10.5s-12.334 -14.167 -20.001 -21.5s-14.5 -11 -20.5 -11c-4 0 -9.33301 3.66699 -16 11s-15.667 14.5 -27 21.5s-25.333 10.167 -42 9.5
c-18.667 -0.666992 -39 -13.667 -61 -39s-25.667 -45.333 -11 -60zM157.002 -4c-41.333 0 -73.666 11.501 -96.999 34.501s-35 58.5 -35 106.5v376c0 52.667 10.167 92.667 30.5 120s54.166 41 101.499 41h28c47.333 0 81.166 -13.833 101.499 -41.5
s30.5 -67.834 30.5 -120.501v-375c0 -48 -11.667 -83.5 -35 -106.5s-55.666 -34.5 -96.999 -34.5h-28zM171.002 94.001c26 0 38.998 12.667 38.998 38v405c0 11.333 -3.66699 20.5 -11 27.5s-16.666 10.5 -27.999 10.5s-20.666 -3.5 -27.999 -10.5s-11 -16.167 -11 -27.5
v-405c0 -25.333 13 -38 39 -38z" />
    <glyph glyph-name="Odieresis" unicode="&#xd6;" horiz-adv-x="342" 
d="M157 -4c-41.333 0 -73.666 11.501 -96.999 34.501s-35 58.5 -35 106.5v376c0 52.667 10.167 92.667 30.5 120s54.166 41 101.499 41h28c47.333 0 81.166 -13.833 101.499 -41.5s30.5 -67.834 30.5 -120.501v-375c0 -48 -11.667 -83.5 -35 -106.5
s-55.666 -34.5 -96.999 -34.5h-28zM171 94.001c26 0 38.998 12.667 38.998 38v405c0 11.333 -3.66699 20.5 -11 27.5s-16.666 10.5 -27.999 10.5s-20.666 -3.5 -27.999 -10.5s-11 -16.167 -11 -27.5v-405c0 -25.333 13 -38 39 -38zM232.998 736.001
c-32 0 -48.001 14 -48.001 42v34c0 13.333 4.33301 23.666 13 30.999s20.334 11 35.001 11c14 0 25.167 -3.66699 33.5 -11s12.5 -17.666 12.5 -30.999v-34c0 -28 -15.333 -42 -46 -42zM109.997 736.001c-14 0 -25.333 3.66797 -34 11.001s-13 17.666 -13 30.999v34
c0 13.333 4.33301 23.666 13 30.999s20 11 34 11s25.333 -3.66699 34 -11s13 -17.666 13 -30.999v-34c0 -28 -15.667 -42 -47 -42z" />
    <glyph glyph-name="multiply" unicode="&#xd7;" horiz-adv-x="374" 
d="M111 99c-22.667 -22.667 -46.666 -21.333 -71.999 4c-24.667 24.667 -25.667 48.667 -3 72l80 75l-81 77c-22 22 -20.667 45.667 4 71c10.667 11.333 22.5 17.5 35.5 18.5s25.167 -3.83301 36.5 -14.5l76 -81l76 81c23.333 22.667 47.333 21.667 72 -3
c25.333 -25.333 26.666 -49.333 3.99902 -72l-81 -76l80 -76c10.667 -11.333 15.5 -23.5 14.5 -36.5s-7.16699 -24.833 -18.5 -35.5c-25.333 -24.667 -49 -26 -71 -4l-76 80z" />
    <glyph glyph-name="Oslash" unicode="&#xd8;" horiz-adv-x="342" 
d="M35.7471 16.8936c-14.6279 6.09473 -24.9932 14.958 -31.1006 26.5879s-6.16016 24.4287 -0.158203 38.3965l233.795 549.812c6.00293 13.9678 15.1748 22.9453 27.5156 26.9326c12.3428 3.9873 25.8271 2.93359 40.4541 -3.16113
c32.3701 -13.9746 42.46 -35.5889 30.2695 -64.8438l-233.934 -550.803c-6.00293 -13.9678 -14.9873 -22.8037 -26.9531 -26.5078c-11.9648 -3.7041 -25.2607 -2.50879 -39.8887 3.58594zM157.002 -3.99902c-41.333 0 -73.666 11.501 -96.999 34.501s-35 58.5 -35 106.5v376
c0 52.667 10.167 92.667 30.5 120s54.166 41 101.499 41h28c47.333 0 81.166 -13.833 101.499 -41.5s30.5 -67.834 30.5 -120.501v-375c0 -48 -11.667 -83.5 -35 -106.5s-55.666 -34.5 -96.999 -34.5h-28zM171.002 94.002c26 0 38.998 12.667 38.998 38v405
c0 11.333 -3.66699 20.5 -11 27.5s-16.666 10.5 -27.999 10.5s-20.666 -3.5 -27.999 -10.5s-11 -16.167 -11 -27.5v-405c0 -25.333 13 -38 39 -38z" />
    <glyph glyph-name="Ugrave" unicode="&#xd9;" 
d="M152 -4c-41.333 0 -73.668 11.5 -97.001 34.5s-35 58.5 -35 106.5v490c0 15.333 5 27.166 15 35.499s23 12.5 39 12.5s28.833 -4.16699 38.5 -12.5s14.5 -20.166 14.5 -35.499v-495c0 -25.333 13 -38 39 -38s39 12.667 39 38v494c0 15.333 5 27.166 15 35.499
s23 12.5 39 12.5s28.833 -4.16699 38.5 -12.5s14.5 -20.166 14.5 -35.499v-489c0 -48 -11.667 -83.5 -35 -106.5s-55.666 -34.5 -96.999 -34.5h-28zM101.998 768c-24 20 -28 41.334 -12 64.001c8.66699 12 19.167 18.5 31.5 19.5s23.833 -3.16699 34.5 -12.5l68 -57
c23.333 -20 27 -41.333 11 -64c-18 -24.667 -39 -27.334 -63 -8.00098z" />
    <glyph glyph-name="Uacute" unicode="&#xda;" 
d="M152 -4c-41.333 0 -73.668 11.5 -97.001 34.5s-35 58.5 -35 106.5v490c0 15.333 5 27.166 15 35.499s23 12.5 39 12.5s28.833 -4.16699 38.5 -12.5s14.5 -20.166 14.5 -35.499v-495c0 -25.333 13 -38 39 -38s39 12.667 39 38v494c0 15.333 5 27.166 15 35.499
s23 12.5 39 12.5s28.833 -4.16699 38.5 -12.5s14.5 -20.166 14.5 -35.499v-489c0 -48 -11.667 -83.5 -35 -106.5s-55.666 -34.5 -96.999 -34.5h-28zM142.998 713c-24 -19.333 -45 -16.667 -63 8c-16 22.667 -12.333 44 11 64l68 57c10.667 9.33301 22.167 13.5 34.5 12.5
s22.833 -7.5 31.5 -19.5c16 -22.667 12 -44 -12 -64z" />
    <glyph glyph-name="Ucircumflex" unicode="&#xdb;" 
d="M152 -4c-41.333 0 -73.668 11.5 -97.001 34.5s-35 58.5 -35 106.5v490c0 15.333 5 27.166 15 35.499s23 12.5 39 12.5s28.833 -4.16699 38.5 -12.5s14.5 -20.166 14.5 -35.499v-495c0 -25.333 13 -38 39 -38s39 12.667 39 38v494c0 15.333 5 27.166 15 35.499
s23 12.5 39 12.5s28.833 -4.16699 38.5 -12.5s14.5 -20.166 14.5 -35.499v-489c0 -48 -11.667 -83.5 -35 -106.5s-55.666 -34.5 -96.999 -34.5h-28zM110.998 711c-20 -20.667 -40.666 -19.667 -61.999 3c-16.667 18.667 -15 39 5 61l54 59c15.333 16 34.666 24 57.999 24
c24 0 43 -8 57 -24l54 -59c20 -22 21.667 -42.333 5 -61c-22 -23.333 -42.667 -24.333 -62 -3l-54 59z" />
    <glyph glyph-name="Udieresis" unicode="&#xdc;" 
d="M152 -4c-41.333 0 -73.668 11.5 -97.001 34.5s-35 58.5 -35 106.5v490c0 15.333 5 27.166 15 35.499s23 12.5 39 12.5s28.833 -4.16699 38.5 -12.5s14.5 -20.166 14.5 -35.499v-495c0 -25.333 13 -38 39 -38s39 12.667 39 38v494c0 15.333 5 27.166 15 35.499
s23 12.5 39 12.5s28.833 -4.16699 38.5 -12.5s14.5 -20.166 14.5 -35.499v-489c0 -48 -11.667 -83.5 -35 -106.5s-55.666 -34.5 -96.999 -34.5h-28zM227.998 736c-32 0 -48.001 14 -48.001 42v34c0 13.333 4.33301 23.666 13 30.999s20.334 11 35.001 11
c14 0 25.167 -3.66699 33.5 -11s12.5 -17.666 12.5 -30.999v-34c0 -28 -15.333 -42 -46 -42zM104.997 736c-14 0 -25.333 3.66797 -34 11.001s-13 17.666 -13 30.999v34c0 13.333 4.33301 23.666 13 30.999s20 11 34 11s25.333 -3.66699 34 -11s13 -17.666 13 -30.999v-34
c0 -28 -15.667 -42 -47 -42z" />
    <glyph glyph-name="Yacute" unicode="&#xdd;" horiz-adv-x="407" 
d="M184 698c-24 -19.333 -45 -16.667 -63 8c-16 22.667 -12.333 44 11 64l68 57c10.667 9.33301 22.167 13.5 34.5 12.5s22.833 -7.5 31.5 -19.5c16 -22.667 12 -44 -12 -64zM205 -4.00098c-16 0 -28.999 4.16699 -38.999 12.5s-15 20.166 -15 35.499v195l-132 371
c-5.33301 14.667 -4.16602 28.167 3.50098 40.5s19.5 19.833 35.5 22.5c33.333 5.33301 54.666 -7.66699 63.999 -39l82 -281l81 281c9.33301 31.333 30.666 44.333 63.999 39c15.333 -2.66699 26.833 -10.167 34.5 -22.5s9.16699 -25.833 4.5 -40.5l-130 -371v-195
c0 -15.333 -4.83301 -27.166 -14.5 -35.499s-22.5 -12.5 -38.5 -12.5z" />
    <glyph glyph-name="agrave" unicode="&#xe0;" horiz-adv-x="327" 
d="M259 -4c-39.333 0 -59.0049 18 -59.0049 54v37c-3.33301 -22 -13 -42.667 -29 -62s-36 -29 -60 -29c-28 0 -50.167 7.83301 -66.5 23.5s-24.5 35.167 -24.5 58.5v59c0 24.667 6.16699 46.5 18.5 65.5s27.333 34.333 45 46s35.334 22.834 53.001 33.501s32.667 23 45 37
s18.5 29.667 18.5 47v1c0 9.33301 -3.66699 18 -11 26s-16.666 12 -27.999 12s-20.666 -3.5 -27.999 -10.5s-11 -16.167 -11 -27.5v-32c0 -16 -4.5 -28.167 -13.5 -36.5s-21.5 -12.5 -37.5 -12.5c-14.667 0 -26.834 4.5 -36.501 13.5s-14.5 22.167 -14.5 39.5v42
c0 34 11.833 63 35.5 87s56.834 36 99.501 36h17c38.667 0 70.834 -12.333 96.501 -37s38.5 -53.334 38.5 -86.001v-347c0 -11.333 -4.16699 -20.5 -12.5 -27.5s-20.166 -10.5 -35.499 -10.5zM99.9951 598c-24 20 -28 41.334 -12 64.001c8.66699 12 19.167 18.5 31.5 19.5
s23.833 -3.16699 34.5 -12.5l68 -57c23.333 -20 27 -41.333 11 -64c-18 -24.667 -39 -27.334 -63 -8.00098zM126.995 130.001c0 -20.667 11 -31 33 -31c26.667 0 40 19.667 40 59v78c-26 -19.333 -44.667 -35.333 -56 -48s-17 -26.667 -17 -42v-16z" />
    <glyph glyph-name="aacute" unicode="&#xe1;" horiz-adv-x="327" 
d="M259 -4c-39.333 0 -59.0049 18 -59.0049 54v37c-3.33301 -22 -13 -42.667 -29 -62s-36 -29 -60 -29c-28 0 -50.167 7.83301 -66.5 23.5s-24.5 35.167 -24.5 58.5v59c0 24.667 6.16699 46.5 18.5 65.5s27.333 34.333 45 46s35.334 22.834 53.001 33.501s32.667 23 45 37
s18.5 29.667 18.5 47v1c0 9.33301 -3.66699 18 -11 26s-16.666 12 -27.999 12s-20.666 -3.5 -27.999 -10.5s-11 -16.167 -11 -27.5v-32c0 -16 -4.5 -28.167 -13.5 -36.5s-21.5 -12.5 -37.5 -12.5c-14.667 0 -26.834 4.5 -36.501 13.5s-14.5 22.167 -14.5 39.5v42
c0 34 11.833 63 35.5 87s56.834 36 99.501 36h17c38.667 0 70.834 -12.333 96.501 -37s38.5 -53.334 38.5 -86.001v-347c0 -11.333 -4.16699 -20.5 -12.5 -27.5s-20.166 -10.5 -35.499 -10.5zM140.995 543c-24 -19.333 -45 -16.667 -63 8c-16 22.667 -12.333 44 11 64l68 57
c10.667 9.33301 22.167 13.5 34.5 12.5s22.833 -7.5 31.5 -19.5c16 -22.667 12 -44 -12 -64zM126.995 129.999c0 -20.667 11 -31 33 -31c26.667 0 40 19.667 40 59v78c-26 -19.333 -44.667 -35.333 -56 -48s-17 -26.667 -17 -42v-16z" />
    <glyph glyph-name="acircumflex" unicode="&#xe2;" horiz-adv-x="327" 
d="M259 -4c-39.333 0 -59.0049 18 -59.0049 54v37c-3.33301 -22 -13 -42.667 -29 -62s-36 -29 -60 -29c-28 0 -50.167 7.83301 -66.5 23.5s-24.5 35.167 -24.5 58.5v59c0 24.667 6.16699 46.5 18.5 65.5s27.333 34.333 45 46s35.334 22.834 53.001 33.501s32.667 23 45 37
s18.5 29.667 18.5 47v1c0 9.33301 -3.66699 18 -11 26s-16.666 12 -27.999 12s-20.666 -3.5 -27.999 -10.5s-11 -16.167 -11 -27.5v-32c0 -16 -4.5 -28.167 -13.5 -36.5s-21.5 -12.5 -37.5 -12.5c-14.667 0 -26.834 4.5 -36.501 13.5s-14.5 22.167 -14.5 39.5v42
c0 34 11.833 63 35.5 87s56.834 36 99.501 36h17c38.667 0 70.834 -12.333 96.501 -37s38.5 -53.334 38.5 -86.001v-347c0 -11.333 -4.16699 -20.5 -12.5 -27.5s-20.166 -10.5 -35.499 -10.5zM108.995 541c-20 -20.667 -40.666 -19.667 -61.999 3
c-16.667 18.667 -15 39 5 61l54 59c15.333 16 34.666 24 57.999 24c24 0 43 -8 57 -24l54 -59c20 -22 21.667 -42.333 5 -61c-22 -23.333 -42.667 -24.333 -62 -3l-54 59zM126.996 130c0 -20.667 11 -31 33 -31c26.667 0 40 19.667 40 59v78
c-26 -19.333 -44.667 -35.333 -56 -48s-17 -26.667 -17 -42v-16z" />
    <glyph glyph-name="atilde" unicode="&#xe3;" horiz-adv-x="327" 
d="M36 556c5.33301 -6 9.33496 -10 12.002 -12s6.33398 -4.33301 11.001 -7s9.5 -3.5 14.5 -2.5s10.5 3.5 16.5 7.5c4.66699 2.66699 10 8.33398 16 17.001s12 13.667 18 15c3.33301 0.666992 12.166 -6.33301 26.499 -21s29.166 -22.334 44.499 -23.001
c10 0 25.167 4.83301 45.5 14.5s37 22.5 50 38.5s11.5 34.333 -4.5 55c-10.667 12 -20.667 18 -30 18s-16.833 -3.5 -22.5 -10.5s-12.334 -14.167 -20.001 -21.5s-14.5 -11 -20.5 -11c-4 0 -9.33301 3.66699 -16 11s-15.667 14.5 -27 21.5s-25.333 10.167 -42 9.5
c-18.667 -0.666992 -39 -13.667 -61 -39s-25.667 -45.333 -11 -60zM259.002 -4c-39.333 0 -59.0049 18 -59.0049 54v37c-3.33301 -22 -13 -42.667 -29 -62s-36 -29 -60 -29c-28 0 -50.167 7.83301 -66.5 23.5s-24.5 35.167 -24.5 58.5v59c0 24.667 6.16699 46.5 18.5 65.5
s27.333 34.333 45 46s35.334 22.834 53.001 33.501s32.667 23 45 37s18.5 29.667 18.5 47v1c0 9.33301 -3.66699 18 -11 26s-16.666 12 -27.999 12s-20.666 -3.5 -27.999 -10.5s-11 -16.167 -11 -27.5v-32c0 -16 -4.5 -28.167 -13.5 -36.5s-21.5 -12.5 -37.5 -12.5
c-14.667 0 -26.834 4.5 -36.501 13.5s-14.5 22.167 -14.5 39.5v42c0 34 11.833 63 35.5 87s56.834 36 99.501 36h17c38.667 0 70.834 -12.333 96.501 -37s38.5 -53.334 38.5 -86.001v-347c0 -11.333 -4.16699 -20.5 -12.5 -27.5s-20.166 -10.5 -35.499 -10.5zM126.997 130
c0 -20.667 11 -31 33 -31c26.667 0 40 19.667 40 59v78c-26 -19.333 -44.667 -35.333 -56 -48s-17 -26.667 -17 -42v-16z" />
    <glyph glyph-name="adieresis" unicode="&#xe4;" horiz-adv-x="327" 
d="M259 -4c-39.333 0 -59.0049 18 -59.0049 54v37c-3.33301 -22 -13 -42.667 -29 -62s-36 -29 -60 -29c-28 0 -50.167 7.83301 -66.5 23.5s-24.5 35.167 -24.5 58.5v59c0 24.667 6.16699 46.5 18.5 65.5s27.333 34.333 45 46s35.334 22.834 53.001 33.501s32.667 23 45 37
s18.5 29.667 18.5 47v1c0 9.33301 -3.66699 18 -11 26s-16.666 12 -27.999 12s-20.666 -3.5 -27.999 -10.5s-11 -16.167 -11 -27.5v-32c0 -16 -4.5 -28.167 -13.5 -36.5s-21.5 -12.5 -37.5 -12.5c-14.667 0 -26.834 4.5 -36.501 13.5s-14.5 22.167 -14.5 39.5v42
c0 34 11.833 63 35.5 87s56.834 36 99.501 36h17c38.667 0 70.834 -12.333 96.501 -37s38.5 -53.334 38.5 -86.001v-347c0 -11.333 -4.16699 -20.5 -12.5 -27.5s-20.166 -10.5 -35.499 -10.5zM225.995 566c-32 0 -48.001 14 -48.001 42v34
c0 13.333 4.33301 23.666 13 30.999s20.334 11 35.001 11c14 0 25.167 -3.66699 33.5 -11s12.5 -17.666 12.5 -30.999v-34c0 -28 -15.333 -42 -46 -42zM102.994 566c-14 0 -25.333 3.66797 -34 11.001s-13 17.666 -13 30.999v34c0 13.333 4.33301 23.666 13 30.999
s20 11 34 11s25.333 -3.66699 34 -11s13 -17.666 13 -30.999v-34c0 -28 -15.667 -42 -47 -42zM126.994 130.001c0 -20.667 11 -31 33 -31c26.667 0 40 19.667 40 59v78c-26 -19.333 -44.667 -35.333 -56 -48s-17 -26.667 -17 -42v-16z" />
    <glyph glyph-name="aring" unicode="&#xe5;" horiz-adv-x="327" 
d="M124 604c0 8.66699 2.66699 16 8 22s11.5 9 18.5 9c6.33301 0 12.166 -3 17.499 -9s8 -13.333 8 -22s-2.66699 -16 -8 -22s-11.5 -9 -18.5 -9c-6.33301 0 -12.166 3 -17.499 9s-8 13.333 -8 22zM73.5 602c0.333008 -33.333 7.83301 -54.833 22.5 -64.5
s32.834 -14.5 54.501 -14.5c21 0 39 4.16699 54 12.5s22.333 30 22 65s-7.83301 57.167 -22.5 66.5s-32.834 14 -54.501 14c-21 0 -39 -4.83301 -54 -14.5s-22.333 -31.167 -22 -64.5zM259 -4c-39.333 0 -59.0049 18 -59.0049 54v37c-3.33301 -22 -13 -42.667 -29 -62
s-36 -29 -60 -29c-28 0 -50.167 7.83301 -66.5 23.5s-24.5 35.167 -24.5 58.5v59c0 24.667 6.16699 46.5 18.5 65.5s27.333 34.333 45 46s35.334 22.834 53.001 33.501s32.667 23 45 37s18.5 29.667 18.5 47v1c0 9.33301 -3.66699 18 -11 26s-16.666 12 -27.999 12
s-20.666 -3.5 -27.999 -10.5s-11 -16.167 -11 -27.5v-32c0 -16 -4.5 -28.167 -13.5 -36.5s-21.5 -12.5 -37.5 -12.5c-14.667 0 -26.834 4.5 -36.501 13.5s-14.5 22.167 -14.5 39.5v42c0 34 11.833 63 35.5 87s56.834 36 99.501 36h17c38.667 0 70.834 -12.333 96.501 -37
s38.5 -53.334 38.5 -86.001v-347c0 -11.333 -4.16699 -20.5 -12.5 -27.5s-20.166 -10.5 -35.499 -10.5zM126.995 130c0 -20.667 11 -31 33 -31c26.667 0 40 19.667 40 59v78c-26 -19.333 -44.667 -35.333 -56 -48s-17 -26.667 -17 -42v-16z" />
    <glyph glyph-name="ae" unicode="&#xe6;" horiz-adv-x="512" 
d="M111 -4c-28 0 -50.1729 7.83203 -66.5059 23.499s-24.5 35.167 -24.5 58.5v59c0 24.667 6.16699 46.5 18.5 65.5s27.333 34.333 45 46s35.334 22.834 53.001 33.501s32.667 23 45 37s18.5 29.667 18.5 47v1c0 9.33301 -3.66699 18 -11 26s-16.666 12 -27.999 12
s-20.666 -3.5 -27.999 -10.5s-11 -16.167 -11 -27.5v-32c0 -16 -4.5 -28.167 -13.5 -36.5s-21.5 -12.5 -37.5 -12.5c-14.667 0 -26.834 4.5 -36.501 13.5s-14.5 22.167 -14.5 39.5v42c0 34 11.833 63 35.5 87s56.834 36 99.501 36s76.334 -14.667 101.001 -44
c29.333 29.333 64 44 104 44c40.667 0 72.834 -13.167 96.501 -39.5s35.5 -63.833 35.5 -112.5v-75c0 -5.33301 -2 -10 -6 -14s-8.66699 -6 -14 -6h-165v-125c0 -25.333 13 -38 39 -38s39 12.667 39 38v38c0 15.333 5 27.166 15 35.499s23 12.5 39 12.5
s28.833 -4.16699 38.5 -12.5s14.5 -20.166 14.5 -35.499v-33c0 -48 -11.667 -83.5 -35 -106.5s-55.666 -34.5 -96.999 -34.5h-23c-73.333 0 -117.333 31.667 -132 95c-12 -63.333 -43.333 -95 -94 -95zM159.994 98.999c26.667 0 40 19.667 40 59v78
c-26 -19.333 -44.667 -35.333 -56 -48s-17 -26.667 -17 -42v-16c0 -20.667 11 -31 33 -31zM306.994 316.999h72.998c3.33301 0 5 1.66699 5 5v45c0 11.333 -3.66699 20.5 -11 27.5s-16.666 10.5 -27.999 10.5s-20.666 -3.5 -27.999 -10.5s-11 -16.167 -11 -27.5v-50z" />
    <glyph glyph-name="ccedilla" unicode="&#xe7;" horiz-adv-x="327" 
d="M117 -174c-14.667 0 -25.6709 4.16602 -33.0039 12.499s-11 19.5 -11 33.5c0 30 14.333 45 43 45h72c7.33301 0 11 3.66699 11 11s-3.66699 11 -11 11h-52c-7.33301 0 -12.833 2.16699 -16.5 6.5s-4.5 9.83301 -2.5 16.5l10 36c-71.333 8.66699 -107 55 -107 139v206
c0 49.333 12 88.5 36 117.5s56 43.5 96 43.5h28c40 0 72 -14.667 96 -44s36 -68.666 36 -117.999v-21c0 -15.333 -4.83301 -27.166 -14.5 -35.499s-22.5 -12.5 -38.5 -12.5s-29 4.16699 -39 12.5s-15 20.166 -15 35.499v46c0 11.333 -3.66699 20.5 -11 27.5
s-16.666 10.5 -27.999 10.5s-20.666 -3.5 -27.999 -10.5s-11 -16.167 -11 -27.5v-235c0 -25.333 13 -38 39 -38s39 12.667 39 38v38c0 15.333 5 27.166 15 35.499s23 12.5 39 12.5s28.833 -4.16699 38.5 -12.5s14.5 -20.166 14.5 -35.499v-33
c0 -48 -11.667 -83.5 -35 -106.5s-55.666 -34.5 -96.999 -34.5h-4l-5 -14h18c20.667 0 37.834 -7.16699 51.501 -21.5s20.5 -33.166 20.5 -56.499c0 -22.667 -8.5 -41.334 -25.5 -56.001s-36.167 -22 -57.5 -22h-61z" />
    <glyph glyph-name="egrave" unicode="&#xe8;" 
d="M157 -4c-42 0 -75.335 11.668 -100.002 35.001s-37 58.666 -37 105.999v216c0 48 12.667 85.167 38 111.5s58.333 39.5 99 39.5h23c40.667 0 72.834 -13.167 96.501 -39.5s35.5 -63.833 35.5 -112.5v-75c0 -5.33301 -2 -10 -6 -14s-8.66699 -6 -14 -6h-165v-125
c0 -25.333 13 -38 39 -38s39 12.667 39 38v38c0 15.333 5 27.166 15 35.499s23 12.5 39 12.5s28.833 -4.16699 38.5 -12.5s14.5 -20.166 14.5 -35.499v-33c0 -48 -11.667 -83.5 -35 -106.5s-55.666 -34.5 -96.999 -34.5h-23zM89.998 598.001c-24 20 -28 41.334 -12 64.001
c8.66699 12 19.167 18.5 31.5 19.5s23.833 -3.16699 34.5 -12.5l68 -57c23.333 -20 27 -41.333 11 -64c-18 -24.667 -39 -27.334 -63 -8.00098zM126.998 317.002h72.998c3.33301 0 5 1.66699 5 5v45c0 11.333 -3.66699 20.5 -11 27.5s-16.666 10.5 -27.999 10.5
s-20.666 -3.5 -27.999 -10.5s-11 -16.167 -11 -27.5v-50z" />
    <glyph glyph-name="eacute" unicode="&#xe9;" 
d="M157 -4c-42 0 -75.335 11.668 -100.002 35.001s-37 58.666 -37 105.999v216c0 48 12.667 85.167 38 111.5s58.333 39.5 99 39.5h23c40.667 0 72.834 -13.167 96.501 -39.5s35.5 -63.833 35.5 -112.5v-75c0 -5.33301 -2 -10 -6 -14s-8.66699 -6 -14 -6h-165v-125
c0 -25.333 13 -38 39 -38s39 12.667 39 38v38c0 15.333 5 27.166 15 35.499s23 12.5 39 12.5s28.833 -4.16699 38.5 -12.5s14.5 -20.166 14.5 -35.499v-33c0 -48 -11.667 -83.5 -35 -106.5s-55.666 -34.5 -96.999 -34.5h-23zM145.998 543.001c-24 -19.333 -45 -16.667 -63 8
c-16 22.667 -12.333 44 11 64l68 57c10.667 9.33301 22.167 13.5 34.5 12.5s22.833 -7.5 31.5 -19.5c16 -22.667 12 -44 -12 -64zM126.998 317h72.998c3.33301 0 5 1.66699 5 5v45c0 11.333 -3.66699 20.5 -11 27.5s-16.666 10.5 -27.999 10.5s-20.666 -3.5 -27.999 -10.5
s-11 -16.167 -11 -27.5v-50z" />
    <glyph glyph-name="ecircumflex" unicode="&#xea;" 
d="M157 -4c-42 0 -75.335 11.668 -100.002 35.001s-37 58.666 -37 105.999v216c0 48 12.667 85.167 38 111.5s58.333 39.5 99 39.5h23c40.667 0 72.834 -13.167 96.501 -39.5s35.5 -63.833 35.5 -112.5v-75c0 -5.33301 -2 -10 -6 -14s-8.66699 -6 -14 -6h-165v-125
c0 -25.333 13 -38 39 -38s39 12.667 39 38v38c0 15.333 5 27.166 15 35.499s23 12.5 39 12.5s28.833 -4.16699 38.5 -12.5s14.5 -20.166 14.5 -35.499v-33c0 -48 -11.667 -83.5 -35 -106.5s-55.666 -34.5 -96.999 -34.5h-23zM108.998 541.001
c-20 -20.667 -40.666 -19.667 -61.999 3c-16.667 18.667 -15 39 5 61l54 59c15.333 16 34.666 24 57.999 24c24 0 43 -8 57 -24l54 -59c20 -22 21.667 -42.333 5 -61c-22 -23.333 -42.667 -24.333 -62 -3l-54 59zM126.999 317.001h72.998c3.33301 0 5 1.66699 5 5v45
c0 11.333 -3.66699 20.5 -11 27.5s-16.666 10.5 -27.999 10.5s-20.666 -3.5 -27.999 -10.5s-11 -16.167 -11 -27.5v-50z" />
    <glyph glyph-name="edieresis" unicode="&#xeb;" 
d="M157 -4c-42 0 -75.335 11.668 -100.002 35.001s-37 58.666 -37 105.999v216c0 48 12.667 85.167 38 111.5s58.333 39.5 99 39.5h23c40.667 0 72.834 -13.167 96.501 -39.5s35.5 -63.833 35.5 -112.5v-75c0 -5.33301 -2 -10 -6 -14s-8.66699 -6 -14 -6h-165v-125
c0 -25.333 13 -38 39 -38s39 12.667 39 38v38c0 15.333 5 27.166 15 35.499s23 12.5 39 12.5s28.833 -4.16699 38.5 -12.5s14.5 -20.166 14.5 -35.499v-33c0 -48 -11.667 -83.5 -35 -106.5s-55.666 -34.5 -96.999 -34.5h-23zM230.998 566.001c-32 0 -48.001 14 -48.001 42
v34c0 13.333 4.33301 23.666 13 30.999s20.334 11 35.001 11c14 0 25.167 -3.66699 33.5 -11s12.5 -17.666 12.5 -30.999v-34c0 -28 -15.333 -42 -46 -42zM107.997 566.001c-14 0 -25.333 3.66797 -34 11.001s-13 17.666 -13 30.999v34c0 13.333 4.33301 23.666 13 30.999
s20 11 34 11s25.333 -3.66699 34 -11s13 -17.666 13 -30.999v-34c0 -28 -15.667 -42 -47 -42zM126.997 317.002h72.998c3.33301 0 5 1.66699 5 5v45c0 11.333 -3.66699 20.5 -11 27.5s-16.666 10.5 -27.999 10.5s-20.666 -3.5 -27.999 -10.5s-11 -16.167 -11 -27.5v-50z" />
    <glyph glyph-name="igrave" unicode="&#xec;" horiz-adv-x="147" 
d="M74 -4c-16 0 -29 4.16699 -39 12.5s-15 20.166 -15 35.499v412c0 15.333 5 27.166 15 35.499s23 12.5 39 12.5s28.833 -4.16699 38.5 -12.5s14.5 -20.166 14.5 -35.499v-412c0 -15.333 -4.83301 -27.166 -14.5 -35.499s-22.5 -12.5 -38.5 -12.5zM10 598
c-24 20 -28 41.334 -12 64.001c8.66699 12 19.167 18.5 31.5 19.5s23.833 -3.16699 34.5 -12.5l68 -57c23.333 -20 27 -41.333 11 -64c-18 -24.667 -39 -27.334 -63 -8.00098z" />
    <glyph glyph-name="iacute" unicode="&#xed;" horiz-adv-x="147" 
d="M74 -4c-16 0 -29 4.16699 -39 12.5s-15 20.166 -15 35.499v412c0 15.333 5 27.166 15 35.499s23 12.5 39 12.5s28.833 -4.16699 38.5 -12.5s14.5 -20.166 14.5 -35.499v-412c0 -15.333 -4.83301 -27.166 -14.5 -35.499s-22.5 -12.5 -38.5 -12.5zM51 543
c-24 -19.333 -45 -16.667 -63 8c-16 22.667 -12.333 44 11 64l68 57c10.667 9.33301 22.167 13.5 34.5 12.5s22.833 -7.5 31.5 -19.5c16 -22.667 12 -44 -12 -64z" />
    <glyph glyph-name="icircumflex" unicode="&#xee;" horiz-adv-x="147" 
d="M74 -4c-16 0 -29 4.16699 -39 12.5s-15 20.166 -15 35.499v412c0 15.333 5 27.166 15 35.499s23 12.5 39 12.5s28.833 -4.16699 38.5 -12.5s14.5 -20.166 14.5 -35.499v-412c0 -15.333 -4.83301 -27.166 -14.5 -35.499s-22.5 -12.5 -38.5 -12.5zM19 541
c-20 -20.667 -40.666 -19.667 -61.999 3c-16.667 18.667 -15 39 5 61l54 59c15.333 16 34.666 24 57.999 24c24 0 43 -8 57 -24l54 -59c20 -22 21.667 -42.333 5 -61c-22 -23.333 -42.667 -24.333 -62 -3l-54 59z" />
    <glyph glyph-name="idieresis" unicode="&#xef;" horiz-adv-x="147" 
d="M74 -4c-16 0 -29 4.16699 -39 12.5s-15 20.166 -15 35.499v412c0 15.333 5 27.166 15 35.499s23 12.5 39 12.5s28.833 -4.16699 38.5 -12.5s14.5 -20.166 14.5 -35.499v-412c0 -15.333 -4.83301 -27.166 -14.5 -35.499s-22.5 -12.5 -38.5 -12.5zM136 566
c-32 0 -48.001 14 -48.001 42v34c0 13.333 4.33301 23.666 13 30.999s20.334 11 35.001 11c14 0 25.167 -3.66699 33.5 -11s12.5 -17.666 12.5 -30.999v-34c0 -28 -15.333 -42 -46 -42zM12.999 566c-14 0 -25.333 3.66797 -34 11.001s-13 17.666 -13 30.999v34
c0 13.333 4.33301 23.666 13 30.999s20 11 34 11s25.333 -3.66699 34 -11s13 -17.666 13 -30.999v-34c0 -28 -15.667 -42 -47 -42z" />
    <glyph glyph-name="ntilde" unicode="&#xf1;" horiz-adv-x="325" 
d="M36 556c5.33301 -6 9.33496 -10 12.002 -12s6.33398 -4.33301 11.001 -7s9.5 -3.5 14.5 -2.5s10.5 3.5 16.5 7.5c4.66699 2.66699 10 8.33398 16 17.001s12 13.667 18 15c3.33301 0.666992 12.166 -6.33301 26.499 -21s29.166 -22.334 44.499 -23.001
c10 0 25.167 4.83301 45.5 14.5s37 22.5 50 38.5s11.5 34.333 -4.5 55c-10.667 12 -20.667 18 -30 18s-16.833 -3.5 -22.5 -10.5s-12.334 -14.167 -20.001 -21.5s-14.5 -11 -20.5 -11c-4 0 -9.33301 3.66699 -16 11s-15.667 14.5 -27 21.5s-25.333 10.167 -42 9.5
c-18.667 -0.666992 -39 -13.667 -61 -39s-25.667 -45.333 -11 -60zM251.002 -4c-16 0 -28.832 4.33398 -38.499 13.001s-14.5 20.667 -14.5 36v324c0 20.667 -11 31 -33 31c-13.333 0 -23 -4.66699 -29 -14s-9 -24.333 -9 -45v-297
c0 -15.333 -4.83301 -27.166 -14.5 -35.499s-22.5 -12.5 -38.5 -12.5s-29 4.16699 -39 12.5s-15 20.166 -15 35.499v405c0 36 19.667 54 59 54c15.333 0 27.166 -3.5 35.499 -10.5s12.5 -16.167 12.5 -27.5v-29c8 18.667 19.667 34.5 35 47.5s32.666 19.5 51.999 19.5
c28.667 0 51 -8.83301 67 -26.5s24 -42.834 24 -75.501v-352c0 -17.333 -5.16699 -30.5 -15.5 -39.5s-23.166 -13.5 -38.499 -13.5z" />
    <glyph glyph-name="ograve" unicode="&#xf2;" 
d="M152 -4c-41.333 0 -73.668 11.501 -97.001 34.501s-35 58.5 -35 106.5v206c0 48.667 12.833 87.667 38.5 117s58.5 44 98.5 44h18c40 0 72.833 -14.833 98.5 -44.5s38.5 -68.834 38.5 -117.501v-205c0 -48 -11.667 -83.5 -35 -106.5s-55.666 -34.5 -96.999 -34.5h-28z
M165.998 94.001c26 0 38.998 12.667 38.998 38v235c0 11.333 -3.66699 20.5 -11 27.5s-16.666 10.5 -27.999 10.5s-20.666 -3.5 -27.999 -10.5s-11 -16.167 -11 -27.5v-235c0 -25.333 13 -38 39 -38zM101.996 598.001c-24 20 -28 41.334 -12 64.001
c8.66699 12 19.167 18.5 31.5 19.5s23.833 -3.16699 34.5 -12.5l68 -57c23.333 -20 27 -41.333 11 -64c-18 -24.667 -39 -27.334 -63 -8.00098z" />
    <glyph glyph-name="oacute" unicode="&#xf3;" 
d="M152 -4c-41.333 0 -73.668 11.501 -97.001 34.501s-35 58.5 -35 106.5v206c0 48.667 12.833 87.667 38.5 117s58.5 44 98.5 44h18c40 0 72.833 -14.833 98.5 -44.5s38.5 -68.834 38.5 -117.501v-205c0 -48 -11.667 -83.5 -35 -106.5s-55.666 -34.5 -96.999 -34.5h-28z
M165.998 94.001c26 0 38.998 12.667 38.998 38v235c0 11.333 -3.66699 20.5 -11 27.5s-16.666 10.5 -27.999 10.5s-20.666 -3.5 -27.999 -10.5s-11 -16.167 -11 -27.5v-235c0 -25.333 13 -38 39 -38zM142.996 543.001c-24 -19.333 -45 -16.667 -63 8
c-16 22.667 -12.333 44 11 64l68 57c10.667 9.33301 22.167 13.5 34.5 12.5s22.833 -7.5 31.5 -19.5c16 -22.667 12 -44 -12 -64z" />
    <glyph glyph-name="ocircumflex" unicode="&#xf4;" 
d="M152 -4c-41.333 0 -73.668 11.501 -97.001 34.501s-35 58.5 -35 106.5v206c0 48.667 12.833 87.667 38.5 117s58.5 44 98.5 44h18c40 0 72.833 -14.833 98.5 -44.5s38.5 -68.834 38.5 -117.501v-205c0 -48 -11.667 -83.5 -35 -106.5s-55.666 -34.5 -96.999 -34.5h-28z
M165.998 94.001c26 0 38.998 12.667 38.998 38v235c0 11.333 -3.66699 20.5 -11 27.5s-16.666 10.5 -27.999 10.5s-20.666 -3.5 -27.999 -10.5s-11 -16.167 -11 -27.5v-235c0 -25.333 13 -38 39 -38zM110.996 541.001c-20 -20.667 -40.666 -19.667 -61.999 3
c-16.667 18.667 -15 39 5 61l54 59c15.333 16 34.666 24 57.999 24c24 0 43 -8 57 -24l54 -59c20 -22 21.667 -42.333 5 -61c-22 -23.333 -42.667 -24.333 -62 -3l-54 59z" />
    <glyph glyph-name="otilde" unicode="&#xf5;" 
d="M36 556c5.33301 -6 9.33496 -10 12.002 -12s6.33398 -4.33301 11.001 -7s9.5 -3.5 14.5 -2.5s10.5 3.5 16.5 7.5c4.66699 2.66699 10 8.33398 16 17.001s12 13.667 18 15c3.33301 0.666992 12.166 -6.33301 26.499 -21s29.166 -22.334 44.499 -23.001
c10 0 25.167 4.83301 45.5 14.5s37 22.5 50 38.5s11.5 34.333 -4.5 55c-10.667 12 -20.667 18 -30 18s-16.833 -3.5 -22.5 -10.5s-12.334 -14.167 -20.001 -21.5s-14.5 -11 -20.5 -11c-4 0 -9.33301 3.66699 -16 11s-15.667 14.5 -27 21.5s-25.333 10.167 -42 9.5
c-18.667 -0.666992 -39 -13.667 -61 -39s-25.667 -45.333 -11 -60zM152.002 -4c-41.333 0 -73.668 11.501 -97.001 34.501s-35 58.5 -35 106.5v206c0 48.667 12.833 87.667 38.5 117s58.5 44 98.5 44h18c40 0 72.833 -14.833 98.5 -44.5s38.5 -68.834 38.5 -117.501v-205
c0 -48 -11.667 -83.5 -35 -106.5s-55.666 -34.5 -96.999 -34.5h-28zM166 94.001c26 0 38.998 12.667 38.998 38v235c0 11.333 -3.66699 20.5 -11 27.5s-16.666 10.5 -27.999 10.5s-20.666 -3.5 -27.999 -10.5s-11 -16.167 -11 -27.5v-235c0 -25.333 13 -38 39 -38z" />
    <glyph glyph-name="odieresis" unicode="&#xf6;" 
d="M152 -4c-41.333 0 -73.668 11.501 -97.001 34.501s-35 58.5 -35 106.5v206c0 48.667 12.833 87.667 38.5 117s58.5 44 98.5 44h18c40 0 72.833 -14.833 98.5 -44.5s38.5 -68.834 38.5 -117.501v-205c0 -48 -11.667 -83.5 -35 -106.5s-55.666 -34.5 -96.999 -34.5h-28z
M165.998 94.001c26 0 38.998 12.667 38.998 38v235c0 11.333 -3.66699 20.5 -11 27.5s-16.666 10.5 -27.999 10.5s-20.666 -3.5 -27.999 -10.5s-11 -16.167 -11 -27.5v-235c0 -25.333 13 -38 39 -38zM227.996 566.001c-32 0 -48.001 14 -48.001 42v34
c0 13.333 4.33301 23.666 13 30.999s20.334 11 35.001 11c14 0 25.167 -3.66699 33.5 -11s12.5 -17.666 12.5 -30.999v-34c0 -28 -15.333 -42 -46 -42zM104.995 566.001c-14 0 -25.333 3.66797 -34 11.001s-13 17.666 -13 30.999v34c0 13.333 4.33301 23.666 13 30.999
s20 11 34 11s25.333 -3.66699 34 -11s13 -17.666 13 -30.999v-34c0 -28 -15.667 -42 -47 -42z" />
    <glyph glyph-name="oslash" unicode="&#xf8;" 
d="M271.026 521.034c14.6494 -6.68945 24.7002 -15.9082 30.1543 -27.6562c5.83398 -11.4961 5.44043 -24.2891 -1.18066 -38.3779l-201.822 -429.424c-6.39062 -13.5967 -15.8779 -22.3164 -28.4629 -26.1582c-12.4766 -3.61133 -25.9082 -2.02051 -40.2959 4.77344
c-32.2793 15.2061 -41.6084 37.1602 -27.9883 65.8613l201.996 430.408c6.43262 13.707 15.7197 22.2236 27.8604 25.5498c11.8086 3.32617 25.0547 1.66699 39.7393 -4.97656zM151.999 -4c-41.333 0 -73.668 11.501 -97.001 34.501s-35 58.5 -35 106.5v206
c0 48.667 12.833 87.667 38.5 117s58.5 44 98.5 44h18c40 0 72.833 -14.833 98.5 -44.5s38.5 -68.834 38.5 -117.501v-205c0 -48 -11.667 -83.5 -35 -106.5s-55.666 -34.5 -96.999 -34.5h-28zM165.997 94.001c26 0 38.998 12.667 38.998 38v235
c0 11.333 -3.66699 20.5 -11 27.5s-16.666 10.5 -27.999 10.5s-20.666 -3.5 -27.999 -10.5s-11 -16.167 -11 -27.5v-235c0 -25.333 13 -38 39 -38z" />
    <glyph glyph-name="ugrave" unicode="&#xf9;" horiz-adv-x="325" 
d="M111 -4c-28 0 -50.168 7.83301 -66.501 23.5s-24.5 35.167 -24.5 58.5v372c0 17.333 5.16699 30.5 15.5 39.5s23.166 13.5 38.499 13.5c16 0 28.833 -4.33301 38.5 -13s14.5 -20.667 14.5 -36v-324c0 -20.667 11 -31 33 -31c13.333 0 23 4.66699 29 14s9 24.333 9 45v297
c0 15.333 5 27.166 15 35.499s23 12.5 39 12.5s28.833 -4.16699 38.5 -12.5s14.5 -20.166 14.5 -35.499v-421c0 -11.333 -4.16699 -20.5 -12.5 -27.5s-20.166 -10.5 -35.499 -10.5c-39.333 0 -59 18 -59 54v26c-5.33301 -20.667 -15.666 -39.167 -30.999 -55.5
s-34 -24.5 -56 -24.5zM98.999 598c-24 20 -28 41.334 -12 64.001c8.66699 12 19.167 18.5 31.5 19.5s23.833 -3.16699 34.5 -12.5l68 -57c23.333 -20 27 -41.333 11 -64c-18 -24.667 -39 -27.334 -63 -8.00098z" />
    <glyph glyph-name="uacute" unicode="&#xfa;" horiz-adv-x="325" 
d="M111 -4c-28 0 -50.168 7.83301 -66.501 23.5s-24.5 35.167 -24.5 58.5v372c0 17.333 5.16699 30.5 15.5 39.5s23.166 13.5 38.499 13.5c16 0 28.833 -4.33301 38.5 -13s14.5 -20.667 14.5 -36v-324c0 -20.667 11 -31 33 -31c13.333 0 23 4.66699 29 14s9 24.333 9 45v297
c0 15.333 5 27.166 15 35.499s23 12.5 39 12.5s28.833 -4.16699 38.5 -12.5s14.5 -20.166 14.5 -35.499v-421c0 -11.333 -4.16699 -20.5 -12.5 -27.5s-20.166 -10.5 -35.499 -10.5c-39.333 0 -59 18 -59 54v26c-5.33301 -20.667 -15.666 -39.167 -30.999 -55.5
s-34 -24.5 -56 -24.5zM139.999 543c-24 -19.333 -45 -16.667 -63 8c-16 22.667 -12.333 44 11 64l68 57c10.667 9.33301 22.167 13.5 34.5 12.5s22.833 -7.5 31.5 -19.5c16 -22.667 12 -44 -12 -64z" />
    <glyph glyph-name="ucircumflex" unicode="&#xfb;" horiz-adv-x="325" 
d="M111 -4c-28 0 -50.168 7.83301 -66.501 23.5s-24.5 35.167 -24.5 58.5v372c0 17.333 5.16699 30.5 15.5 39.5s23.166 13.5 38.499 13.5c16 0 28.833 -4.33301 38.5 -13s14.5 -20.667 14.5 -36v-324c0 -20.667 11 -31 33 -31c13.333 0 23 4.66699 29 14s9 24.333 9 45v297
c0 15.333 5 27.166 15 35.499s23 12.5 39 12.5s28.833 -4.16699 38.5 -12.5s14.5 -20.166 14.5 -35.499v-421c0 -11.333 -4.16699 -20.5 -12.5 -27.5s-20.166 -10.5 -35.499 -10.5c-39.333 0 -59 18 -59 54v26c-5.33301 -20.667 -15.666 -39.167 -30.999 -55.5
s-34 -24.5 -56 -24.5zM107.999 541c-20 -20.667 -40.666 -19.667 -61.999 3c-16.667 18.667 -15 39 5 61l54 59c15.333 16 34.666 24 57.999 24c24 0 43 -8 57 -24l54 -59c20 -22 21.667 -42.333 5 -61c-22 -23.333 -42.667 -24.333 -62 -3l-54 59z" />
    <glyph glyph-name="udieresis" unicode="&#xfc;" horiz-adv-x="325" 
d="M111 -4c-28 0 -50.168 7.83301 -66.501 23.5s-24.5 35.167 -24.5 58.5v372c0 17.333 5.16699 30.5 15.5 39.5s23.166 13.5 38.499 13.5c16 0 28.833 -4.33301 38.5 -13s14.5 -20.667 14.5 -36v-324c0 -20.667 11 -31 33 -31c13.333 0 23 4.66699 29 14s9 24.333 9 45v297
c0 15.333 5 27.166 15 35.499s23 12.5 39 12.5s28.833 -4.16699 38.5 -12.5s14.5 -20.166 14.5 -35.499v-421c0 -11.333 -4.16699 -20.5 -12.5 -27.5s-20.166 -10.5 -35.499 -10.5c-39.333 0 -59 18 -59 54v26c-5.33301 -20.667 -15.666 -39.167 -30.999 -55.5
s-34 -24.5 -56 -24.5zM224.999 566c-32 0 -48.001 14 -48.001 42v34c0 13.333 4.33301 23.666 13 30.999s20.334 11 35.001 11c14 0 25.167 -3.66699 33.5 -11s12.5 -17.666 12.5 -30.999v-34c0 -28 -15.333 -42 -46 -42zM101.998 566c-14 0 -25.333 3.66797 -34 11.001
s-13 17.666 -13 30.999v34c0 13.333 4.33301 23.666 13 30.999s20 11 34 11s25.333 -3.66699 34 -11s13 -17.666 13 -30.999v-34c0 -28 -15.667 -42 -47 -42z" />
    <glyph glyph-name="yacute" unicode="&#xfd;" horiz-adv-x="337" 
d="M156 543c-24 -19.333 -45 -16.667 -63 8c-16 22.667 -12.333 44 11 64l68 57c10.667 9.33301 22.167 13.5 34.5 12.5s22.833 -7.5 31.5 -19.5c16 -22.667 12 -44 -12 -64zM78 -170.001c-15.333 0 -27.1641 4.83301 -35.4971 14.5s-12.5 22.5 -12.5 38.5
s4.16699 29 12.5 39s20.166 15 35.499 15c12 0 21.833 3.5 29.5 10.5s10.167 16.167 7.5 27.5l-103 469c-3.33301 15.333 -1.5 28 5.5 38s18.167 16.333 33.5 19c33.333 5.33301 52.666 -7.33398 57.999 -38.001l61 -354l58 354c5.33301 30.667 24.666 43.334 57.999 38.001
c15.333 -2.66699 26.5 -9 33.5 -19s8.83301 -22.667 5.5 -38l-99 -473c-10 -50 -25.167 -86 -45.5 -108s-49.833 -33 -88.5 -33h-14z" />
    <glyph glyph-name="ydieresis" unicode="&#xff;" horiz-adv-x="337" 
d="M225 566c-32 0 -48.001 14 -48.001 42v34c0 13.333 4.33301 23.666 13 30.999s20.334 11 35.001 11c14 0 25.167 -3.66699 33.5 -11s12.5 -17.666 12.5 -30.999v-34c0 -28 -15.333 -42 -46 -42zM101.999 566c-14 0 -25.333 3.66797 -34 11.001s-13 17.666 -13 30.999v34
c0 13.333 4.33301 23.666 13 30.999s20 11 34 11s25.333 -3.66699 34 -11s13 -17.666 13 -30.999v-34c0 -28 -15.667 -42 -47 -42zM77.999 -169.999c-15.333 0 -27.1641 4.83301 -35.4971 14.5s-12.5 22.5 -12.5 38.5s4.16699 29 12.5 39s20.166 15 35.499 15
c12 0 21.833 3.5 29.5 10.5s10.167 16.167 7.5 27.5l-103 469c-3.33301 15.333 -1.5 28 5.5 38s18.167 16.333 33.5 19c33.333 5.33301 52.666 -7.33398 57.999 -38.001l61 -354l58 354c5.33301 30.667 24.666 43.334 57.999 38.001c15.333 -2.66699 26.5 -9 33.5 -19
s8.83301 -22.667 5.5 -38l-99 -473c-10 -50 -25.167 -86 -45.5 -108s-49.833 -33 -88.5 -33h-14z" />
    <glyph glyph-name="Amacron" unicode="&#x100;" horiz-adv-x="395" 
d="M293.881 793.624c28.7461 -0.0322266 43.1182 -15.5742 43.1182 -46.625c0 -28 -16.5215 -41.9854 -49.5654 -41.9561l-181.261 -0.31543c-14.7822 0.180664 -26.2891 4.38672 -34.5195 12.6172c-8.43652 8.43652 -12.2832 20.1592 -11.54 35.1689
c2.58301 27.5771 19.3604 41.3486 50.332 41.3145zM61.999 -2.00098c-32.667 5.33301 -46.3291 24 -40.9961 56l89 563c5.33301 38 34.666 57 87.999 57c52.667 0 81.667 -19 87 -57l89 -563c5.33301 -32 -8.33398 -50.667 -41.001 -56
c-15.333 -2.66699 -28.333 -0.666992 -39 6s-17.334 17.667 -20.001 33l-26 174h-101l-26 -174c-2.66699 -15.333 -9.33398 -26.333 -20.001 -33s-23.667 -8.66699 -39 -6zM156.004 270.999h83l-41 274z" />
    <glyph glyph-name="amacron" unicode="&#x101;" horiz-adv-x="327" 
d="M240 632c31.333 0 45.7051 -15.541 43.1172 -46.624c-2.0791 -27.584 -16.7852 -41.376 -44.1182 -41.376l-143.771 0.141602c-14.2656 0.0136719 -25.7529 4.21387 -34.4629 12.6006c-8.51074 8.83887 -12.376 20.5674 -11.5957 35.1855
c2.53223 27.8164 19.3096 41.5879 50.3311 41.3135zM258.999 -4c-39.333 0 -59.0049 18 -59.0049 54v37c-3.33301 -22 -13 -42.667 -29 -62s-36 -29 -60 -29c-28 0 -50.167 7.83301 -66.5 23.5s-24.5 35.167 -24.5 58.5v59c0 24.667 6.16699 46.5 18.5 65.5
s27.333 34.333 45 46s35.334 22.834 53.001 33.501s32.667 23 45 37s18.5 29.667 18.5 47v1c0 9.33301 -3.66699 18 -11 26s-16.666 12 -27.999 12s-20.666 -3.5 -27.999 -10.5s-11 -16.167 -11 -27.5v-32c0 -16 -4.5 -28.167 -13.5 -36.5s-21.5 -12.5 -37.5 -12.5
c-14.667 0 -26.834 4.5 -36.501 13.5s-14.5 22.167 -14.5 39.5v42c0 34 11.833 63 35.5 87s56.834 36 99.501 36h17c38.667 0 70.834 -12.333 96.501 -37s38.5 -53.334 38.5 -86.001v-347c0 -11.333 -4.16699 -20.5 -12.5 -27.5s-20.166 -10.5 -35.499 -10.5zM126.994 130
c0 -20.667 11 -31 33 -31c26.667 0 40 19.667 40 59v78c-26 -19.333 -44.667 -35.333 -56 -48s-17 -26.667 -17 -42v-16z" />
    <glyph glyph-name="Emacron" unicode="&#x112;" horiz-adv-x="286" 
d="M230.881 793.624c28.7461 -0.0361328 43.1191 -15.5771 43.1191 -46.624c0 -27.9062 -16.5215 -41.8916 -49.5654 -41.9561l-161.261 -0.31543c-14.7822 0.180664 -26.2891 4.38672 -34.5195 12.6172c-8.43652 8.43652 -12.2832 20.1592 -11.54 35.1689
c2.58301 27.5811 19.3604 41.3525 50.3311 41.3135zM64 0c-29.333 0 -44 16 -44 48v574c0 32 14.667 48 44 48h159c15.333 0 27.166 -5 35.499 -15s12.5 -23 12.5 -39s-4.16699 -28.833 -12.5 -38.5s-20.166 -14.5 -35.499 -14.5h-96v-182h76c15.333 0 26.333 -3.5 33 -10.5
s10 -18.167 10 -33.5s-3.33301 -26.333 -10 -33s-17.667 -10 -33 -10h-76v-187h101c15.333 0 27.166 -5 35.499 -15s12.5 -23 12.5 -39s-4.16699 -28.833 -12.5 -38.5s-20.166 -14.5 -35.499 -14.5h-164z" />
    <glyph glyph-name="emacron" unicode="&#x113;" 
d="M240 628c31.333 0 45.7051 -15.541 43.1172 -46.624c-2.0791 -27.584 -16.7852 -41.376 -44.1182 -41.376l-143.771 0.141602c-14.2656 0.0146484 -25.7529 4.21484 -34.4629 12.6006c-8.51074 8.83887 -12.376 20.5674 -11.5957 35.1855
c2.53223 27.8164 19.3096 41.5879 50.3311 41.3135zM156.999 -4c-42 0 -75.335 11.668 -100.002 35.001s-37 58.666 -37 105.999v216c0 48 12.667 85.167 38 111.5s58.333 39.5 99 39.5h23c40.667 0 72.834 -13.167 96.501 -39.5s35.5 -63.833 35.5 -112.5v-75
c0 -5.33301 -2 -10 -6 -14s-8.66699 -6 -14 -6h-165v-125c0 -25.333 13 -38 39 -38s39 12.667 39 38v38c0 15.333 5 27.166 15 35.499s23 12.5 39 12.5s28.833 -4.16699 38.5 -12.5s14.5 -20.166 14.5 -35.499v-33c0 -48 -11.667 -83.5 -35 -106.5
s-55.666 -34.5 -96.999 -34.5h-23zM126.997 317.001h72.998c3.33301 0 5 1.66699 5 5v45c0 11.333 -3.66699 20.5 -11 27.5s-16.666 10.5 -27.999 10.5s-20.666 -3.5 -27.999 -10.5s-11 -16.167 -11 -27.5v-50z" />
    <glyph glyph-name="Itilde" unicode="&#x128;" horiz-adv-x="167" 
d="M-38 708c5.33301 -6 9.33496 -10 12.002 -12s6.33398 -4.33301 11.001 -7s9.5 -3.5 14.5 -2.5s10.5 3.5 16.5 7.5c4.66699 2.66699 10 8.33398 16 17.001s12 13.667 18 15c3.33301 0.666992 12.166 -6.33301 26.499 -21s29.166 -22.334 44.499 -23.001
c10 0 25.167 4.83301 45.5 14.5s37 22.5 50 38.5s11.5 34.333 -4.5 55c-10.667 12 -20.667 18 -30 18s-16.833 -3.5 -22.5 -10.5s-12.334 -14.167 -20.001 -21.5s-14.5 -11 -20.5 -11c-4 0 -9.33301 3.66699 -16 11s-15.667 14.5 -27 21.5s-25.333 10.167 -42 9.5
c-18.667 -0.666992 -39 -13.667 -61 -39s-25.667 -45.333 -11 -60zM84.002 -4c-16 0 -29 4.16699 -39 12.5s-15 20.166 -15 35.499v582c0 15.333 5 27.166 15 35.499s23 12.5 39 12.5s28.833 -4.16699 38.5 -12.5s14.5 -20.166 14.5 -35.499v-582
c0 -15.333 -4.83301 -27.166 -14.5 -35.499s-22.5 -12.5 -38.5 -12.5z" />
    <glyph glyph-name="itilde" unicode="&#x129;" horiz-adv-x="144" 
d="M-45 556c5.33301 -6 9.33496 -10 12.002 -12s6.33398 -4.33301 11.001 -7s9.5 -3.5 14.5 -2.5s10.5 3.5 16.5 7.5c4.66699 2.66699 10 8.33398 16 17.001s12 13.667 18 15c3.33301 0.666992 12.166 -6.33301 26.499 -21s29.166 -22.334 44.499 -23.001
c10 0 25.167 4.83301 45.5 14.5s37 22.5 50 38.5s11.5 34.333 -4.5 55c-10.667 12 -20.667 18 -30 18s-16.833 -3.5 -22.5 -10.5s-12.334 -14.167 -20.001 -21.5s-14.5 -11 -20.5 -11c-4 0 -9.33301 3.66699 -16 11s-15.667 14.5 -27 21.5s-25.333 10.167 -42 9.5
c-18.667 -0.666992 -39 -13.667 -61 -39s-25.667 -45.333 -11 -60zM74.002 -4c-16 0 -29 4.16699 -39 12.5s-15 20.166 -15 35.499v412c0 15.333 5 27.166 15 35.499s23 12.5 39 12.5s28.833 -4.16699 38.5 -12.5s14.5 -20.166 14.5 -35.499v-412
c0 -15.333 -4.83301 -27.166 -14.5 -35.499s-22.5 -12.5 -38.5 -12.5z" />
    <glyph glyph-name="Imacron" unicode="&#x12a;" horiz-adv-x="167" 
d="M176.881 785.624c28.7461 -0.0322266 43.1182 -15.5742 43.1182 -46.625c0 -28 -16.5215 -41.9854 -49.5654 -41.9561l-181.261 -0.31543c-14.7822 0.180664 -26.2891 4.38672 -34.5195 12.6172c-8.43652 8.43652 -12.2832 20.1592 -11.54 35.1689
c2.58301 27.5771 19.3604 41.3486 50.332 41.3145zM83.999 -4.00098c-16 0 -29 4.16699 -39 12.5s-15 20.166 -15 35.499v582c0 15.333 5 27.166 15 35.499s23 12.5 39 12.5s28.833 -4.16699 38.5 -12.5s14.5 -20.166 14.5 -35.499v-582
c0 -15.333 -4.83301 -27.166 -14.5 -35.499s-22.5 -12.5 -38.5 -12.5z" />
    <glyph glyph-name="imacron" unicode="&#x12b;" horiz-adv-x="147" 
d="M169.881 628.624c28.7461 -0.0322266 43.1182 -15.5742 43.1182 -46.625c0 -28 -16.5215 -41.9854 -49.5654 -41.9561l-181.261 -0.31543c-14.7822 0.180664 -26.2891 4.38672 -34.5195 12.6172c-8.43652 8.43652 -12.2832 20.1592 -11.54 35.1689
c2.58301 27.5771 19.3604 41.3486 50.332 41.3145zM73.999 -4.00098c-16 0 -29 4.16699 -39 12.5s-15 20.166 -15 35.499v412c0 15.333 5 27.166 15 35.499s23 12.5 39 12.5s28.833 -4.16699 38.5 -12.5s14.5 -20.166 14.5 -35.499v-412
c0 -15.333 -4.83301 -27.166 -14.5 -35.499s-22.5 -12.5 -38.5 -12.5z" />
    <glyph glyph-name="dotlessi" unicode="&#x131;" horiz-adv-x="147" 
d="M74 -4c-16 0 -29 4.16699 -39 12.5s-15 20.166 -15 35.499v412c0 15.333 5 27.166 15 35.499s23 12.5 39 12.5s28.833 -4.16699 38.5 -12.5s14.5 -20.166 14.5 -35.499v-412c0 -15.333 -4.83301 -27.166 -14.5 -35.499s-22.5 -12.5 -38.5 -12.5z" />
    <glyph glyph-name="Nacute" unicode="&#x143;" horiz-adv-x="362" 
d="M172 698c-24 -19.333 -45 -16.667 -63 8c-16 22.667 -12.333 44 11 64l68 57c10.667 9.33301 22.167 13.5 34.5 12.5s22.833 -7.5 31.5 -19.5c16 -22.667 12 -44 -12 -64zM74 -4.00098c-16 0 -29 4.16699 -39 12.5s-15 20.166 -15 35.499v582
c0 15.333 5 27.166 15 35.499s23 12.5 39 12.5c29.333 0 47 -11.333 53 -34l98 -357v343c0 15.333 5 27.166 15 35.499s23 12.5 39 12.5s28.833 -4.16699 38.5 -12.5s14.5 -20.166 14.5 -35.499v-582c0 -15.333 -4.83301 -27.166 -14.5 -35.499s-22.5 -12.5 -38.5 -12.5
c-26 0 -42.333 13.333 -49 40l-103 369v-361c0 -15.333 -4.83301 -27.166 -14.5 -35.499s-22.5 -12.5 -38.5 -12.5z" />
    <glyph glyph-name="nacute" unicode="&#x144;" horiz-adv-x="325" 
d="M161 543c-24 -19.333 -45 -16.667 -63 8c-16 22.667 -12.333 44 11 64l68 57c10.667 9.33301 22.167 13.5 34.5 12.5s22.833 -7.5 31.5 -19.5c16 -22.667 12 -44 -12 -64zM251 -4.00098c-16 0 -28.832 4.33398 -38.499 13.001s-14.5 20.667 -14.5 36v324
c0 20.667 -11 31 -33 31c-13.333 0 -23 -4.66699 -29 -14s-9 -24.333 -9 -45v-297c0 -15.333 -4.83301 -27.166 -14.5 -35.499s-22.5 -12.5 -38.5 -12.5s-29 4.16699 -39 12.5s-15 20.166 -15 35.499v405c0 36 19.667 54 59 54c15.333 0 27.166 -3.5 35.499 -10.5
s12.5 -16.167 12.5 -27.5v-29c8 18.667 19.667 34.5 35 47.5s32.666 19.5 51.999 19.5c28.667 0 51 -8.83301 67 -26.5s24 -42.834 24 -75.501v-352c0 -17.333 -5.16699 -30.5 -15.5 -39.5s-23.166 -13.5 -38.499 -13.5z" />
    <glyph glyph-name="Omacron" unicode="&#x14c;" horiz-adv-x="342" 
d="M157 -4c-41.333 0 -73.666 11.501 -96.999 34.501s-35 58.5 -35 106.5v376c0 52.667 10.167 92.667 30.5 120s54.166 41 101.499 41h28c47.333 0 81.166 -13.833 101.499 -41.5s30.5 -67.834 30.5 -120.501v-375c0 -48 -11.667 -83.5 -35 -106.5
s-55.666 -34.5 -96.999 -34.5h-28zM171 94.001c26 0 38.998 12.667 38.998 38v405c0 11.333 -3.66699 20.5 -11 27.5s-16.666 10.5 -27.999 10.5s-20.666 -3.5 -27.999 -10.5s-11 -16.167 -11 -27.5v-405c0 -25.333 13 -38 39 -38zM265.879 797.625
c28.7461 -0.0322266 43.1191 -15.5742 43.1191 -46.625c0 -28 -16.5215 -41.9854 -49.5654 -41.9561l-181.261 -0.31543c-14.7822 0.180664 -26.2891 4.38672 -34.5195 12.6172c-8.43652 8.43652 -12.2832 20.1592 -11.54 35.1689
c2.58301 27.5771 19.3604 41.3486 50.3311 41.3145z" />
    <glyph glyph-name="omacron" unicode="&#x14d;" 
d="M152 -4c-41.333 0 -73.668 11.501 -97.001 34.501s-35 58.5 -35 106.5v206c0 48.667 12.833 87.667 38.5 117s58.5 44 98.5 44h18c40 0 72.833 -14.833 98.5 -44.5s38.5 -68.834 38.5 -117.501v-205c0 -48 -11.667 -83.5 -35 -106.5s-55.666 -34.5 -96.999 -34.5h-28z
M165.998 94.001c26 0 38.998 12.667 38.998 38v235c0 11.333 -3.66699 20.5 -11 27.5s-16.666 10.5 -27.999 10.5s-20.666 -3.5 -27.999 -10.5s-11 -16.167 -11 -27.5v-235c0 -25.333 13 -38 39 -38zM239.996 632.001c31.333 0 45.7051 -15.541 43.1172 -46.624
c-2.0791 -27.584 -16.7852 -41.376 -44.1182 -41.376l-143.771 0.141602c-14.2656 0.0136719 -25.7529 4.21387 -34.4629 12.6006c-8.51074 8.83887 -12.376 20.5674 -11.5957 35.1855c2.53223 27.8164 19.3096 41.5879 50.3311 41.3135z" />
    <glyph glyph-name="OE" unicode="&#x152;" horiz-adv-x="479" 
d="M162 0c-48 0 -83.667 11.6689 -107 35.002s-35 55.666 -35 96.999v406c0 41.333 11.667 73.666 35 96.999s59 35 107 35h244c15.333 0 27.166 -5 35.499 -15s12.5 -23 12.5 -39s-4.16699 -28.833 -12.5 -38.5s-20.166 -14.5 -35.499 -14.5h-96v-182h76
c15.333 0 26.333 -3.5 33 -10.5s10 -18.167 10 -33.5s-3.33301 -26.333 -10 -33s-17.667 -10 -33 -10h-76v-187h101c15.333 0 27.166 -5 35.499 -15s12.5 -23 12.5 -39s-4.16699 -28.833 -12.5 -38.5s-20.166 -14.5 -35.499 -14.5h-249zM166 94.002
c26 0 38.998 12.667 38.998 38v405c0 11.333 -3.66699 20.5 -11 27.5s-16.666 10.5 -27.999 10.5s-20.666 -3.5 -27.999 -10.5s-11 -16.167 -11 -27.5v-405c0 -25.333 13 -38 39 -38z" />
    <glyph glyph-name="oe" unicode="&#x153;" horiz-adv-x="517" 
d="M152 -4c-41.333 0 -73.6689 11.499 -97.002 34.499s-35 58.5 -35 106.5v206c0 48.667 13.167 87.667 39.5 117s59.833 44 100.5 44c42.667 0 76.334 -14.667 101.001 -44c29.333 29.333 64 44 104 44c40.667 0 72.834 -13.167 96.501 -39.5s35.5 -63.833 35.5 -112.5v-75
c0 -5.33301 -2 -10 -6 -14s-8.66699 -6 -14 -6h-165v-125c0 -25.333 13 -38 39 -38s39 12.667 39 38v38c0 15.333 5 27.166 15 35.499s23 12.5 39 12.5s28.833 -4.16699 38.5 -12.5s14.5 -20.166 14.5 -35.499v-33c0 -47.333 -12.333 -82.666 -37 -105.999s-58 -35 -100 -35
c-49.333 0 -85.333 10 -108 30c-24 -20 -57.333 -30 -100 -30zM165.997 93.999c26 0 38.998 12.667 38.998 38v235c0 11.333 -3.66699 20.5 -11 27.5s-16.666 10.5 -27.999 10.5s-20.666 -3.5 -27.999 -10.5s-11 -16.167 -11 -27.5v-235c0 -25.333 13 -38 39 -38z
M384.995 316.999c3.33301 0 4.99805 1.66699 4.99805 5v45c0 11.333 -3.66699 20.5 -11 27.5s-16.666 10.5 -27.999 10.5s-20.666 -3.5 -27.999 -10.5s-11 -16.167 -11 -27.5v-50h73z" />
    <glyph glyph-name="Umacron" unicode="&#x16a;" 
d="M265.881 797.624c28.7461 -0.0322266 43.1191 -15.5742 43.1191 -46.625c0 -28 -16.5215 -41.9854 -49.5654 -41.9561l-181.261 -0.31543c-14.7822 0.180664 -26.2891 4.38672 -34.5195 12.6172c-8.43652 8.43652 -12.2832 20.1592 -11.54 35.1689
c2.58301 27.5771 19.3604 41.3486 50.3311 41.3145zM152 -4.00098c-41.333 0 -73.668 11.5 -97.001 34.5s-35 58.5 -35 106.5v490c0 15.333 5 27.166 15 35.499s23 12.5 39 12.5s28.833 -4.16699 38.5 -12.5s14.5 -20.166 14.5 -35.499v-495c0 -25.333 13 -38 39 -38
s39 12.667 39 38v494c0 15.333 5 27.166 15 35.499s23 12.5 39 12.5s28.833 -4.16699 38.5 -12.5s14.5 -20.166 14.5 -35.499v-489c0 -48 -11.667 -83.5 -35 -106.5s-55.666 -34.5 -96.999 -34.5h-28z" />
    <glyph glyph-name="umacron" unicode="&#x16b;" horiz-adv-x="325" 
d="M240 632c31.333 0 45.7051 -15.541 43.1172 -46.624c-2.0791 -27.584 -16.7852 -41.376 -44.1182 -41.376l-143.771 0.141602c-14.2656 0.0136719 -25.7529 4.21387 -34.4629 12.6006c-8.51074 8.83887 -12.376 20.5674 -11.5957 35.1855
c2.53223 27.8164 19.3096 41.5879 50.3311 41.3135zM110.999 -4c-28 0 -50.168 7.83301 -66.501 23.5s-24.5 35.167 -24.5 58.5v372c0 17.333 5.16699 30.5 15.5 39.5s23.166 13.5 38.499 13.5c16 0 28.833 -4.33301 38.5 -13s14.5 -20.667 14.5 -36v-324
c0 -20.667 11 -31 33 -31c13.333 0 23 4.66699 29 14s9 24.333 9 45v297c0 15.333 5 27.166 15 35.499s23 12.5 39 12.5s28.833 -4.16699 38.5 -12.5s14.5 -20.166 14.5 -35.499v-421c0 -11.333 -4.16699 -20.5 -12.5 -27.5s-20.166 -10.5 -35.499 -10.5
c-39.333 0 -59 18 -59 54v26c-5.33301 -20.667 -15.666 -39.167 -30.999 -55.5s-34 -24.5 -56 -24.5z" />
    <glyph glyph-name="gravecomb" unicode="&#x300;" horiz-adv-x="0" 
d="M25 598c-24 20 -28 41.334 -12 64.001c8.66699 12 19.167 18.5 31.5 19.5s23.833 -3.16699 34.5 -12.5l68 -57c23.333 -20 27 -41.333 11 -64c-18 -24.667 -39 -27.334 -63 -8.00098z" />
    <glyph glyph-name="acutecomb" unicode="&#x301;" horiz-adv-x="0" 
d="M80 543c-24 -19.333 -45 -16.667 -63 8c-16 22.667 -12.333 44 11 64l68 57c10.667 9.33301 22.167 13.5 34.5 12.5s22.833 -7.5 31.5 -19.5c16 -22.667 12 -44 -12 -64z" />
    <glyph glyph-name="uni0302" unicode="&#x302;" horiz-adv-x="0" 
d="M82 541c-20 -20.667 -40.666 -19.667 -61.999 3c-16.667 18.667 -15 39 5 61l54 59c15.333 16 34.666 24 57.999 24c24 0 43 -8 57 -24l54 -59c20 -22 21.667 -42.333 5 -61c-22 -23.333 -42.667 -24.333 -62 -3l-54 59z" />
    <glyph glyph-name="uni0308" unicode="&#x308;" horiz-adv-x="0" 
d="M170 566c-32 0 -48.001 14 -48.001 42v34c0 13.333 4.33301 23.666 13 30.999s20.334 11 35.001 11c14 0 25.167 -3.66699 33.5 -11s12.5 -17.666 12.5 -30.999v-34c0 -28 -15.333 -42 -46 -42zM46.999 566c-14 0 -25.333 3.66797 -34 11.001s-13 17.666 -13 30.999v34
c0 13.333 4.33301 23.666 13 30.999s20 11 34 11s25.333 -3.66699 34 -11s13 -17.666 13 -30.999v-34c0 -28 -15.667 -42 -47 -42z" />
    <glyph glyph-name="uni0327" unicode="&#x327;" horiz-adv-x="0" 
d="M44 -170c-14.667 0 -25.668 4.16699 -33.001 12.5s-11 19.5 -11 33.5c0 30 14.333 45 43 45h72c7.33301 0 11 3.66699 11 11s-3.66699 11 -11 11h-52c-7.33301 0 -12.833 2.16699 -16.5 6.5s-4.5 9.83301 -2.5 16.5l23 80l46 -14l-15 -46h18
c20.667 0 37.834 -7.16699 51.501 -21.5s20.5 -33.166 20.5 -56.499c0 -22.667 -8.5 -41.334 -25.5 -56.001s-36.167 -22 -57.5 -22h-61z" />
    <glyph glyph-name="endash" unicode="&#x2013;" horiz-adv-x="502" 
d="M66 199c-14 0 -25.167 4.66699 -33.5 14s-12.5 21.666 -12.5 36.999s4.16699 27.833 12.5 37.5s19.5 14.5 33.5 14.5h370c14 0 25.167 -4.83301 33.5 -14.5s12.5 -22.167 12.5 -37.5s-4.16699 -27.666 -12.5 -36.999s-19.5 -14 -33.5 -14h-370z" />
    <glyph glyph-name="emdash" unicode="&#x2014;" horiz-adv-x="626" 
d="M66 199c-14.667 0 -26 4.66699 -34 14s-12 21.666 -12 36.999s4 27.833 12 37.5s19.333 14.5 34 14.5h494c14.667 0 26 -4.83301 34 -14.5s12 -22.167 12 -37.5s-4 -27.666 -12 -36.999s-19.333 -14 -34 -14h-494z" />
    <glyph glyph-name="quoteleft" unicode="&#x2018;" horiz-adv-x="147" 
d="M58 506c-17.333 0 -29.5 3.33301 -36.5 10s-8.16699 16 -3.5 28l37 95c4.66699 12 10.5 20.833 17.5 26.5s17.5 8.5 31.5 8.5c22 0 31 -11.667 27 -35l-15 -95c-4.66699 -25.333 -24 -38 -58 -38z" />
    <glyph glyph-name="quoteright" unicode="&#x2019;" horiz-adv-x="147" 
d="M43 506c-22 0 -31 11.667 -27 35l15 95c4.66699 25.333 24 38 58 38c17.333 0 29.5 -3.33301 36.5 -10s8.16699 -16 3.5 -28l-37 -95c-4.66699 -12 -10.5 -20.833 -17.5 -26.5s-17.5 -8.5 -31.5 -8.5z" />
    <glyph glyph-name="quotedblleft" unicode="&#x201c;" horiz-adv-x="263" 
d="M174 506c-17.333 0 -29.5 3.33301 -36.5 10s-8.16699 16 -3.5 28l37 95c4.66699 12 10.5 20.833 17.5 26.5s17.5 8.5 31.5 8.5c22 0 31 -11.667 27 -35l-15 -95c-4.66699 -25.333 -24 -38 -58 -38zM58 506c-17.333 0 -29.5 3.33301 -36.5 10s-8.16699 16 -3.5 28l37 95
c4.66699 12 10.5 20.833 17.5 26.5s17.5 8.5 31.5 8.5c22 0 31 -11.667 27 -35l-15 -95c-4.66699 -25.333 -24 -38 -58 -38z" />
    <glyph glyph-name="quotedblright" unicode="&#x201d;" horiz-adv-x="263" 
d="M159 506c-22 0 -31 11.667 -27 35l15 95c4.66699 25.333 24 38 58 38c17.333 0 29.5 -3.33301 36.5 -10s8.16699 -16 3.5 -28l-37 -95c-4.66699 -12 -10.5 -20.833 -17.5 -26.5s-17.5 -8.5 -31.5 -8.5zM43 506c-22 0 -31 11.667 -27 35l15 95c4.66699 25.333 24 38 58 38
c17.333 0 29.5 -3.33301 36.5 -10s8.16699 -16 3.5 -28l-37 -95c-4.66699 -12 -10.5 -20.833 -17.5 -26.5s-17.5 -8.5 -31.5 -8.5z" />
    <glyph glyph-name="guilsinglleft" unicode="&#x2039;" horiz-adv-x="317" 
d="M38 232c-12 12 -18.002 26 -18.002 42c0 15.333 6 29 18 41l175 170c10 9.33301 21.667 14 35 14s25.333 -4.66699 36 -14c24.667 -24 27.334 -44.667 8.00098 -62l-159 -149l159 -150c18.667 -17.333 15.334 -38 -9.99902 -62c-23.333 -21.333 -46.333 -21.333 -69 0z
" />
    <glyph glyph-name="guilsinglright" unicode="&#x203a;" horiz-adv-x="321" 
d="M108 62c-22.667 -21.333 -45.6689 -21.333 -69.002 0c-25.333 24 -28.666 44.667 -9.99902 62l159 150l-159 149c-19.333 17.333 -16.666 38 8.00098 62c10.667 9.33301 22.667 14 36 14s25 -4.66699 35 -14l175 -170c12 -12 18 -25.667 18 -41c0 -16 -6 -30 -18 -42z
" />
    <glyph glyph-name="Euro" unicode="&#x20ac;" 
 />
    <glyph glyph-name="arrowleft" unicode="&#x2190;" horiz-adv-x="606" 
d="M540 326c14 0 25.1689 -4.83398 33.502 -14.501s12.5 -22.167 12.5 -37.5s-4.16699 -27.666 -12.5 -36.999s-19.5 -14 -33.5 -14l-396 5l141 -128c10 -9.33301 14.667 -20.5 14 -33.5s-6.33398 -24.5 -17.001 -34.5c-23.333 -21.333 -46.333 -21.333 -69 0l-205 200
c-12 12 -18 26 -18 42c0 15.333 6 29 18 41l205 200c10 9.33301 21.667 14 35 14s25.333 -4.66699 36 -14c10.667 -10 16.167 -21.5 16.5 -34.5s-4.83398 -24.167 -15.501 -33.5l-140 -126z" />
    <glyph glyph-name="arrowup" unicode="&#x2191;" horiz-adv-x="606" 
d="M544 294c-10 -10.667 -21.501 -16.332 -34.501 -16.999s-24.167 4 -33.5 14l-128 141l5 -396c0 -14 -4.66699 -25.167 -14 -33.5s-21.666 -12.5 -36.999 -12.5s-27.833 4.16699 -37.5 12.5s-14.5 19.5 -14.5 33.5l5 395l-126 -140
c-9.33301 -10.667 -20.5 -15.834 -33.5 -15.501s-24.5 5.83301 -34.5 16.5c-9.33301 10.667 -14 22.667 -14 36s4.66699 25 14 35l200 205c12 12 25.667 18 41 18c16 0 30 -6 42 -18l200 -205c21.333 -22.667 21.333 -45.667 0 -69z" />
    <glyph glyph-name="arrowright" unicode="&#x2192;" horiz-adv-x="636" 
d="M324 32c-10.667 10 -16.332 21.501 -16.999 34.501s4 24.167 14 33.5l141 128l-396 -5c-14 0 -25.167 4.66699 -33.5 14s-12.5 21.666 -12.5 36.999s4.16699 27.833 12.5 37.5s19.5 14.5 33.5 14.5l395 -5l-140 126c-10.667 9.33301 -15.834 20.5 -15.501 33.5
s5.83301 24.5 16.5 34.5c10.667 9.33301 22.667 14 36 14s25 -4.66699 35 -14l205 -200c12 -12 18 -25.667 18 -41c0 -16 -6 -30 -18 -42l-205 -200c-22.667 -21.333 -45.667 -21.333 -69 0z" />
    <glyph glyph-name="arrowdown" unicode="&#x2193;" horiz-adv-x="606" 
d="M62 252c10 10.667 21.501 16.332 34.501 16.999s24.167 -4 33.5 -14l128 -141l-5 396c0 14 4.66699 25.167 14 33.5s21.666 12.5 36.999 12.5s27.833 -4.16699 37.5 -12.5s14.5 -19.5 14.5 -33.5l-5 -395l126 140c9.33301 10.667 20.5 15.834 33.5 15.501
s24.5 -5.83301 34.5 -16.5c9.33301 -10.667 14 -22.667 14 -36s-4.66699 -25 -14 -35l-200 -205c-12 -12 -25.667 -18 -41 -18c-16 0 -30 6 -42 18l-200 205c-21.333 22.667 -21.333 45.667 0 69z" />
    <glyph glyph-name="uni2196" unicode="&#x2196;" horiz-adv-x="606" 
d="M458 459c0.666992 -14.667 -3.33594 -26.667 -12.0029 -36s-20 -14 -34 -14l-190 9l284 -276c20.667 -21.333 19.334 -44.333 -3.99902 -69c-10.667 -10.667 -22.334 -16.5 -35.001 -17.5s-24 3.5 -34 13.5l-276 284l10 -189c0.666992 -14 -3.66602 -25.5 -12.999 -34.5
s-21.333 -13.167 -36 -12.5c-14 0.666992 -25.667 5.66699 -35 15s-14.333 21 -15 35l-4 286c0 16.667 5.66699 30.667 17 42s25.333 17 42 17l286 -4c14.667 0 26.334 -4.5 35.001 -13.5s13.334 -20.833 14.001 -35.5z" />
    <glyph glyph-name="uni2197" unicode="&#x2197;" horiz-adv-x="606" 
d="M488 118c-14.667 -0.666992 -26.667 3.33594 -36 12.0029s-14 20 -14 34l9 190l-276 -284c-21.333 -20.667 -44.333 -19.334 -69 3.99902c-10.667 10.667 -16.5 22.334 -17.5 35.001s3.5 24 13.5 34l284 276l-189 -10c-14 -0.666992 -25.5 3.66602 -34.5 12.999
s-13.167 21.333 -12.5 36c0.666992 14 5.66699 25.667 15 35s21 14.333 35 15l286 4c16.667 0 30.667 -5.66699 42 -17s17 -25.333 17 -42l-4 -286c0 -14.667 -4.5 -26.334 -13.5 -35.001s-20.833 -13.334 -35.5 -14.001z" />
    <glyph glyph-name="uni2198" unicode="&#x2198;" horiz-adv-x="606" 
d="M147 88c-0.666992 14.667 3.33594 26.667 12.0029 36s20 14 34 14l190 -9l-284 276c-20.667 21.333 -19.334 44.333 3.99902 69c10.667 10.667 22.334 16.5 35.001 17.5s24 -3.5 34 -13.5l276 -284l-10 189c-0.666992 14 3.66602 25.5 12.999 34.5s21.333 13.167 36 12.5
c14 -0.666992 25.667 -5.66699 35 -15s14.333 -21 15 -35l4 -286c0 -16.667 -5.66699 -30.667 -17 -42s-25.333 -17 -42 -17l-286 4c-14.667 0 -26.334 4.5 -35.001 13.5s-13.334 20.833 -14.001 35.5z" />
    <glyph glyph-name="uni2199" unicode="&#x2199;" horiz-adv-x="606" 
d="M117 429c14.667 0.666992 26.667 -3.33594 36 -12.0029s14 -20 14 -34l-9 -190l276 284c21.333 20.667 44.333 19.334 69 -3.99902c10.667 -10.667 16.5 -22.334 17.5 -35.001s-3.5 -24 -13.5 -34l-284 -276l189 10c14 0.666992 25.5 -3.66602 34.5 -12.999
s13.167 -21.333 12.5 -36c-0.666992 -14 -5.66699 -25.667 -15 -35s-21 -14.333 -35 -15l-286 -4c-16.667 0 -30.667 5.66699 -42 17s-17 25.333 -17 42l4 286c0 14.667 4.5 26.334 13.5 35.001s20.833 13.334 35.5 14.001z" />
    <glyph glyph-name="minus" unicode="&#x2212;" horiz-adv-x="398" 
d="M68 197c-15.333 0 -27.166 4.83301 -35.499 14.5s-12.5 22.5 -12.5 38.5s4.16699 29 12.5 39s20.166 15 35.499 15h262c15.333 0 27.166 -5 35.499 -15s12.5 -23 12.5 -39s-4.16699 -28.833 -12.5 -38.5s-20.166 -14.5 -35.499 -14.5h-262z" />
    <glyph glyph-name="u1F36C" unicode="&#x1f36c;" horiz-adv-x="461" 
d="M161 -14c-25.333 0 -38 11.0029 -38 33.0029v2l-2 -2c-16.667 -16.667 -33.334 -20 -50.001 -10c-9.33301 6 -15.666 13.167 -18.999 21.5s-2 16.833 4 25.5l3 4l-5 -2c-20.667 -8.66699 -36.334 -3.33398 -47.001 15.999c-12 20.667 -8.33301 37 11 49l103 61
c-18 20 -27.667 44 -29 72s7 57.667 25 89l4 8c18 30 39.667 51.833 65 65.5s51 17.5 77 11.5v119c0 10.667 3.5 19 10.5 25s15.833 8.66699 26.5 8c11.333 0.666992 20.5 -2 27.5 -8s10.5 -14.333 10.5 -25v-4l3 4c13.333 17.333 29.333 21 48 11
c10 -6 16.667 -13.333 20 -22s2.33301 -17.334 -3 -26.001l-2 -3l3 1c20.667 7.33301 36.334 2 47.001 -16c12.667 -22 9 -38.333 -11 -49l-104 -60c40 -44.667 42 -98.334 6 -161.001l-5 -10c-18 -30 -39.5 -51.5 -64.5 -64.5s-50.833 -16.5 -77.5 -10.5v-120
c0 -10.667 -3.5 -19 -10.5 -25s-15.833 -8.66699 -26.5 -8zM152 239.003c7.33301 2 11.001 7.33203 11.001 15.999c-0.666992 15.333 4.33301 34.333 15 57l2 4c8.66699 18 22.667 31.667 42 41c7.33301 3.33301 10.333 8.33301 9 15l-1 5c-0.666992 3.33301 -2.5 6 -5.5 8
s-6.16699 2.33301 -9.5 1c-23.333 -11.333 -42.333 -29.666 -57 -54.999l-4 -7c-15.333 -26 -22 -52 -20 -78c1.33301 -8 5.66602 -10.667 12.999 -8z" />
    <glyph glyph-name=".null" horiz-adv-x="0" 
 />
    <glyph glyph-name="nonmarkingreturn" horiz-adv-x="333" 
 />
    <glyph glyph-name="R.ss01" horiz-adv-x="320" 
d="M74 -4c-16 0 -29 4.16602 -39 12.499s-15 20.166 -15 35.499v578c0 32 14.667 48 44 48h94c48 0 83.667 -11.667 107 -35s35 -55.666 35 -96.999v-119c0 -46 -16 -80.667 -48 -104c32 -23.333 48 -58 48 -104v-168c0 -15.333 -4.83301 -27.166 -14.5 -35.499
s-22.5 -12.5 -38.5 -12.5s-29 4.16699 -39 12.5s-15 20.166 -15 35.499v212c0 8.66699 -3.5 16.5 -10.5 23.5s-16.167 10.5 -27.5 10.5h-28v-245c0 -15.333 -4.83301 -27.166 -14.5 -35.499s-22.5 -12.5 -38.5 -12.5zM127 373.999h28c11.333 0 20.5 3.5 27.5 10.5
s10.5 14.833 10.5 23.5v126c0 26 -12.667 39 -38 39h-28v-199z" />
    <glyph glyph-name="eth" unicode="&#xf0;" horiz-adv-x="325" 
d="M127 575l131 102c24.6428 19.1875 28 41.333 12 64c-8.66699 12 -19.167 18.5 -31.5 19.5s-23.351 -3.77092 -34.5 -12.5l-129 -101c-23.9141 -19.2578 -27 -41.333 -11 -64c18 -24.667 38.958 -27.2324 63 -8zM290 62c106 262 -109 692 -109 692s-13 30 -18.5 34.499
c-9.87874 8.08085 -22.5 12.5 -38.5 12.5s-29 -6.66602 -39 -14.999s-18.2393 -24.5947 -13 -38c0 0 178.74 -450.294 125.998 -325c-7.99805 19 -15.666 39.167 -30.999 55.5s-34 24.5 -56 24.5c-28 0 -50.167 -7.83301 -66.5 -23.5s-24.5 -35.167 -24.5 -58.5v-343
c0 -23.333 8.16699 -42.833 24.5 -58.5s38.501 -23.5 66.501 -23.5c22 0 150.524 -4.38502 179 66zM126.999 130v239c0 20.667 11 31 33 31c13.333 0 23 -4.66699 29 -14s9 -24.333 9 -45v-183c0 -20.667 -3 -35.667 -9 -45s-15.667 -14 -29 -14c-22 0 -33 10.333 -33 31z
" />
    <glyph glyph-name="Eth" unicode="&#xd0;" 
d="M25 277c0 0 -27.166 4.83301 -35.499 14.5s-12.5 22.5 -12.5 38.5s4.16699 29 12.5 39s20.168 15 35.499 15h123.001c15.3203 0 27.166 -5 35.499 -15s12.5 -23 12.5 -39s-4.16699 -28.833 -12.5 -38.5s-20.1787 -14.5 -35.499 -14.5h-123.001zM76 0
c-29.333 0 -44 15.998 -44 47.998v574c0 32 14.667 48 44 48h94c48 0 83.667 -11.667 107 -35s35 -55.666 35 -96.999v-406c0 -41.333 -11.667 -73.666 -35 -96.999s-59 -35 -107 -35h-94zM139 96.998h28c25.333 0 38 13 38 39v398c0 26 -12.667 39 -38 39h-28v-476z" />
    </font>
</defs>
</svg>
