<?xml version="1.0" standalone="no"?>
<!DOCTYPE svg PUBLIC "-//W3C//DTD SVG 1.1//EN" "http://www.w3.org/Graphics/SVG/1.1/DTD/svg11.dtd" >
<svg xmlns="http://www.w3.org/2000/svg" xmlns:xlink="http://www.w3.org/1999/xlink" version="1.1">
<metadata>
Created by FontForge 20230101 at Wed Feb 04 14:23:19 2026
 By User
Muraknockout Media + Design
</metadata>
<defs>
<font id="Generica-Bold" horiz-adv-x="520" >
  <font-face 
    font-family="Generica"
    font-weight="700"
    font-stretch="normal"
    units-per-em="2048"
    panose-1="2 0 8 0 0 0 0 0 0 0"
    ascent="1638"
    descent="-410"
    x-height="1180"
    cap-height="1435"
    bbox="-173 -590 6266 1947"
    underline-thickness="150"
    underline-position="-292"
    unicode-range="U+0020-F002"
  />
<missing-glyph horiz-adv-x="2444" 
d="M883 1435h-114q-136 -6 -261 -63q-120 -55 -213 -151q-92 -95 -143 -218q-52 -127 -52 -265h174q0 170 99 307q98 134 254 188q-97 -97 -151 -223q-55 -130 -55 -272h174q0 185 116 329v-329h172v467q71 36 149 49v-516h172v697h-114q-106 -5 -207 -41v41zM1424 1254
q78 -13 149 -49v-467h172v329q116 -144 116 -329h174q0 142 -55 272q-54 126 -151 223q156 -54 254 -188q99 -137 99 -307h174q0 138 -52 265q-51 123 -143 218q-92 96 -213 151q-125 57 -261 63h-114v-41q-101 36 -207 41h-114v-697h172v516zM1829 203q97 96 151 222
q55 130 55 272h-174q0 -185 -116 -329v329h-172v-467q-71 -36 -149 -49v516h-172v-697h114q106 5 207 41v-41h114q136 6 261 63q121 55 213 151q92 95 143 218q52 127 52 265h-174q0 -170 -99 -307q-98 -134 -254 -187zM1032 697h172v-697h-114q-106 5 -207 41v-41h-114
q-136 6 -261 63q-121 55 -213 151q-92 95 -143 218q-52 127 -52 265h174q0 -170 99 -307q98 -134 254 -187q-97 96 -151 222q-55 130 -55 272h174q0 -185 116 -329v329h172v-467q71 -36 149 -49v516z" />
    <glyph glyph-name="O_O" unicode="OO" horiz-adv-x="2894" 
d="M1837 463q-105 105 -105 252q0 148 105 252q105 105 252 105q148 0 252 -105q105 -104 105 -252q0 -147 -105 -252q-104 -105 -252 -105q-147 0 -252 105zM554 463q-105 105 -105 252q0 148 105 252q105 105 252 105q148 0 252 -105q105 -104 105 -252q0 -147 -105 -252
q-104 -105 -252 -105q-147 0 -252 105zM1713 1348q-169 -101 -265 -272q-97 171 -265 272q-174 104 -377 104q-304 0 -520 -216t-216 -521q0 -304 216 -520t520 -216q203 0 377 104q168 100 265 271q96 -171 265 -271q173 -104 376 -104q305 0 520 216q216 216 216 520
q0 305 -216 521q-215 216 -520 216q-203 0 -376 -104z" />
    <glyph glyph-name="o_o" unicode="oo" horiz-adv-x="2370" 
d="M1532 425q-67 66 -67 160t67 161q66 66 160 66t161 -66q66 -67 66 -161t-66 -160q-67 -67 -161 -67t-160 67zM516 425q-67 66 -67 160t67 161q67 66 161 66t160 -66q67 -67 67 -161t-67 -160q-66 -67 -160 -67t-161 67zM1399 1117q-132 -73 -215 -200q-82 127 -215 200
q-136 75 -292 75q-251 0 -429 -178q-178 -177 -178 -428t178 -429t429 -178q156 0 292 76q132 73 215 199q83 -126 215 -199q137 -76 293 -76q251 0 429 178t178 429t-178 428q-178 178 -429 178q-156 0 -293 -75z" />
    <glyph glyph-name="O_G" unicode="OG" horiz-adv-x="2894" 
d="M554 463q-105 104 -105 252q0 147 105 252t252 105q148 0 252 -105q105 -105 105 -252q0 -148 -105 -252q-104 -105 -252 -105q-147 0 -252 105zM2115 849v-264h306q-39 -101 -129 -163q-91 -64 -203 -64q-147 0 -252 105t-105 252q0 148 105 252q105 105 252 105
q122 0 219 -75l269 269q-209 186 -488 186q-203 0 -376 -104q-169 -101 -265 -272q-97 171 -265 272q-174 104 -377 104q-304 0 -520 -216t-216 -521q0 -304 216 -520t520 -216q203 0 377 104q168 100 265 271q96 -171 265 -271q173 -104 376 -104q305 0 520 216
q216 216 216 520v134h-710z" />
    <glyph glyph-name="D_O" unicode="DO" horiz-adv-x="2655" 
d="M1596 468q-105 105 -105 252q0 148 105 252q105 105 252 105q148 0 252 -105q105 -104 105 -252q0 -147 -105 -252q-104 -105 -252 -105q-147 0 -252 105zM458 380v681h129q140 0 240 -100t100 -241q0 -140 -100 -240t-240 -100h-129zM1473 1353q-168 -100 -265 -270
q-96 163 -258 259q-168 98 -363 98h-508v-1440h508q195 0 363 99q162 96 258 258q97 -170 265 -270q173 -103 375 -103q305 0 521 216q215 216 215 520q0 305 -215 521q-216 216 -521 216q-202 0 -375 -104z" />
    <glyph glyph-name="D_O_O" unicode="DOO" horiz-adv-x="3939" 
d="M2880 467q-105 105 -105 252q0 148 105 252q104 105 252 105t252 -105q105 -104 105 -252q0 -147 -105 -252q-104 -105 -252 -105t-252 105zM1597 467q-105 105 -105 252q0 148 105 252q105 105 252 105q148 0 252 -105q105 -104 105 -252q0 -147 -105 -252
q-104 -105 -252 -105q-147 0 -252 105zM459 379v681h129q140 0 240 -100t100 -241q0 -140 -100 -240t-240 -100h-129zM2756 1352q-169 -101 -265 -272q-97 171 -265 272q-174 104 -377 104q-202 0 -375 -104q-168 -100 -265 -270q-96 163 -258 259q-168 98 -363 98h-508
v-1439h508q195 0 363 98q162 96 258 258q97 -170 265 -270q173 -103 375 -103q203 0 377 104q168 100 265 271q96 -171 265 -271q173 -104 376 -104q304 0 520 216t216 520q0 305 -216 521t-520 216q-203 0 -376 -104z" />
    <glyph glyph-name="T_T" unicode="TT" horiz-adv-x="1931" 
d="M70 1435v-379h272v-1056h380v1056h471v-1056h380v1056h289v379h-1792z" />
    <glyph glyph-name="t_t" unicode="tt" horiz-adv-x="1351" 
d="M1113 916h169v264h-169v253h-379v-253h-285v253h-379v-1004q0 -186 132 -318t318 -132h98v264h-66v0q-42 0 -72 30q-31 30 -31 72v571h285v-487q0 -186 132 -318t318 -132h98v264h-66v0q-43 0 -73 30t-30 72v1v1v569z" />
    <glyph glyph-name="f_f" unicode="ff" horiz-adv-x="1417" 
d="M1348 1454q-251 0 -429 -178t-178 -429v-127h-292v127q0 94 67 161t161 67v379q-251 0 -429 -178t-178 -429v-847h379v456h292v-456h379v456h228v264h-228v127q0 94 67 161t161 67v379z" />
    <glyph glyph-name="f_i" unicode="fi" horiz-adv-x="1191" 
d="M741 1182v-462h-292v127q0 94 67 161t161 67v379q-251 0 -429 -178t-178 -429v-847h379v456h292v-456h379v1182h-379z" />
    <glyph glyph-name="f_f_i" unicode="ffi" horiz-adv-x="1862" 
d="M1412 1182v-462h-292v127q0 94 67 161t161 67v379q-251 0 -429 -178t-178 -429v-127h-292v127q0 94 67 161t161 67v379q-251 0 -429 -178t-178 -429v-847h379v456h292v-456h379v456h292v-456h379v1182h-379z" />
    <glyph glyph-name="f_l" unicode="fl" horiz-adv-x="1188" 
d="M677 1454q-251 0 -429 -178t-178 -429v-847h379v456h228v264h-228v127q0 94 67 161t161 67h64v-1075h379v1454h-443z" />
    <glyph glyph-name="f_f_l" unicode="ffl" horiz-adv-x="1862" 
d="M1412 720h-292v127q0 94 67 161t161 67h64v-355zM1348 1454q-251 0 -429 -178t-178 -429v-127h-292v127q0 94 67 161t161 67v379q-251 0 -429 -178t-178 -429v-847h379v456h292v-456h379v456h292v-456h379v1454h-443z" />
    <glyph glyph-name="w_w_w" unicode="www" horiz-adv-x="6283" 
d="M5862 1182l-234 -650l-234 650h-422l-234 -650l-235 650h-681l-234 -650l-234 650h-422l-234 -650l-235 650h-681l-234 -650l-234 650h-422l-234 -650l-235 650h-403l426 -1182h423l234 648l233 -648h424l363 1008l363 -1008h423l234 648l233 -648h424l363 1008
l363 -1008h423l234 648l233 -648h423l427 1182h-404z" />
    <glyph glyph-name=".notdef" horiz-adv-x="2444" 
d="M883 1435h-114q-136 -6 -261 -63q-120 -55 -213 -151q-92 -95 -143 -218q-52 -127 -52 -265h174q0 170 99 307q98 134 254 188q-97 -97 -151 -223q-55 -130 -55 -272h174q0 185 116 329v-329h172v467q71 36 149 49v-516h172v697h-114q-106 -5 -207 -41v41zM1424 1254
q78 -13 149 -49v-467h172v329q116 -144 116 -329h174q0 142 -55 272q-54 126 -151 223q156 -54 254 -188q99 -137 99 -307h174q0 138 -52 265q-51 123 -143 218q-92 96 -213 151q-125 57 -261 63h-114v-41q-101 36 -207 41h-114v-697h172v516zM1829 203q97 96 151 222
q55 130 55 272h-174q0 -185 -116 -329v329h-172v-467q-71 -36 -149 -49v516h-172v-697h114q106 5 207 41v-41h114q136 6 261 63q121 55 213 151q92 95 143 218q52 127 52 265h-174q0 -170 -99 -307q-98 -134 -254 -187zM1032 697h172v-697h-114q-106 5 -207 41v-41h-114
q-136 6 -261 63q-121 55 -213 151q-92 95 -143 218q-52 127 -52 265h174q0 -170 99 -307q98 -134 254 -187q-97 96 -151 222q-55 130 -55 272h174q0 -185 116 -329v329h172v-467q71 -36 149 -49v516z" />
    <glyph glyph-name=".null" horiz-adv-x="0" 
 />
    <glyph glyph-name=".null" horiz-adv-x="0" 
 />
    <glyph glyph-name=".null" horiz-adv-x="0" 
 />
    <glyph glyph-name="nonmarkingreturn" horiz-adv-x="508" 
 />
    <glyph glyph-name="space" unicode=" " horiz-adv-x="301" 
 />
    <glyph glyph-name="space" unicode="&#xa0;" horiz-adv-x="301" 
 />
    <glyph glyph-name="space" unicode="&#xa0;" horiz-adv-x="301" 
 />
    <glyph glyph-name="exclam" unicode="!" horiz-adv-x="558" 
d="M124 43q64 -64 155 -64t155 64t64 155t-64 155t-155 64t-155 -64t-64 -155t64 -155zM89 1435h380v-886h-380v886z" />
    <glyph glyph-name="quotedbl" unicode="&#x22;" horiz-adv-x="629" 
d="M40 1435l33 -518h198l33 518h-264zM323 1435l33 -518h198l33 518h-264z" />
    <glyph glyph-name="numbersign" unicode="#" horiz-adv-x="1701" 
d="M1199 1435l-113 -345h-192l113 345h-399l-113 -345h-425v-264h339l-90 -275h-249v-264h163l-93 -287h399l93 287h192l-93 -287h399l94 287h408v264h-322l89 275h233v264h-147l113 345h-399zM808 826h192l-90 -275h-192z" />
    <glyph glyph-name="dollar" unicode="$" horiz-adv-x="1133" 
d="M773 849l-185 51q-135 26 -138 82q-2 35 21 62q23 26 61 28q115 8 198 -80l276 261q-127 133 -308 179v228h-264v-219q-147 -32 -247 -146q-128 -144 -116 -336q16 -260 267 -376l181 -56q106 -21 146 -48q15 -11 17 -32q2 -44 -18 -63q-27 -25 -87 -28q-22 -3 -65 8
q-75 19 -126 73l-275 -261q129 -136 323 -181v-227h264v226q138 33 223 111q153 141 139 365q-16 268 -287 379z" />
    <glyph glyph-name="percent" unicode="%" horiz-adv-x="2024" 
d="M1097 1435l-580 -1435h409l580 1435h-409zM368 1156q-34 -34 -34 -83q0 -48 34 -82t82 -34q49 0 83 34t34 82q0 49 -34 83t-83 34q-48 0 -82 -34zM182 805q-112 111 -112 268q0 158 112 269q111 112 268 112q158 0 269 -112q112 -111 112 -269q0 -157 -112 -268
q-111 -112 -269 -112q-157 0 -268 112zM1492 446q-34 -34 -34 -83q0 -48 34 -82t82 -34q49 0 83 34t34 82q0 49 -34 83t-83 34q-48 0 -82 -34zM1306 95q-112 111 -112 268q0 158 112 269q111 112 268 112q158 0 269 -112q112 -111 112 -269q0 -157 -112 -268
q-111 -112 -269 -112q-157 0 -268 112z" />
    <glyph glyph-name="ampersand" unicode="&#x26;" horiz-adv-x="1349" 
d="M603 369q-36 -21 -76 -11t-61 45q-22 35 -12 76q10 40 46 61l47 28l106 -169zM738 978q-13 23 -6 49q6 25 29 39q23 13 48 7q26 -6 40 -29l325 195q-94 158 -273 202q-179 45 -336 -50q-127 -77 -183 -214q-54 -136 -18 -276l-60 -36q-170 -102 -218 -295t54 -363
q103 -170 295 -218q58 -14 117 -14q132 0 246 69l56 33l48 -77h448z" />
    <glyph glyph-name="quotesingle" unicode="'" horiz-adv-x="344" 
d="M40 1435l33 -518h198l33 518h-264z" />
    <glyph glyph-name="parenleft" unicode="(" horiz-adv-x="703" 
d="M449 966q0 258 185 451v470q-257 -138 -408 -380q-156 -249 -156 -541v-526q0 -291 156 -540q151 -242 408 -380v470q-185 192 -185 450v526z" />
    <glyph glyph-name="parenright" unicode=")" horiz-adv-x="703" 
d="M255 440q0 -258 -185 -450v-470q257 138 408 380q156 249 156 540v526q0 292 -156 541q-151 242 -408 380v-470q185 -193 185 -451v-526z" />
    <glyph glyph-name="asterisk" unicode="*" horiz-adv-x="1016" 
d="M391 1435l47 -373l-344 161l-74 -227l370 -71l-260 -277l193 -140l181 329l184 -333l193 141l-257 274l373 72l-74 227l-341 -160l48 377h-239z" />
    <glyph glyph-name="plus" unicode="+" horiz-adv-x="1183" 
d="M401 1239v-332h-331v-379h331v-332h380v332h331v379h-331v332h-380z" />
    <glyph glyph-name="comma" unicode="," horiz-adv-x="383" 
d="M59 398v-309q0 -18 -3 -35l-14 -36q-21 -32 -65 -32v-264q173 0 269 128q77 104 77 239v309h-264z" />
    <glyph glyph-name="hyphen" unicode="-" horiz-adv-x="1183" 
d="M70 907v-379h1042v379h-1042z" />
    <glyph glyph-name="hyphen" unicode="&#xad;" horiz-adv-x="1183" 
d="M70 907v-379h1042v379h-1042z" />
    <glyph glyph-name="hyphen" unicode="&#xad;" horiz-adv-x="1183" 
d="M70 907v-379h1042v379h-1042z" />
    <glyph glyph-name="period" unicode="." horiz-adv-x="558" 
d="M124 43q64 -64 155 -64t155 64t64 155t-64 155t-155 64t-155 -64t-64 -155t64 -155z" />
    <glyph glyph-name="slash" unicode="/" horiz-adv-x="810" 
d="M482 1435l-580 -1435h409l580 1435h-409z" />
    <glyph glyph-name="zero" unicode="0" horiz-adv-x="1615" 
d="M735 368l416 442q12 -46 12 -93q0 -147 -105 -252q-104 -105 -252 -105q-36 0 -71 8zM872 1068l-412 -438q-11 43 -11 87q0 148 105 252q105 105 252 105q33 0 66 -6zM286 1238q-216 -216 -216 -521q0 -304 216 -520t520 -216q305 0 521 216t216 520q0 305 -216 521
t-521 216q-304 0 -520 -216z" />
    <glyph glyph-name="one" unicode="1" 
d="M-3 1435v-264h73v-1171h379v1435h-452z" />
    <glyph glyph-name="two" unicode="2" horiz-adv-x="1050" 
d="M975 0h-905v207q0 197 51 308q71 155 289 317q180 134 189 184q0 26 -17 43q-18 18 -43 18q-31 0 -49 -24q-13 -17 -13 -37h-379q0 149 90 267q132 174 351 174q182 0 311 -130q129 -129 129 -311q0 -140 -105 -272q-77 -97 -238 -217q-123 -92 -157 -148h496v-379z" />
    <glyph glyph-name="three" unicode="3" horiz-adv-x="1163" 
d="M1047 1056h2v379h-880v-379h467l-181 -164v-264h127q56 0 96 -40q41 -40 41 -97t-41 -97q-40 -40 -96 -40q-57 0 -97 40t-40 97h-375q0 -212 150 -362t362 -150q133 0 248 65q211 101 250 330q13 58 13 117q0 263 -214 416z" />
    <glyph glyph-name="four" unicode="4" horiz-adv-x="1242" 
d="M497 1435l-427 -879v-340h604v-216h379v220h119v335h-119v880h-556zM674 1130v-575h-245z" />
    <glyph glyph-name="five" unicode="5" horiz-adv-x="1163" 
d="M481 1003v53h566v379h-977v-807h512q56 0 96 -40q41 -40 41 -97t-41 -97q-40 -40 -96 -40q-57 0 -97 40t-40 97h-375q0 -212 150 -362t362 -150q211 0 361 150t150 362t-150 362t-361 150h-101z" />
    <glyph glyph-name="six" unicode="6" horiz-adv-x="1176" 
d="M633 367q-52 -17 -101 9q-48 25 -65 77t9 101q25 48 77 65t101 -9q48 -25 65 -77t-9 -101q-25 -48 -77 -65zM138 728q-97 -188 -32 -390q64 -203 252 -300t390 -32q203 64 300 252t32 390q-64 203 -252 300q-60 30 -126 45l229 442h-427z" />
    <glyph glyph-name="seven" unicode="7" horiz-adv-x="1147" 
d="M70 1438v-380h583l-280 -1058h393l380 1438h-1076z" />
    <glyph glyph-name="eight" unicode="8" horiz-adv-x="1163" 
d="M498 397q-39 39 -39 94q0 54 39 93t94 39q54 0 93 -39t39 -93q0 -55 -39 -94t-93 -39q-55 0 -94 39zM626 1038q0 -34 -34 -34t-34 34t34 34t34 -34zM1005 1038q0 171 -121 292q-121 122 -292 122t-293 -122q-121 -121 -121 -292q0 -101 47 -191q-145 -149 -145 -356
q0 -212 150 -362t362 -150q211 0 361 150t150 362q0 207 -145 356q47 90 47 191z" />
    <glyph glyph-name="nine" unicode="9" horiz-adv-x="1176" 
d="M553 1068q52 17 101 -8q48 -25 65 -77q17 -53 -9 -101q-25 -49 -77 -65q-52 -17 -101 8q-48 25 -65 77t9 101q25 49 77 65zM1048 708q97 188 32 390q-64 202 -252 299t-390 33q-203 -65 -300 -253t-32 -390q64 -202 252 -299q60 -31 126 -45l-229 -443h427z" />
    <glyph glyph-name="colon" unicode=":" horiz-adv-x="558" 
d="M124 43q64 -64 155 -64t155 64t64 155t-64 155t-155 64t-155 -64t-64 -155t64 -155zM124 808q64 -64 155 -64t155 64t64 155t-64 155t-155 64t-155 -64t-64 -155t64 -155z" />
    <glyph glyph-name="semicolon" unicode=";" horiz-adv-x="558" 
d="M124 808q64 -64 155 -64t155 64t64 155t-64 155t-155 64t-155 -64t-64 -155t64 -155zM153 398v-309q0 -18 -3 -35l-14 -36q-21 -32 -65 -32v-264q173 0 269 128q77 104 77 239v309h-264z" />
    <glyph glyph-name="semicolon" unicode="&#x37e;" horiz-adv-x="558" 
d="M124 808q64 -64 155 -64t155 64t64 155t-64 155t-155 64t-155 -64t-64 -155t64 -155zM153 398v-309q0 -18 -3 -35l-14 -36q-21 -32 -65 -32v-264q173 0 269 128q77 104 77 239v309h-264z" />
    <glyph glyph-name="semicolon" unicode="&#x37e;" horiz-adv-x="558" 
d="M124 808q64 -64 155 -64t155 64t64 155t-64 155t-155 64t-155 -64t-64 -155t64 -155zM153 398v-309q0 -18 -3 -35l-14 -36q-21 -32 -65 -32v-264q173 0 269 128q77 104 77 239v309h-264z" />
    <glyph glyph-name="less" unicode="&#x3c;" horiz-adv-x="881" 
d="M812 1309l-742 -367v-449l742 -367v424l-340 167l340 168v424z" />
    <glyph glyph-name="equal" unicode="=" horiz-adv-x="1183" 
d="M70 1189v-380h1042v380h-1042zM70 626v-380h1042v380h-1042z" />
    <glyph glyph-name="greater" unicode="&#x3e;" horiz-adv-x="881" 
d="M70 885l339 -168l-339 -167v-424l742 367v449l-742 367v-424z" />
    <glyph glyph-name="question" unicode="?" horiz-adv-x="1030" 
d="M170 1278q-90 -118 -90 -267h379q0 21 13 37q19 25 49 25q25 0 43 -18t18 -44l-352 -467h474l1 2q155 182 196 251q60 101 60 214q0 182 -129 312q-129 129 -311 129q-218 0 -351 -174zM626 43q-64 -64 -155 -64t-155 64t-64 155t64 155t155 64t155 -64t64 -155t-64 -155
z" />
    <glyph glyph-name="at" unicode="@" horiz-adv-x="1637" 
d="M1095 376v-1q-4 -1 -1 0l155 611q66 -122 43 -271q-31 -192 -186 -330zM695 627q-22 29 -11 73q13 52 60 89q47 38 99 38q43 0 64 -28q22 -29 11 -74q-14 -51 -61 -89q-46 -37 -98 -37q-43 0 -64 28zM430 380q-117 139 -86 335t192 335q161 138 357 138q189 0 306 -131
l-192 19l-2 -6q-56 21 -121 21q-154 0 -287 -106q-132 -106 -172 -260q-40 -160 46 -275t246 -115q54 0 108 14q-4 -53 10 -99q-46 -9 -92 -9q-196 0 -313 139zM379 1236q-251 -216 -299 -521t134 -522q182 -216 487 -216q110 0 219 32l-20 141q43 -35 106 -40
q163 -14 267 98q236 213 283 507q48 305 -134 521t-487 216t-556 -216z" />
    <glyph glyph-name="A" unicode="A" horiz-adv-x="1502" 
d="M541 1435l-517 -1435h403l60 164h532l59 -164h404l-517 1435h-424zM753 903l130 -359h-260z" />
    <glyph glyph-name="B" unicode="B" horiz-adv-x="1367" 
d="M847 379h-398v207h384q43 0 73 -30t30 -73q0 -44 -32 -74q-21 -30 -57 -30zM449 1056h315q42 0 72 -30t30 -73q0 -42 -30 -72q-30 -31 -72 -31v0h-315v206zM1226 973q0 191 -136 327q-135 135 -326 135h-694v-1435h810v1q176 13 296 142q121 130 121 307q0 179 -123 310
q52 100 52 213z" />
    <glyph glyph-name="C" unicode="C" horiz-adv-x="1364" 
d="M554 463q-105 105 -105 252q0 148 105 252q105 105 252 105q122 0 219 -75l269 269q-209 186 -488 186q-304 0 -520 -216t-216 -521q0 -304 216 -520t520 -216q279 0 488 186l-269 269q-97 -76 -219 -76q-147 0 -252 105z" />
    <glyph glyph-name="D" unicode="D" horiz-adv-x="1367" 
d="M449 379v681h129q140 0 240 -100q100 -99 100 -240t-100 -241t-240 -100h-129zM70 1440v-1440h508q297 0 508 211t211 509q0 297 -211 509q-211 211 -508 211h-508z" />
    <glyph glyph-name="E" unicode="E" horiz-adv-x="1025" 
d="M70 1435v-1435h884v379h-505v149h472v379h-472v149h505v379h-884z" />
    <glyph glyph-name="F" unicode="F" horiz-adv-x="1025" 
d="M70 1435v-1435h379v528h472v379h-472v149h505v379h-884z" />
    <glyph glyph-name="G" unicode="G" horiz-adv-x="1612" 
d="M833 849v-264h306q-40 -101 -130 -163q-91 -64 -203 -64q-147 0 -252 105t-105 252q0 148 105 252q105 105 252 105q122 0 219 -75l269 269q-209 186 -488 186q-304 0 -520 -216t-216 -521q0 -304 216 -520t520 -216q305 0 521 216t216 520v134h-710z" />
    <glyph glyph-name="H" unicode="H" horiz-adv-x="1345" 
d="M895 1435v-525h-445v525h-380v-1435h380v530h445v-530h380v1435h-380z" />
    <glyph glyph-name="I" unicode="I" 
d="M70 0h379v1435h-379v-1435z" />
    <glyph glyph-name="J" unicode="J" 
d="M70 1435v-1453q0 -42 -30 -72t-73 -30v0h-66v-264h99q186 0 318 132q131 132 131 318v1369h-379z" />
    <glyph glyph-name="K" unicode="K" horiz-adv-x="1455" 
d="M909 1435l-460 -560v560h-379v-1435h379v277l170 207l363 -484h474l-589 786l533 649h-491z" />
    <glyph glyph-name="L" unicode="L" horiz-adv-x="1025" 
d="M70 1435v-1435h884v379h-505v1056h-379z" />
    <glyph glyph-name="M" unicode="M" horiz-adv-x="1972" 
d="M1315 1435l-326 -903l-325 903h-594v-1435h379v911l329 -911h423l328 911v-911h380v1435h-594z" />
    <glyph glyph-name="N" unicode="N" horiz-adv-x="1514" 
d="M1065 1435v-1001l-496 1001h-499v-1435h379v822l408 -822h588v1435h-380z" />
    <glyph glyph-name="O" unicode="O" horiz-adv-x="1629" 
d="M554 967q-105 -104 -105 -252q0 -147 105 -252t252 -105q148 0 252 105q105 105 105 252q0 148 -105 252q-104 105 -252 105q-147 0 -252 -105zM286 195q-216 216 -216 520q0 305 216 521t520 216q305 0 521 -216t216 -521q0 -304 -216 -520t-521 -216q-304 0 -520 216z
" />
    <glyph glyph-name="P" unicode="P" horiz-adv-x="1367" 
d="M449 599v457h239q95 0 162 -67t67 -162q0 -94 -67 -161t-162 -67h-239zM70 1435v-1435h379v219h239q252 0 430 179q178 178 178 429q0 252 -178 430t-430 178h-618z" />
    <glyph glyph-name="Q" unicode="Q" horiz-adv-x="1607" 
d="M544 463q-105 105 -105 252q0 46 12 90l399 -442q-27 -5 -54 -5q-147 0 -252 105zM1137 611l-409 454q34 7 68 7q148 0 252 -105q105 -104 105 -252q0 -53 -16 -104zM1688 0l-278 309q123 184 123 406q0 305 -216 521t-521 216q-304 0 -520 -216t-216 -521
q0 -304 216 -520t520 -216q174 0 329 78l52 -57h511z" />
    <glyph glyph-name="R" unicode="R" horiz-adv-x="1367" 
d="M449 599v457h239q95 0 162 -67t67 -162q0 -94 -67 -161t-162 -67h-239zM1118 1257q-178 178 -430 178h-618v-1435h379v219h239q10 0 26 1l130 -220h441l-212 357q223 183 223 470q0 252 -178 430z" />
    <glyph glyph-name="S" unicode="S" horiz-adv-x="1132" 
d="M773 848l-185 51q-135 26 -138 83q-2 35 21 61t61 29q115 7 198 -81l276 261q-128 135 -310 180q-102 25 -192 18q-191 -12 -317 -156q-128 -144 -116 -335q16 -261 267 -377l181 -56q106 -20 146 -47q15 -11 17 -33q2 -44 -18 -62q-27 -25 -87 -29q-22 -2 -65 9
q-75 19 -126 72l-275 -261q189 -199 478 -199q207 14 332 128q153 141 139 366q-16 268 -287 378z" />
    <glyph glyph-name="T" unicode="T" horiz-adv-x="1079" 
d="M70 1435v-379h272v-1056h380v1056h288v379h-940z" />
    <glyph glyph-name="U" unicode="U" horiz-adv-x="1286" 
d="M238 149q-168 168 -168 404v882h379v-882q0 -79 57 -136q56 -56 136 -56t136 56q57 57 57 136v882h379v-882q0 -236 -168 -404q-167 -168 -404 -168t-404 168z" />
    <glyph glyph-name="V" unicode="V" horiz-adv-x="1499" 
d="M1074 1435l-325 -903l-326 903h-403l517 -1435h424l517 1435h-404z" />
    <glyph glyph-name="W" unicode="W" horiz-adv-x="2565" 
d="M2140 1435l-325 -903l-326 903h-415l-325 -903l-326 903h-403l517 -1435h424l321 892l321 -892h423l518 1435h-404z" />
    <glyph glyph-name="X" unicode="X" horiz-adv-x="1398" 
d="M875 1435l-175 -294l-176 294h-442l397 -665l-459 -770h442l238 399l237 -399h442l-459 770l397 665h-442z" />
    <glyph glyph-name="Y" unicode="Y" horiz-adv-x="1398" 
d="M937 1435l-237 -399l-238 399h-442l490 -823v-612h379v615l490 820h-442z" />
    <glyph glyph-name="Z" unicode="Z" horiz-adv-x="1079" 
d="M70 1435v-379h492l-492 -677v-379h940v379h-491l491 677v379h-940z" />
    <glyph glyph-name="bracketleft" unicode="[" horiz-adv-x="845" 
d="M78 1887v-2367h698v264h-319v1839h319v264h-698z" />
    <glyph glyph-name="backslash" unicode="\" horiz-adv-x="810" 
d="M-98 1435l580 -1435h409l-580 1435h-409z" />
    <glyph glyph-name="bracketright" unicode="]" horiz-adv-x="845" 
d="M78 1887v-264h318v-1839h-318v-264h698v2367h-698z" />
    <glyph glyph-name="asciicircum" unicode="^" horiz-adv-x="902" 
d="M249 1435l-228 -313h264l166 227l165 -227h264l-228 313h-403z" />
    <glyph glyph-name="underscore" unicode="_" horiz-adv-x="1183" 
d="M70 -2v-379h1042v379h-1042z" />
    <glyph glyph-name="grave" unicode="`" horiz-adv-x="614" 
d="M20 1435l311 -313h264l-311 313h-264z" />
    <glyph glyph-name="a" unicode="a" horiz-adv-x="1352" 
d="M515 427q-67 67 -67 161t67 160q67 67 161 67t160 -67q67 -66 67 -160t-67 -161q-66 -67 -160 -67t-161 67zM903 1182v-32q-109 44 -227 44q-251 0 -429 -178q-178 -177 -178 -428t178 -429t429 -178q118 0 227 44v-25h379v1182h-379z" />
    <glyph glyph-name="b" unicode="b" horiz-adv-x="1354" 
d="M677 360q-94 0 -161 67t-67 161t67 160q67 67 161 67t160 -67q67 -66 67 -160t-67 -161q-66 -67 -160 -67zM70 1435v-1435h379v25q110 -44 228 -44q251 0 428 178q178 178 178 429t-178 428q-177 178 -428 178q-118 0 -228 -44v285h-379z" />
    <glyph glyph-name="c" unicode="c" horiz-adv-x="1176" 
d="M516 425q-67 67 -67 161t67 160q67 67 161 67q92 0 159 -65l268 268q-178 176 -427 176q-251 0 -429 -178q-178 -177 -178 -428t178 -429t429 -178q252 0 430 179l-268 269q-67 -69 -162 -69q-94 0 -161 67z" />
    <glyph glyph-name="d" unicode="d" horiz-adv-x="1354" 
d="M516 427q-67 67 -67 161t67 160q67 67 161 67t160 -67q67 -66 67 -160t-67 -161q-66 -67 -160 -67t-161 67zM904 1435v-285q-109 44 -227 44q-251 0 -429 -178q-178 -177 -178 -428t178 -429t429 -178q118 0 227 44v-25h379v1435h-379z" />
    <glyph glyph-name="e" unicode="e" horiz-adv-x="1352" 
d="M493 719q68 95 185 95q116 0 184 -95h-369zM1284 587q0 251 -178 428q-177 178 -428 178t-429 -178q-178 -177 -178 -428t178 -429t429 -178q252 0 430 179l-268 269q-67 -69 -162 -69q-117 0 -185 96h791v132z" />
    <glyph glyph-name="f" unicode="f" horiz-adv-x="737" 
d="M667 1454q-251 0 -429 -178t-178 -429v-847h379v456h228v264h-228v127q0 94 67 161t161 67v379z" />
    <glyph glyph-name="g" unicode="g" horiz-adv-x="1354" 
d="M517 424q-67 67 -67 161t67 160q67 67 161 67t160 -67q67 -66 67 -160t-67 -161q-66 -66 -160 -66t-161 66zM905 1179v-32q-109 45 -227 45q-251 0 -429 -178t-178 -429t178 -429t429 -178q118 0 227 45v-6q0 -94 -67 -161q-66 -66 -160 -66v-380q251 0 428 178
q178 178 178 429v1162h-379z" />
    <glyph glyph-name="h" unicode="h" horiz-adv-x="1264" 
d="M449 1164v271h-379v-1435h379v632q0 76 54 130q54 53 130 53q75 0 129 -53q54 -54 54 -130v-632h379v632q0 233 -165 398t-397 165q-94 0 -184 -31z" />
    <glyph glyph-name="i" unicode="i" 
d="M71 0h380v1182h-380v-1182zM416 1689q-64 64 -155 64t-155 -64q-64 -65 -64 -155q0 -91 64 -155q64 -65 155 -65t155 65q64 64 64 155q0 90 -64 155z" />
    <glyph glyph-name="j" unicode="j" horiz-adv-x="510" 
d="M71 1182v-1402q0 -43 -30 -73t-72 -30v0h-66v-264h98q186 0 318 132t132 318v1319h-380zM416 1689q-64 64 -155 64t-155 -64q-64 -65 -64 -155q0 -91 64 -155q64 -65 155 -65t155 65q64 64 64 155q0 90 -64 155z" />
    <glyph glyph-name="k" unicode="k" horiz-adv-x="1276" 
d="M70 1435v-1435h380l166 246l184 -246h475l-435 580l405 602h-457l-339 -502v755h-379z" />
    <glyph glyph-name="l" unicode="l" 
d="M70 0h379v1435h-379v-1435z" />
    <glyph glyph-name="m" unicode="m" horiz-adv-x="2022" 
d="M1016 1053q-160 142 -373 142q-94 0 -184 -31v18h-379v-1182h379v632q0 76 54 130q54 53 130 53q75 0 129 -53q54 -54 54 -130v-632h379v632q0 76 54 130q54 53 129 53q76 0 130 -53q54 -54 54 -130v-632h379v632q0 233 -165 398t-398 165q-213 0 -372 -142z" />
    <glyph glyph-name="n" unicode="n" horiz-adv-x="1276" 
d="M459 1164v18h-379v-1182h379v632q0 76 54 130q54 53 130 53q75 0 129 -53q54 -54 54 -130v-632h379v632q0 233 -165 398t-397 165q-94 0 -184 -31z" />
    <glyph glyph-name="o" unicode="o" horiz-adv-x="1354" 
d="M516 746q-67 -66 -67 -160t67 -161t161 -67t160 67q67 67 67 161t-67 160q-66 67 -160 67t-161 -67zM248 157q-178 178 -178 429t178 428q178 178 429 178t428 -178q178 -177 178 -428t-178 -429q-177 -178 -428 -178t-429 178z" />
    <glyph glyph-name="p" unicode="p" horiz-adv-x="1354" 
d="M516 424q-67 67 -67 161t67 160q67 67 161 67t160 -67q67 -66 67 -160t-67 -161q-66 -66 -160 -66t-161 66zM449 1147v32h-379v-1518h379v361q110 -44 228 -44q251 0 428 178q178 178 178 429t-178 428q-177 178 -428 178q-118 0 -228 -44z" />
    <glyph glyph-name="q" unicode="q" horiz-adv-x="1354" 
d="M677 358q-94 0 -161 66q-67 67 -67 161t67 160q67 67 161 67t160 -67q67 -66 67 -160t-67 -161q-66 -66 -160 -66zM677 1191q-251 0 -429 -178q-178 -177 -178 -428t178 -429t429 -178q118 0 227 44v-361h379v1518h-379v-32q-109 44 -227 44z" />
    <glyph glyph-name="r" unicode="r" horiz-adv-x="1104" 
d="M449 1150v32h-379v-1182h379v588q0 94 67 161q67 66 161 66q92 0 159 -65l268 268q-178 177 -427 177q-118 0 -228 -45z" />
    <glyph glyph-name="s" unicode="s" horiz-adv-x="985" 
d="M517 772q-46 8 -67 21q-6 4 1 12q8 7 16 8h5q68 0 113 -47l276 261q-174 183 -418 165q-164 -11 -273 -135q-109 -123 -99 -288q7 -118 74 -205q96 -126 301 -165q63 -12 90 -25q6 -4 0 -7q-13 -8 -35 -9h-6q-9 -2 -36 5q-41 12 -70 43l-275 -262q157 -165 398 -165
q181 0 298 126q115 123 105 298q-19 297 -398 369z" />
    <glyph glyph-name="t" unicode="t" horiz-adv-x="687" 
d="M449 1180v253h-379v-1004q0 -186 132 -318t318 -132h98v264h-66v0q-42 0 -72 30q-31 30 -31 72v571h169v264h-169z" />
    <glyph glyph-name="u" unicode="u" horiz-adv-x="1264" 
d="M816 1180v-638q0 -76 -54 -130t-129 -54q-76 0 -130 54t-54 130v638h-379v-638q0 -233 165 -398t398 -165q232 0 397 165t165 398v638h-379z" />
    <glyph glyph-name="v" unicode="v" horiz-adv-x="1314" 
d="M892 1182l-234 -650l-235 650h-403l426 -1182h423l426 1182h-403z" />
    <glyph glyph-name="w" unicode="w" horiz-adv-x="2207" 
d="M1782 1182l-234 -650l-234 650h-422l-234 -650l-235 650h-403l426 -1182h423l234 648l233 -648h424l426 1182h-404z" />
    <glyph glyph-name="x" unicode="x" horiz-adv-x="1188" 
d="M724 1182l-129 -217l-130 217h-442l351 -588l-354 -594h442l133 223l133 -223h441l-353 594l350 588h-442z" />
    <glyph glyph-name="y" unicode="y" horiz-adv-x="1314" 
d="M892 1182l-234 -650l-235 650h-403l426 -1182h21l-175 -491h401l602 1673h-403z" />
    <glyph glyph-name="z" unicode="z" horiz-adv-x="1044" 
d="M70 1182v-264h474l-474 -654v-264h903v264h-474l474 654v264h-903z" />
    <glyph glyph-name="braceleft" unicode="{" horiz-adv-x="874" 
d="M802 1887q-243 -131 -394 -364q-154 -237 -169 -513l-1 -86q-6 -38 -34 -63q-29 -26 -68 -26h-66v-264h66v0q39 0 68 -25q28 -25 34 -63l1 -98q15 -275 169 -507q150 -227 394 -358v470q-163 169 -182 395q0 185 -134 318q134 134 134 319q19 226 182 395v470z" />
    <glyph glyph-name="bar" unicode="|" 
d="M70 -390h379v2187h-379v-2187z" />
    <glyph glyph-name="braceright" unicode="}" horiz-adv-x="874" 
d="M70 1417q162 -169 182 -395q0 -185 134 -319q-134 -133 -134 -318q-20 -226 -182 -395v-470q244 131 394 358q154 232 169 507l1 98q5 38 34 63t68 25v0h66v264h-66q-39 0 -68 26q-29 25 -34 63l-1 86q-15 276 -169 513q-151 233 -394 364v-470z" />
    <glyph glyph-name="asciitilde" unicode="~" horiz-adv-x="767" 
d="M305 1215q-27 26 -68 23t-72 -35l-152 152q94 94 223 97q130 4 220 -85q27 -27 68 -23q41 3 72 34l152 -151q-97 -98 -232 -98q-125 0 -211 86z" />
    <glyph glyph-name="exclamdown" unicode="&#xa1;" horiz-adv-x="558" 
d="M124 808q64 -64 155 -64t155 64t64 155t-64 155t-155 64t-155 -64t-64 -155t64 -155zM469 -274h-380v886h380v-886z" />
    <glyph glyph-name="cent" unicode="&#xa2;" horiz-adv-x="1175" 
d="M517 746v-323q-68 67 -68 161q0 95 68 162zM839 425q-25 -25 -58 -42v403q31 -16 55 -40l268 269q-136 134 -323 167v200h-264v-212q-195 -54 -320 -215q-127 -163 -127 -371q0 -207 127 -371q125 -161 320 -214v-212h264v200q190 33 326 170z" />
    <glyph glyph-name="sterling" unicode="&#xa3;" horiz-adv-x="746" 
d="M677 1454q-251 0 -429 -178t-178 -429v-847h607v379h-228v216h228v264h-227q5 90 70 153q66 63 157 63v379z" />
    <glyph glyph-name="currency" unicode="&#xa4;" horiz-adv-x="1371" 
d="M524 870q67 67 161 67t160 -67q67 -66 67 -160t-67 -161q-66 -67 -160 -67t-161 67t-67 161t67 160zM1196 1035l103 103l-186 186l-103 -103q-149 95 -325 95q-177 0 -326 -95l-102 103l-187 -186l103 -103q-95 -149 -95 -325q0 -177 95 -325l-103 -103l187 -187l103 103
q148 -95 325 -95q176 0 325 95l103 -103l186 187l-103 103q95 148 95 325q0 176 -95 325z" />
    <glyph glyph-name="yen" unicode="&#xa5;" horiz-adv-x="1398" 
d="M937 1435l-237 -399l-238 399h-442l415 -697h-141v-264h216v-63h-216v-264h216v-147h379v147h216v264h-216v63h216v264h-142l416 697h-442z" />
    <glyph glyph-name="brokenbar" unicode="&#xa6;" 
d="M70 904h380v893h-380v-893zM70 -390h380v893h-380v-893z" />
    <glyph glyph-name="section" unicode="&#xa7;" horiz-adv-x="1101" 
d="M450 732q-5 4 0 10q4 6 11 8q48 -16 102 -26q62 -12 89 -26q6 -3 0 -6q-10 -6 -28 -8q-52 17 -107 27q-46 9 -67 21zM1031 727q-19 298 -398 369q-46 9 -67 22q-6 4 1 12q8 7 16 7l5 1q68 0 113 -48l276 262q-174 182 -418 164q-164 -10 -273 -134t-99 -288q2 -36 10 -70
q-138 -128 -126 -315q7 -119 74 -206q96 -126 302 -165q62 -12 89 -25q6 -4 0 -7q-13 -7 -35 -9h-6q-9 -2 -36 6q-41 12 -70 42l-275 -261q157 -166 399 -166q180 0 297 126q115 124 105 298q-2 34 -10 67q137 126 126 318z" />
    <glyph glyph-name="dieresis" unicode="&#xa8;" horiz-adv-x="749" 
d="M112 1213q41 -41 99 -41t99 41t41 99t-41 99t-99 41t-99 -41t-41 -99t41 -99zM441 1213q41 -41 99 -41t99 41t41 99t-41 99t-99 41t-99 -41t-41 -99t41 -99z" />
    <glyph glyph-name="copyright" unicode="&#xa9;" horiz-adv-x="1616" 
d="M473 383q-139 139 -139 335t139 335q139 138 335 138t335 -138q138 -139 138 -335t-138 -335q-139 -139 -335 -139t-335 139zM286 1239q-216 -216 -216 -521t216 -522q217 -216 522 -216t521 216q216 217 216 522t-216 521t-521 216t-522 -216zM710 609q-45 45 -45 109
t45 109t109 45q63 0 108 -44l187 187q-123 121 -295 121q-173 0 -296 -122q-122 -123 -122 -296t122 -296q123 -123 296 -123q174 0 297 124l-187 187q-45 -47 -110 -47q-64 0 -109 46z" />
    <glyph glyph-name="ordfeminine" unicode="&#xaa;" horiz-adv-x="648" 
 />
    <glyph glyph-name="guillemotleft" unicode="&#xab;" horiz-adv-x="1133" 
d="M542 1309l-473 -367v-449l473 -367v424l-241 168l241 168v423zM1064 1309l-473 -367v-449l473 -367v424l-241 168l241 168v423z" />
    <glyph glyph-name="logicalnot" unicode="&#xac;" horiz-adv-x="1108" 
 />
    <glyph glyph-name="registered" unicode="&#xae;" horiz-adv-x="1616" 
d="M1052 554q98 94 98 230q0 131 -93 224t-224 93h-303q125 90 278 90q196 0 335 -138q138 -139 138 -335q0 -194 -136 -333zM774 730v107h59q22 0 38 -15q15 -16 15 -38q0 -23 -15 -38q-16 -16 -38 -16h-59zM774 334v132h25l72 -132h214q-124 -90 -277 -90t-278 90h244z
M510 1086v-737q-176 143 -176 369q0 225 176 368zM286 1239q-216 -216 -216 -521t216 -522q217 -216 522 -216t521 216q216 217 216 522t-216 521t-521 216t-522 -216z" />
    <glyph glyph-name="macron" unicode="&#xaf;" horiz-adv-x="1183" 
d="M70 1848v-379h1042v379h-1042z" />
    <glyph glyph-name="degree" unicode="&#xb0;" horiz-adv-x="774" 
d="M348 1174q-15 -16 -15 -38t15 -38q16 -16 39 -16q22 0 38 16q15 16 15 38t-15 38q-16 16 -38 16q-23 0 -39 -16zM162 911q-93 93 -93 225q0 131 93 224q93 94 225 94q131 0 224 -94q93 -93 93 -224q0 -132 -93 -225t-224 -93q-132 0 -225 93z" />
    <glyph glyph-name="plusminus" unicode="&#xb1;" horiz-adv-x="1183" 
d="M401 1239v-332h-331v-379h331v-332h380v332h331v379h-331v332h-380zM70 -2v-379h1042v379h-1042z" />
    <glyph glyph-name="uni00B2" unicode="&#xb2;" horiz-adv-x="1014" 
 />
    <glyph glyph-name="uni00B3" unicode="&#xb3;" horiz-adv-x="1014" 
 />
    <glyph glyph-name="acute" unicode="&#xb4;" horiz-adv-x="614" 
d="M331 1435l-311 -313h264l311 313h-264z" />
    <glyph glyph-name="mu" unicode="&#xb5;" horiz-adv-x="1180" 
 />
    <glyph glyph-name="paragraph" unicode="&#xb6;" horiz-adv-x="1108" 
 />
    <glyph glyph-name="periodcentered" unicode="&#xb7;" horiz-adv-x="558" 
d="M124 687q64 -64 155 -64t155 64t64 155t-64 155t-155 64t-155 -64t-64 -155t64 -155z" />
    <glyph glyph-name="periodcentered" unicode="&#x2219;" horiz-adv-x="558" 
d="M124 687q64 -64 155 -64t155 64t64 155t-64 155t-155 64t-155 -64t-64 -155t64 -155z" />
    <glyph glyph-name="periodcentered" unicode="&#x2219;" horiz-adv-x="558" 
d="M124 687q64 -64 155 -64t155 64t64 155t-64 155t-155 64t-155 -64t-64 -155t64 -155z" />
    <glyph glyph-name="cedilla" unicode="&#xb8;" horiz-adv-x="465" 
d="M316 -20l-171 13l-47 -134l78 -27q31 -11 45 -40q14 -30 3 -61q-11 -30 -40 -44q-30 -15 -60 -4l-55 -155q39 -14 81 -14q76 0 139 44q65 44 91 119q33 95 -10 186q-24 49 -66 84z" />
    <glyph glyph-name="uni00B9" unicode="&#xb9;" horiz-adv-x="1014" 
 />
    <glyph glyph-name="ordmasculine" unicode="&#xba;" horiz-adv-x="718" 
 />
    <glyph glyph-name="guillemotright" unicode="&#xbb;" horiz-adv-x="1133" 
d="M591 886l240 -168l-240 -168v-424l473 367v449l-473 367v-423zM69 886l240 -168l-240 -168v-424l473 367v449l-473 367v-423z" />
    <glyph glyph-name="onequarter" unicode="&#xbc;" horiz-adv-x="1708" 
 />
    <glyph glyph-name="onehalf" unicode="&#xbd;" horiz-adv-x="1964" 
 />
    <glyph glyph-name="threequarters" unicode="&#xbe;" horiz-adv-x="1708" 
 />
    <glyph glyph-name="questiondown" unicode="&#xbf;" horiz-adv-x="1030" 
d="M871 -117q90 118 90 267h-379q0 -21 -13 -37q-19 -25 -49 -25q-25 0 -43 18t-18 44l352 467h-474l-1 -2q-155 -182 -196 -251q-60 -101 -60 -214q0 -182 129 -312q129 -129 311 -129q218 0 351 174zM415 1118q64 64 155 64t155 -64t64 -155t-64 -155t-155 -64t-155 64
t-64 155t64 155z" />
    <glyph glyph-name="Agrave" unicode="&#xc0;" horiz-adv-x="1502" 
d="M541 1435l-517 -1435h403l60 164h532l59 -164h404l-517 1435h-424zM753 903l130 -359h-260zM385 1843l311 -313h264l-311 313h-264z" />
    <glyph glyph-name="Aacute" unicode="&#xc1;" horiz-adv-x="1502" 
d="M541 1435l-517 -1435h403l60 164h532l59 -164h404l-517 1435h-424zM753 903l130 -359h-260zM856 1843l-311 -313h264l311 313h-264z" />
    <glyph glyph-name="Acircumflex" unicode="&#xc2;" horiz-adv-x="1502" 
d="M541 1435l-517 -1435h403l60 164h532l59 -164h404l-517 1435h-424zM753 903l130 -359h-260zM552 1843l-229 -313h264l166 227l166 -227h264l-229 313h-402z" />
    <glyph glyph-name="Atilde" unicode="&#xc3;" horiz-adv-x="1502" 
d="M541 1435l-517 -1435h403l60 164h532l59 -164h404l-517 1435h-424zM753 903l130 -359h-260zM677 1606q-26 26 -67 23t-72 -35l-153 152q94 94 224 97q130 4 220 -85q26 -27 67 -23q41 3 72 34l153 -151q-98 -98 -233 -98q-124 0 -211 86z" />
    <glyph glyph-name="Adieresis" unicode="&#xc4;" horiz-adv-x="1502" 
d="M541 1435l-517 -1435h403l60 164h532l59 -164h404l-517 1435h-424zM753 903l130 -359h-260zM486 1564q41 -41 99 -41t99 41t41 99t-41 99t-99 41t-99 -41t-41 -99t41 -99zM815 1564q41 -41 99 -41t99 41t41 99t-41 99t-99 41t-99 -41t-41 -99t41 -99z" />
    <glyph glyph-name="Aring" unicode="&#xc5;" horiz-adv-x="1499" 
d="M619 544l130 359l130 -359h-260zM787 1661q16 -15 16 -38q0 -22 -16 -38q-16 -15 -38 -15t-38 15q-16 16 -16 38q0 23 16 38q16 16 38 16t38 -16zM974 1399q93 93 93 224q0 132 -93 225q-94 93 -225 93q-132 0 -225 -93t-93 -225q0 -131 93 -224l-504 -1399h403l60 164
h532l59 -164h404z" />
    <glyph glyph-name="AE" unicode="&#xc6;" horiz-adv-x="1701" 
d="M537 1435l-517 -1435h403l60 164h264v-164h883v379h-504v149h471v379h-471v149h504v379h-1093zM747 897v-353h-128z" />
    <glyph glyph-name="Ccedilla" unicode="&#xc7;" horiz-adv-x="1364" 
d="M839 -20q260 12 455 185l-269 269q-97 -75 -219 -75q-147 0 -252 105q-105 104 -105 252q0 147 105 252t252 105q122 0 219 -76l269 269q-209 186 -488 186q-304 0 -520 -216t-216 -520q0 -267 172 -472q169 -202 426 -251l-47 -134l78 -27q31 -11 45 -40q14 -30 3 -61
q-11 -30 -40 -44q-30 -15 -60 -4l-55 -155q39 -14 81 -14q76 0 139 44q65 44 91 119q33 95 -10 186q-24 49 -66 84z" />
    <glyph glyph-name="Egrave" unicode="&#xc8;" horiz-adv-x="1025" 
d="M70 1435v-1435h884v379h-505v149h472v379h-472v149h505v379h-884zM224 1843l312 -313h264l-312 313h-264z" />
    <glyph glyph-name="Eacute" unicode="&#xc9;" horiz-adv-x="1025" 
d="M70 1435v-1435h884v379h-505v149h472v379h-472v149h505v379h-884zM536 1843l-312 -313h264l312 313h-264z" />
    <glyph glyph-name="Ecircumflex" unicode="&#xca;" horiz-adv-x="1025" 
d="M70 1435v-1435h884v379h-505v149h472v379h-472v149h505v379h-884zM311 1843l-229 -313h264l166 227l166 -227h264l-229 313h-402z" />
    <glyph glyph-name="Edieresis" unicode="&#xcb;" horiz-adv-x="1025" 
d="M70 1435v-1435h884v379h-505v149h472v379h-472v149h505v379h-884zM265 1564q41 -41 99 -41t99 41t41 99t-41 99t-99 41t-99 -41t-41 -99t41 -99zM594 1564q41 -41 99 -41t99 41t41 99t-41 99t-99 41t-99 -41t-41 -99t41 -99z" />
    <glyph glyph-name="Igrave" unicode="&#xcc;" 
d="M70 0h379v1435h-379v-1435zM-126 1843l311 -313h264l-311 313h-264z" />
    <glyph glyph-name="Iacute" unicode="&#xcd;" 
d="M70 0h379v1435h-379v-1435zM381 1843l-311 -313h264l311 313h-264z" />
    <glyph glyph-name="Icircumflex" unicode="&#xce;" 
d="M70 0h379v1435h-379v-1435zM62 1843l-229 -313h264l166 227l166 -227h264l-229 313h-402z" />
    <glyph glyph-name="Idieresis" unicode="&#xcf;" 
d="M70 0h379v1435h-379v-1435z" />
    <glyph glyph-name="Eth" unicode="&#xd0;" horiz-adv-x="1488" 
d="M569 379v209h128v264h-128v208h128q141 0 240 -100q100 -99 100 -240t-100 -241q-99 -100 -240 -100h-128zM189 1440v-588h-119v-264h119v-588h508q297 0 509 211q211 211 211 509q0 297 -211 509q-212 211 -509 211h-508z" />
    <glyph glyph-name="Ntilde" unicode="&#xd1;" horiz-adv-x="1514" 
d="M1065 1435v-1001l-496 1001h-499v-1435h379v822l408 -822h588v1435h-380zM682 1606q-27 26 -68 23t-72 -35l-152 152q94 94 223 97q130 4 220 -85q27 -27 68 -23q41 3 72 34l152 -151q-97 -98 -232 -98q-125 0 -211 86z" />
    <glyph glyph-name="Ograve" unicode="&#xd2;" horiz-adv-x="1629" 
d="M554 967q-105 -104 -105 -252q0 -147 105 -252t252 -105q148 0 252 105q105 105 105 252q0 148 -105 252q-104 105 -252 105q-147 0 -252 -105zM286 195q-216 216 -216 520q0 305 216 521t520 216q305 0 521 -216t216 -521q0 -304 -216 -520t-521 -216q-304 0 -520 216z
M519 1843l311 -313h264l-311 313h-264z" />
    <glyph glyph-name="Oacute" unicode="&#xd3;" horiz-adv-x="1629" 
d="M554 967q-105 -104 -105 -252q0 -147 105 -252t252 -105q148 0 252 105q105 105 105 252q0 148 -105 252q-104 105 -252 105q-147 0 -252 -105zM286 195q-216 216 -216 520q0 305 216 521t520 216q305 0 521 -216t216 -521q0 -304 -216 -520t-521 -216q-304 0 -520 216z
M830 1843l-311 -313h264l311 313h-264z" />
    <glyph glyph-name="Ocircumflex" unicode="&#xd4;" horiz-adv-x="1629" 
d="M554 967q-105 -104 -105 -252q0 -147 105 -252t252 -105q148 0 252 105q105 105 105 252q0 148 -105 252q-104 105 -252 105q-147 0 -252 -105zM286 195q-216 216 -216 520q0 305 216 521t520 216q305 0 521 -216t216 -521q0 -304 -216 -520t-521 -216q-304 0 -520 216z
M605 1843l-228 -313h264l166 227l165 -227h264l-228 313h-403z" />
    <glyph glyph-name="Otilde" unicode="&#xd5;" horiz-adv-x="1629" 
d="M554 967q-105 -104 -105 -252q0 -147 105 -252t252 -105q148 0 252 105q105 105 105 252q0 148 -105 252q-104 105 -252 105q-147 0 -252 -105zM286 195q-216 216 -216 520q0 305 216 521t520 216q305 0 521 -216t216 -521q0 -304 -216 -520t-521 -216q-304 0 -520 216z
M731 1606q-27 26 -68 23t-72 -35l-152 152q94 94 223 97q130 4 220 -85q27 -27 68 -23q41 3 72 34l152 -151q-97 -98 -232 -98q-125 0 -211 86z" />
    <glyph glyph-name="Odieresis" unicode="&#xd6;" horiz-adv-x="1629" 
d="M554 967q-105 -104 -105 -252q0 -147 105 -252t252 -105q148 0 252 105q105 105 105 252q0 148 -105 252q-104 105 -252 105q-147 0 -252 -105zM286 195q-216 216 -216 520q0 305 216 521t520 216q305 0 521 -216t216 -521q0 -304 -216 -520t-521 -216q-304 0 -520 216z
M546 1564q41 -41 99 -41t99 41t41 99t-41 99t-99 41t-99 -41t-41 -99t41 -99zM875 1564q41 -41 99 -41t99 41t41 99t-41 99t-99 41t-99 -41t-41 -99t41 -99z" />
    <glyph glyph-name="multiply" unicode="&#xd7;" horiz-adv-x="1108" 
 />
    <glyph glyph-name="Oslash" unicode="&#xd8;" horiz-adv-x="1614" 
d="M665 391l469 468q29 -67 29 -141q0 -147 -105 -252q-104 -105 -252 -105q-73 0 -141 30zM554 970q105 105 252 105q74 0 141 -29l-468 -469q-30 68 -30 141q0 148 105 252zM1520 1246l-186 186l-109 -108q-189 131 -419 131q-304 0 -520 -216t-216 -521q0 -229 131 -418
l-109 -109l187 -187l109 109q189 -131 418 -131q305 0 521 216t216 520q0 230 -131 419z" />
    <glyph glyph-name="Ugrave" unicode="&#xd9;" horiz-adv-x="1286" 
d="M238 149q-168 168 -168 404v882h379v-882q0 -79 57 -136q56 -56 136 -56t136 56q57 57 57 136v882h379v-882q0 -236 -168 -404q-167 -168 -404 -168t-404 168zM354 1843l312 -313h264l-312 313h-264z" />
    <glyph glyph-name="Uacute" unicode="&#xda;" horiz-adv-x="1286" 
d="M238 149q-168 168 -168 404v882h379v-882q0 -79 57 -136q56 -56 136 -56t136 56q57 57 57 136v882h379v-882q0 -236 -168 -404q-167 -168 -404 -168t-404 168zM666 1843l-312 -313h264l312 313h-264z" />
    <glyph glyph-name="Ucircumflex" unicode="&#xdb;" horiz-adv-x="1286" 
d="M238 149q-168 168 -168 404v882h379v-882q0 -79 57 -136q56 -56 136 -56t136 56q57 57 57 136v882h379v-882q0 -236 -168 -404q-167 -168 -404 -168t-404 168zM441 1843l-229 -313h264l166 227l166 -227h264l-229 313h-402z" />
    <glyph glyph-name="Udieresis" unicode="&#xdc;" horiz-adv-x="1286" 
d="M238 149q-168 168 -168 404v882h379v-882q0 -79 57 -136q56 -56 136 -56t136 56q57 57 57 136v882h379v-882q0 -236 -168 -404q-167 -168 -404 -168t-404 168zM372 1564q41 -41 99 -41t99 41t41 99t-41 99t-99 41t-99 -41t-41 -99t41 -99zM701 1564q41 -41 99 -41t99 41
t41 99t-41 99t-99 41t-99 -41t-41 -99t41 -99z" />
    <glyph glyph-name="Yacute" unicode="&#xdd;" horiz-adv-x="1398" 
d="M937 1435l-237 -399l-238 399h-442l490 -823v-612h379v615l490 820h-442zM723 1843l-311 -313h264l311 313h-264z" />
    <glyph glyph-name="Thorn" unicode="&#xde;" horiz-adv-x="1353" 
d="M449 491v454h228q94 0 160 -67q67 -66 67 -160t-67 -161q-66 -66 -160 -66h-228zM449 1324v111h-379v-1435h379v111h228q251 0 428 178q178 178 178 429t-178 429q-177 177 -428 177h-228z" />
    <glyph glyph-name="germandbls" unicode="&#xdf;" horiz-adv-x="1183" 
d="M953 1304q-149 148 -358 148t-357 -148t-148 -357v-951h379v951q0 52 37 89t89 37t89 -37t37 -89t-37 -89t-89 -37v-380q52 0 89 -37q37 -36 37 -89q0 -52 -37 -88q-37 -37 -89 -37v-380q209 0 358 148q148 148 148 357q0 178 -111 316q111 139 111 316q0 209 -148 357z
" />
    <glyph glyph-name="agrave" unicode="&#xe0;" horiz-adv-x="1352" 
d="M515 427q-67 67 -67 161t67 160q67 67 161 67t160 -67q67 -66 67 -160t-67 -161q-66 -67 -160 -67t-161 67zM903 1182v-32q-109 44 -227 44q-251 0 -429 -178q-178 -177 -178 -428t178 -429t429 -178q118 0 227 44v-25h379v1182h-379zM388 1659l311 -313h264l-311 313
h-264z" />
    <glyph glyph-name="aacute" unicode="&#xe1;" horiz-adv-x="1352" 
d="M515 427q-67 67 -67 161t67 160q67 67 161 67t160 -67q67 -66 67 -160t-67 -161q-66 -67 -160 -67t-161 67zM903 1182v-32q-109 44 -227 44q-251 0 -429 -178q-178 -177 -178 -428t178 -429t429 -178q118 0 227 44v-25h379v1182h-379zM699 1659l-311 -313h264l311 313
h-264z" />
    <glyph glyph-name="acircumflex" unicode="&#xe2;" horiz-adv-x="1352" 
d="M515 427q-67 67 -67 161t67 160q67 67 161 67t160 -67q67 -66 67 -160t-67 -161q-66 -67 -160 -67t-161 67zM903 1182v-32q-109 44 -227 44q-251 0 -429 -178q-178 -177 -178 -428t178 -429t429 -178q118 0 227 44v-25h379v1182h-379zM474 1659l-228 -313h264l166 227
l165 -227h264l-228 313h-403z" />
    <glyph glyph-name="atilde" unicode="&#xe3;" horiz-adv-x="1352" 
d="M515 427q-67 67 -67 161t67 160q67 67 161 67t160 -67q67 -66 67 -160t-67 -161q-66 -67 -160 -67t-161 67zM903 1182v-32q-109 44 -227 44q-251 0 -429 -178q-178 -177 -178 -428t178 -429t429 -178q118 0 227 44v-25h379v1182h-379zM600 1422q-27 26 -68 23t-72 -35
l-152 152q94 94 223 97q130 4 220 -85q27 -27 68 -23q41 3 72 34l152 -151q-97 -98 -232 -98q-125 0 -211 86z" />
    <glyph glyph-name="adieresis" unicode="&#xe4;" horiz-adv-x="1352" 
d="M515 427q-67 67 -67 161t67 160q67 67 161 67t160 -67q67 -66 67 -160t-67 -161q-66 -67 -160 -67t-161 67zM903 1182v-32q-109 44 -227 44q-251 0 -429 -178q-178 -177 -178 -428t178 -429t429 -178q118 0 227 44v-25h379v1182h-379zM402 1387q41 -41 99 -41t99 41
t41 99t-41 99t-99 41t-99 -41t-41 -99t41 -99zM731 1387q41 -41 99 -41t99 41t41 99t-41 99t-99 41t-99 -41t-41 -99t41 -99z" />
    <glyph glyph-name="aring" unicode="&#xe5;" horiz-adv-x="1352" 
d="M515 427q-67 67 -67 161t67 160q67 67 161 67t160 -67q67 -66 67 -160t-67 -161q-66 -67 -160 -67t-161 67zM903 1182v-32q-109 44 -227 44q-251 0 -429 -178q-178 -177 -178 -428t178 -429t429 -178q118 0 227 44v-25h379v1182h-379zM637 1667q-15 -16 -15 -38t15 -38
q16 -16 39 -16q22 0 38 16q15 16 15 38t-15 38q-16 16 -38 16q-23 0 -39 -16zM451 1404q-93 93 -93 225q0 131 93 224q93 94 225 94q131 0 224 -94q93 -93 93 -224q0 -132 -93 -225t-224 -93q-132 0 -225 93z" />
    <glyph glyph-name="ae" unicode="&#xe6;" horiz-adv-x="2312" 
d="M1451 720q68 95 184 95q117 0 185 -95h-369zM516 427q-67 67 -67 161t67 160q67 67 161 67t160 -67q67 -66 67 -160t-67 -161q-66 -67 -160 -67t-161 67zM2242 588q0 251 -178 428q-178 178 -429 178q-194 0 -352 -113v101h-379v-32q-109 44 -227 44q-251 0 -429 -178
q-178 -177 -178 -428t178 -429t429 -178q118 0 227 44v-25h379v94q158 -113 352 -113q252 0 431 179l-269 269q-67 -69 -162 -69q-116 0 -184 96h791v132z" />
    <glyph glyph-name="ccedilla" unicode="&#xe7;" horiz-adv-x="1176" 
d="M700 -21q239 10 407 179l-268 268q-67 -68 -162 -68q-94 0 -161 67q-67 66 -67 160t67 161t161 67q92 0 159 -66l268 269q-178 176 -427 176q-251 0 -429 -178t-178 -429q0 -211 132 -376q129 -163 330 -213l-49 -137l78 -28q31 -11 45 -40q14 -30 3 -60q-11 -31 -40 -45
q-30 -14 -61 -3l-54 -156q39 -14 80 -14q77 0 140 44q64 45 91 119q33 95 -11 186q-23 50 -65 84z" />
    <glyph glyph-name="egrave" unicode="&#xe8;" horiz-adv-x="1352" 
d="M493 719q68 95 185 95q116 0 184 -95h-369zM1284 587q0 251 -178 428q-177 178 -428 178t-429 -178q-178 -177 -178 -428t178 -429t429 -178q252 0 430 179l-268 269q-67 -69 -162 -69q-117 0 -185 96h791v132zM390 1659l311 -313h264l-311 313h-264z" />
    <glyph glyph-name="eacute" unicode="&#xe9;" horiz-adv-x="1352" 
d="M493 719q68 95 185 95q116 0 184 -95h-369zM1284 587q0 251 -178 428q-177 178 -428 178t-429 -178q-178 -177 -178 -428t178 -429t429 -178q252 0 430 179l-268 269q-67 -69 -162 -69q-117 0 -185 96h791v132zM701 1659l-311 -313h264l311 313h-264z" />
    <glyph glyph-name="ecircumflex" unicode="&#xea;" horiz-adv-x="1352" 
d="M493 719q68 95 185 95q116 0 184 -95h-369zM1284 587q0 251 -178 428q-177 178 -428 178t-429 -178q-178 -177 -178 -428t178 -429t429 -178q252 0 430 179l-268 269q-67 -69 -162 -69q-117 0 -185 96h791v132zM474 1659l-228 -313h264l166 227l165 -227h264l-228 313
h-403z" />
    <glyph glyph-name="edieresis" unicode="&#xeb;" horiz-adv-x="1352" 
d="M493 719q68 95 185 95q116 0 184 -95h-369zM1284 587q0 251 -178 428q-177 178 -428 178t-429 -178q-178 -177 -178 -428t178 -429t429 -178q252 0 430 179l-268 269q-67 -69 -162 -69q-117 0 -185 96h791v132zM402 1387q41 -41 99 -41t99 41t41 99t-41 99t-99 41
t-99 -41t-41 -99t41 -99zM731 1387q41 -41 99 -41t99 41t41 99t-41 99t-99 41t-99 -41t-41 -99t41 -99z" />
    <glyph glyph-name="igrave" unicode="&#xec;" 
d="M71 0h380v1182h-380v-1182zM-124 1659l311 -313h264l-311 313h-264z" />
    <glyph glyph-name="iacute" unicode="&#xed;" 
d="M71 0h380v1182h-380v-1182zM382 1659l-311 -313h264l311 313h-264z" />
    <glyph glyph-name="icircumflex" unicode="&#xee;" 
d="M71 0h380v1182h-380v-1182zM55 1659l-228 -313h264l166 227l165 -227h264l-228 313h-403z" />
    <glyph glyph-name="idieresis" unicode="&#xef;" 
d="M71 0h380v1182h-380v-1182zM0 1387q41 -41 99 -41t99 41t41 99t-41 99t-99 41t-99 -41t-41 -99t41 -99zM329 1387q41 -41 99 -41t99 41t41 99t-41 99t-99 41t-99 -41t-41 -99t41 -99z" />
    <glyph glyph-name="eth" unicode="&#xf0;" horiz-adv-x="1176" 
d="M543 369q-52 17 -77 65q-26 49 -9 101t65 77q49 26 101 9t77 -65q26 -49 9 -101t-65 -77q-49 -26 -101 -9zM845 1103l157 31l-50 259l-233 -45l-47 89l-392 -67l50 -97l-191 -37l50 -259l268 51l17 -33q-66 -14 -126 -45q-188 -97 -252 -300q-65 -202 32 -390t300 -252
q202 -65 390 32t252 300q65 202 -32 390z" />
    <glyph glyph-name="ntilde" unicode="&#xf1;" horiz-adv-x="1276" 
d="M459 1164v18h-379v-1182h379v632q0 76 54 130q54 53 130 53q75 0 129 -53q54 -54 54 -130v-632h379v632q0 233 -165 398t-397 165q-94 0 -184 -31zM567 1422q-27 26 -68 23t-72 -35l-152 152q94 94 223 97q130 4 220 -85q27 -27 68 -23q41 3 72 34l152 -151
q-97 -98 -232 -98q-125 0 -211 86z" />
    <glyph glyph-name="ograve" unicode="&#xf2;" horiz-adv-x="1354" 
d="M516 746q-67 -66 -67 -160t67 -161t161 -67t160 67q67 67 67 161t-67 160q-66 67 -160 67t-161 -67zM248 157q-178 178 -178 429t178 428q178 178 429 178t428 -178q178 -177 178 -428t-178 -429q-177 -178 -428 -178t-429 178zM389 1659l311 -313h264l-311 313h-264z
" />
    <glyph glyph-name="oacute" unicode="&#xf3;" horiz-adv-x="1354" 
d="M516 746q-67 -66 -67 -160t67 -161t161 -67t160 67q67 67 67 161t-67 160q-66 67 -160 67t-161 -67zM248 157q-178 178 -178 429t178 428q178 178 429 178t428 -178q178 -177 178 -428t-178 -429q-177 -178 -428 -178t-429 178zM700 1659l-311 -313h264l311 313h-264z
" />
    <glyph glyph-name="ocircumflex" unicode="&#xf4;" horiz-adv-x="1354" 
d="M516 746q-67 -66 -67 -160t67 -161t161 -67t160 67q67 67 67 161t-67 160q-66 67 -160 67t-161 -67zM248 157q-178 178 -178 429t178 428q178 178 429 178t428 -178q178 -177 178 -428t-178 -429q-177 -178 -428 -178t-429 178zM475 1659l-228 -313h264l166 227l165 -227
h264l-228 313h-403z" />
    <glyph glyph-name="otilde" unicode="&#xf5;" horiz-adv-x="1354" 
d="M516 746q-67 -66 -67 -160t67 -161t161 -67t160 67q67 67 67 161t-67 160q-66 67 -160 67t-161 -67zM248 157q-178 178 -178 429t178 428q178 178 429 178t428 -178q178 -177 178 -428t-178 -429q-177 -178 -428 -178t-429 178zM601 1422q-27 26 -68 23t-72 -35l-152 152
q94 94 223 97q130 4 220 -85q27 -27 68 -23q41 3 72 34l152 -151q-97 -98 -232 -98q-125 0 -211 86z" />
    <glyph glyph-name="odieresis" unicode="&#xf6;" horiz-adv-x="1354" 
d="M516 746q-67 -66 -67 -160t67 -161t161 -67t160 67q67 67 67 161t-67 160q-66 67 -160 67t-161 -67zM248 157q-178 178 -178 429t178 428q178 178 429 178t428 -178q178 -177 178 -428t-178 -429q-177 -178 -428 -178t-429 178zM405 1387q41 -41 99 -41t99 41t41 99
t-41 99t-99 41t-99 -41t-41 -99t41 -99zM734 1387q41 -41 99 -41t99 41t41 99t-41 99t-99 41t-99 -41t-41 -99t41 -99z" />
    <glyph glyph-name="divide" unicode="&#xf7;" horiz-adv-x="1108" 
 />
    <glyph glyph-name="oslash" unicode="&#xf8;" horiz-adv-x="1353" 
d="M640 363l261 261q3 -20 3 -37q0 -94 -67 -161q-66 -67 -160 -67q-18 0 -37 4zM516 747q67 67 161 67q17 0 37 -3l-261 -262q-4 21 -4 38q0 94 67 160zM1266 990l-186 186l-78 -78q-149 95 -325 95q-251 0 -429 -178q-178 -177 -178 -428q0 -177 95 -325l-78 -78l187 -187
l78 78q148 -95 325 -95q251 0 428 178q178 178 178 429q0 176 -95 325z" />
    <glyph glyph-name="ugrave" unicode="&#xf9;" horiz-adv-x="1264" 
d="M816 1180v-638q0 -76 -54 -130t-129 -54q-76 0 -130 54t-54 130v638h-379v-638q0 -233 165 -398t398 -165q232 0 397 165t165 398v638h-379zM345 1659l311 -313h264l-311 313h-264z" />
    <glyph glyph-name="uacute" unicode="&#xfa;" horiz-adv-x="1264" 
d="M816 1180v-638q0 -76 -54 -130t-129 -54q-76 0 -130 54t-54 130v638h-379v-638q0 -233 165 -398t398 -165q232 0 397 165t165 398v638h-379zM656 1659l-311 -313h264l311 313h-264z" />
    <glyph glyph-name="ucircumflex" unicode="&#xfb;" horiz-adv-x="1264" 
d="M816 1180v-638q0 -76 -54 -130t-129 -54q-76 0 -130 54t-54 130v638h-379v-638q0 -233 165 -398t398 -165q232 0 397 165t165 398v638h-379zM431 1659l-228 -313h264l166 227l165 -227h264l-228 313h-403z" />
    <glyph glyph-name="udieresis" unicode="&#xfc;" horiz-adv-x="1264" 
d="M816 1180v-638q0 -76 -54 -130t-129 -54q-76 0 -130 54t-54 130v638h-379v-638q0 -233 165 -398t398 -165q232 0 397 165t165 398v638h-379zM355 1387q41 -41 99 -41t99 41t41 99t-41 99t-99 41t-99 -41t-41 -99t41 -99zM684 1387q41 -41 99 -41t99 41t41 99t-41 99
t-99 41t-99 -41t-41 -99t41 -99z" />
    <glyph glyph-name="yacute" unicode="&#xfd;" horiz-adv-x="1314" 
d="M892 1182l-234 -650l-235 650h-403l426 -1182h21l-175 -491h401l602 1673h-403zM681 1659l-311 -313h264l311 313h-264z" />
    <glyph glyph-name="thorn" unicode="&#xfe;" horiz-adv-x="1353" 
d="M516 557q-67 67 -67 161t67 160q67 67 161 67t160 -67q67 -66 67 -160t-67 -161q-66 -66 -160 -66t-161 66zM449 1280v155h-379v-1435h379v155q110 -44 228 -44q251 0 428 178q178 178 178 429t-178 429q-177 177 -428 177q-118 0 -228 -44z" />
    <glyph glyph-name="ydieresis" unicode="&#xff;" horiz-adv-x="1314" 
d="M892 1182l-234 -650l-235 650h-403l426 -1182h21l-175 -491h401l602 1673h-403zM395 1387q41 -41 99 -41t99 41t41 99t-41 99t-99 41t-99 -41t-41 -99t41 -99zM724 1387q41 -41 99 -41t99 41t41 99t-41 99t-99 41t-99 -41t-41 -99t41 -99z" />
    <glyph glyph-name="dotlessi" unicode="&#x131;" 
d="M71 0h380v1182h-380v-1182z" />
    <glyph glyph-name="circumflex" unicode="&#x2c6;" horiz-adv-x="902" 
d="M249 1435l-228 -313h264l166 227l165 -227h264l-228 313h-403z" />
    <glyph glyph-name="caron" unicode="&#x2c7;" horiz-adv-x="902" 
d="M652 1122l228 313h-264l-166 -227l-165 227h-264l228 -313h403z" />
    <glyph glyph-name="uni02C9" unicode="&#x2c9;" horiz-adv-x="1183" 
d="M70 1848v-379h1042v379h-1042z" />
    <glyph glyph-name="breve" unicode="&#x2d8;" horiz-adv-x="1071" 
 />
    <glyph glyph-name="dotaccent" unicode="&#x2d9;" horiz-adv-x="1068" 
 />
    <glyph glyph-name="ring" unicode="&#x2da;" horiz-adv-x="774" 
d="M348 1174q-15 -16 -15 -38t15 -38q16 -16 39 -16q22 0 38 16q15 16 15 38t-15 38q-16 16 -38 16q-23 0 -39 -16zM162 911q-93 93 -93 225q0 131 93 224q93 94 225 94q131 0 224 -94q93 -93 93 -224q0 -132 -93 -225t-224 -93q-132 0 -225 93z" />
    <glyph glyph-name="ogonek" unicode="&#x2db;" horiz-adv-x="1069" 
 />
    <glyph glyph-name="tilde" unicode="&#x2dc;" horiz-adv-x="767" 
d="M305 1215q-27 26 -68 23t-72 -35l-152 152q94 94 223 97q130 4 220 -85q27 -27 68 -23q41 3 72 34l152 -151q-97 -98 -232 -98q-125 0 -211 86z" />
    <glyph glyph-name="hungarumlaut" unicode="&#x2dd;" horiz-adv-x="1073" 
 />
    <glyph glyph-name="endash" unicode="&#x2013;" horiz-adv-x="1183" 
d="M70 907v-379h1042v379h-1042z" />
    <glyph glyph-name="emdash" unicode="&#x2014;" horiz-adv-x="1183" 
d="M70 907v-379h1042v379h-1042z" />
    <glyph glyph-name="quoteleft" unicode="&#x2018;" horiz-adv-x="362" 
d="M312 759v309q0 18 3 35l14 36q21 32 65 32v264q-173 0 -269 -128q-77 -104 -77 -239v-309h264z" />
    <glyph glyph-name="quoteright" unicode="&#x2019;" horiz-adv-x="362" 
d="M49 1435v-309q0 -18 -3 -35l-14 -36q-21 -32 -65 -32v-264q173 0 269 128q77 104 77 239v309h-264z" />
    <glyph glyph-name="quotesinglbase" unicode="&#x201a;" horiz-adv-x="383" 
d="M59 398v-309q0 -18 -3 -35l-14 -36q-21 -32 -65 -32v-264q173 0 269 128q77 104 77 239v309h-264z" />
    <glyph glyph-name="quotedblleft" unicode="&#x201c;" horiz-adv-x="732" 
d="M680 759v309q0 18 3 35l14 36q21 32 65 32v264q-173 0 -269 -128q-77 -104 -77 -239v-309h264zM312 759v309q0 18 3 35l14 36q21 32 65 32v264q-173 0 -269 -128q-77 -104 -77 -239v-309h264z" />
    <glyph glyph-name="quotedblright" unicode="&#x201d;" horiz-adv-x="732" 
d="M49 1435v-309q0 -18 -3 -35l-14 -36q-21 -32 -65 -32v-264q173 0 269 128q77 104 77 239v309h-264zM417 1435v-309q0 -18 -3 -35l-14 -36q-21 -32 -65 -32v-264q173 0 269 128q77 104 77 239v309h-264z" />
    <glyph glyph-name="quotedblbase" unicode="&#x201e;" horiz-adv-x="732" 
d="M49 398v-309q0 -18 -3 -35l-14 -36q-21 -32 -65 -32v-264q173 0 269 128q77 104 77 239v309h-264zM417 398v-309q0 -18 -3 -35l-14 -36q-21 -32 -65 -32v-264q173 0 269 128q77 104 77 239v309h-264z" />
    <glyph glyph-name="dagger" unicode="&#x2020;" horiz-adv-x="1108" 
 />
    <glyph glyph-name="daggerdbl" unicode="&#x2021;" horiz-adv-x="1108" 
 />
    <glyph glyph-name="bullet" unicode="&#x2022;" horiz-adv-x="558" 
d="M124 808q64 -64 155 -64t155 64t64 155t-64 155t-155 64t-155 -64t-64 -155t64 -155z" />
    <glyph glyph-name="ellipsis" unicode="&#x2026;" horiz-adv-x="2048" 
 />
    <glyph glyph-name="guilsinglleft" unicode="&#x2039;" horiz-adv-x="611" 
d="M542 1309l-473 -367v-449l473 -367v424l-241 168l241 168v423z" />
    <glyph glyph-name="guilsinglright" unicode="&#x203a;" horiz-adv-x="611" 
d="M69 886l240 -168l-240 -168v-424l473 367v449l-473 367v-423z" />
    <glyph glyph-name="fraction" unicode="&#x2044;" horiz-adv-x="1235" 
 />
    <glyph glyph-name="fraction" unicode="&#x2215;" horiz-adv-x="1235" 
 />
    <glyph glyph-name="fraction" unicode="&#x2215;" horiz-adv-x="1235" 
 />
    <glyph glyph-name="franc" unicode="&#x20a3;" horiz-adv-x="1161" 
d="M207 1435v-1001h-127v-264h127v-170h380v170h120v264h-120v94h471v379h-471v149h504v379h-884z" />
    <glyph glyph-name="lira" unicode="&#x20a4;" horiz-adv-x="746" 
d="M677 1454q-251 0 -429 -178t-178 -429v-847h607v379h-228v172h228v148h-228v56h228v148h-220q19 75 79 123q62 49 141 49v379z" />
    <glyph glyph-name="peseta" unicode="&#x20a7;" horiz-adv-x="2216" 
 />
    <glyph glyph-name="Euro" unicode="&#x20ac;" horiz-adv-x="1364" 
d="M1025 434q-97 -76 -219 -76q-98 0 -181 50q-82 49 -129 131h613v148h-658q-2 16 -2 28t2 28h658v149h-613q47 82 129 130q83 50 181 50q122 0 219 -75l269 269q-209 186 -488 186q-304 0 -520 -216t-216 -521q0 -304 216 -520t520 -216q279 0 488 186z" />
    <glyph glyph-name="uni2116" unicode="&#x2116;" horiz-adv-x="2358" 
d="M1662 379h636v-379h-636v379zM1075 1435h380v-1435h-588l-408 822v-822h-379v1435h499l496 -1001v1001zM2018 1174q16 -16 16 -38t-16 -38t-38 -16t-38 16t-16 38t16 38t38 16t38 -16zM2205 912q93 93 93 224q0 132 -93 225t-225 93q-131 0 -224 -93q-94 -93 -94 -225
q0 -131 94 -224q93 -94 224 -94q132 0 225 94z" />
    <glyph glyph-name="trademark" unicode="&#x2122;" horiz-adv-x="2141" 
d="M1659 1435l-225 -626l-226 626h-413v-996h264v631l228 -631h294l227 631v-631h264v996h-413zM70 1435v-263h189v-733h264v733h200v263h-653z" />
    <glyph glyph-name="partialdiff" unicode="&#x2202;" horiz-adv-x="1108" 
 />
    <glyph glyph-name="Delta" unicode="&#x2206;" horiz-adv-x="1235" 
 />
    <glyph glyph-name="product" unicode="&#x220f;" horiz-adv-x="1673" 
 />
    <glyph glyph-name="summation" unicode="&#x2211;" horiz-adv-x="1285" 
 />
    <glyph glyph-name="minus" unicode="&#x2212;" horiz-adv-x="1108" 
 />
    <glyph glyph-name="radical" unicode="&#x221a;" horiz-adv-x="1108" 
 />
    <glyph glyph-name="infinity" unicode="&#x221e;" horiz-adv-x="1108" 
 />
    <glyph glyph-name="integral" unicode="&#x222b;" horiz-adv-x="678" 
 />
    <glyph glyph-name="approxequal" unicode="&#x2248;" horiz-adv-x="1108" 
 />
    <glyph glyph-name="lessequal" unicode="&#x2264;" horiz-adv-x="1108" 
 />
    <glyph glyph-name="greaterequal" unicode="&#x2265;" horiz-adv-x="1108" 
 />
    <glyph glyph-name="uniF001" unicode="&#xf001;" horiz-adv-x="1073" 
 />
    <glyph glyph-name="uniF001" unicode="&#xfb01;" horiz-adv-x="1073" 
 />
    <glyph glyph-name="uniF001" unicode="&#xfb01;" horiz-adv-x="1073" 
 />
    <glyph glyph-name="uniF002" unicode="&#xf002;" horiz-adv-x="1081" 
 />
    <glyph glyph-name="uniF002" unicode="&#xfb02;" horiz-adv-x="1081" 
 />
    <glyph glyph-name="uniF002" unicode="&#xfb02;" horiz-adv-x="1081" 
 />
    </font>
</defs>
</svg>
